<svg width="20" height="16" viewBox="0 0 20 16" fill="none" xmlns="http://www.w3.org/2000/svg">
<g clip-path="url(#clip0)">
<path d="M16 10.7383C16.1768 10.7383 16.3464 10.6717 16.4715 10.5532C16.5965 10.4348 16.6667 10.2741 16.6667 10.1066V0.631662C16.6667 0.464135 16.5965 0.303478 16.4715 0.185019C16.3464 0.0665591 16.1768 0 16 0H0.666685C0.489874 0 0.320273 0.0665591 0.195249 0.185019C0.0702247 0.303478 1.78755e-05 0.464135 1.78755e-05 0.631662V12.21C-0.000873154 12.3254 0.0315623 12.4388 0.0938492 12.5379C0.156136 12.637 0.245916 12.718 0.353371 12.7722C0.451243 12.8167 0.558151 12.8404 0.666685 12.8417C0.799646 12.842 0.929699 12.8046 1.04006 12.7343L4.16001 10.7383H16ZM3.58001 9.5823L1.33335 11.0225V1.26332H15.3334V9.47493H3.95339C3.82043 9.47465 3.69037 9.51204 3.58001 9.5823Z" fill="white"/>
<path d="M19.333 3.1582C19.1562 3.1582 18.9866 3.22476 18.8616 3.34322C18.7365 3.46168 18.6663 3.62234 18.6663 3.78987V14.1807L16.4197 12.7405C16.3093 12.6702 16.1793 12.6329 16.0463 12.6331H3.99967C3.82286 12.6331 3.65326 12.6997 3.52824 12.8182C3.40321 12.9366 3.33301 13.0973 3.33301 13.2648C3.33301 13.4323 3.40321 13.593 3.52824 13.7114C3.65326 13.8299 3.82286 13.8965 3.99967 13.8965H15.8397L18.9596 15.8925C19.07 15.9628 19.2 16.0002 19.333 15.9999C19.4415 15.9986 19.5484 15.9749 19.6463 15.9304C19.7538 15.8762 19.8436 15.7952 19.9058 15.6961C19.9681 15.597 20.0006 15.4836 19.9997 15.3682V3.78987C19.9997 3.62234 19.9295 3.46168 19.8044 3.34322C19.6794 3.22476 19.5098 3.1582 19.333 3.1582Z" fill="white"/>
</g>
<defs>
<clipPath id="clip0">
<rect width="20" height="16" fill="white"/>
</clipPath>
</defs>
</svg>
