<svg width="152" height="17" viewBox="0 0 152 17" fill="none" xmlns="http://www.w3.org/2000/svg">
<g clip-path="url(#clip0)">
<path d="M51.0674 14.0322H0V16.9998H51.0674V14.0322Z" fill="#E9232E"/>
<path d="M101.531 14.0322H50.4639V16.9998H101.531V14.0322Z" fill="#F7AE18"/>
<path d="M152 14.0322H100.933V16.9998H152V14.0322Z" fill="#0A649A"/>
<path d="M3.65088 0.293856C3.66028 0.253057 3.68366 0.216719 3.71709 0.19103C3.75051 0.165341 3.7919 0.151845 3.83423 0.152888H5.60683C5.64916 0.151845 5.69055 0.165341 5.72397 0.19103C5.7574 0.216719 5.78084 0.253057 5.79023 0.293856L9.0502 9.47436C9.07872 9.55891 9.05015 9.6112 8.95235 9.6112H7.11862C7.07631 9.61493 7.03413 9.60298 7.00023 9.57767C6.96634 9.55237 6.94319 9.51559 6.93527 9.47436L6.38924 7.81941H3.03964L2.50171 9.47436C2.49468 9.51603 2.47176 9.55339 2.43765 9.57885C2.40353 9.60432 2.36085 9.61589 2.31836 9.6112H0.476473C0.378674 9.6112 0.350153 9.55891 0.378678 9.47436L3.65088 0.293856ZM5.8065 6.07992L4.7226 2.77013H4.67773L3.59382 6.07992H5.8065Z" fill="white"/>
<path d="M10.1389 0.294058C10.1377 0.275245 10.1406 0.256346 10.1474 0.238713C10.1541 0.22108 10.1646 0.205151 10.1781 0.191822C10.1916 0.178493 10.2077 0.168111 10.2256 0.161446C10.2434 0.154781 10.2625 0.151911 10.2815 0.15309H13.8431C15.5179 0.15309 16.6956 0.861775 17.152 2.28314C17.319 2.81061 17.4046 3.33807 17.4046 4.88426C17.4046 6.43045 17.319 6.95791 17.152 7.48538C16.6874 8.90272 15.5219 9.6114 13.8431 9.6114H10.3019C10.2831 9.61319 10.2641 9.6109 10.2463 9.60471C10.2284 9.59853 10.2121 9.58864 10.1986 9.57562C10.185 9.56259 10.1745 9.54677 10.1677 9.52931C10.1609 9.51186 10.1581 9.49321 10.1593 9.47456L10.1389 0.294058ZM12.2946 7.7914H13.3786C14.3362 7.7914 14.9148 7.51363 15.1512 6.74859C15.2489 6.47076 15.306 6.10832 15.306 4.88426C15.306 3.6602 15.2489 3.29786 15.1512 3.02003C14.9148 2.25498 14.3362 1.97712 13.3786 1.97712H12.2946C12.283 1.97584 12.2714 1.97716 12.2604 1.98095C12.2494 1.98475 12.2394 1.99092 12.2312 1.99904C12.223 2.00716 12.2167 2.017 12.2129 2.02784C12.209 2.03869 12.2077 2.05024 12.209 2.06166V7.6988C12.2077 7.71021 12.209 7.72177 12.2129 7.73261C12.2167 7.74346 12.223 7.7533 12.2312 7.76142C12.2394 7.76954 12.2494 7.77581 12.2604 7.7796C12.2714 7.7834 12.283 7.78462 12.2946 7.78334" fill="white"/>
<path d="M18.5448 8.4716C18.5142 8.43947 18.4971 8.39691 18.4971 8.35275C18.4971 8.30859 18.5142 8.26613 18.5448 8.234L19.6165 7.02604C19.6299 7.01202 19.646 7.00084 19.6638 6.9932C19.6817 6.98557 19.701 6.9816 19.7205 6.9816C19.7399 6.9816 19.7592 6.98557 19.7771 6.9932C19.7949 7.00084 19.811 7.01202 19.8244 7.02604C20.5238 7.62211 21.4075 7.96566 22.3305 8.00043C23.3329 8.00043 23.8952 7.54148 23.8952 6.87308C23.8952 6.31742 23.557 5.97109 22.416 5.81808L21.9107 5.74966C19.967 5.48391 18.8831 4.57792 18.8831 2.91094C18.8831 1.17148 20.2074 0.0158895 22.2775 0.0158895C23.4437 -0.00890682 24.5869 0.338433 25.5375 1.0064C25.619 1.05874 25.6352 1.11512 25.566 1.21176L24.7062 2.48007C24.6959 2.49582 24.6825 2.50941 24.6668 2.51998C24.6511 2.53056 24.6335 2.53796 24.6149 2.54171C24.5963 2.54546 24.5771 2.54547 24.5585 2.54181C24.5399 2.53814 24.5222 2.53088 24.5065 2.52038C23.8567 2.06438 23.0825 1.81313 22.2857 1.79961C21.4381 1.79961 21.002 2.23047 21.002 2.8264C21.002 3.42232 21.4095 3.7162 22.4935 3.86921L23.0029 3.94175C24.9751 4.20348 26.0143 5.09329 26.0143 6.80456C26.0143 8.51583 24.7347 9.78022 22.2571 9.78022C20.9181 9.79326 19.6181 9.33501 18.5896 8.48762" fill="white"/>
<path d="M27.1309 4.88413C27.1309 3.4225 27.1879 2.93535 27.3957 2.32331C27.9051 0.781154 29.1276 0 30.8024 0C32.4772 0 33.6059 0.781135 34.1398 2.10184C34.1505 2.11634 34.1572 2.13327 34.1594 2.15109C34.1615 2.1689 34.159 2.18701 34.152 2.20358C34.145 2.22016 34.1339 2.23466 34.1196 2.24575C34.1053 2.25684 34.0884 2.26412 34.0705 2.26689L32.5343 2.95138C32.517 2.96139 32.4976 2.96747 32.4777 2.96917C32.4578 2.97087 32.4377 2.96815 32.419 2.96121C32.4002 2.95426 32.3833 2.9433 32.3694 2.92906C32.3555 2.91483 32.345 2.89769 32.3386 2.87893C32.2337 2.56376 32.0297 2.28996 31.7563 2.09731C31.4829 1.90467 31.1544 1.80329 30.8187 1.80791C30.4938 1.79081 30.173 1.88586 29.9113 2.07687C29.6496 2.26787 29.4633 2.54288 29.3843 2.85474C29.2702 3.20103 29.2253 3.53523 29.2253 4.86801C29.2253 6.20079 29.2702 6.5511 29.3843 6.88127C29.4634 7.19278 29.6499 7.46734 29.9117 7.65768C30.1734 7.84801 30.4942 7.94226 30.8187 7.92418C31.1544 7.9288 31.4829 7.82741 31.7563 7.63477C32.0297 7.44213 32.2337 7.16832 32.3386 6.85316C32.3454 6.83474 32.3562 6.818 32.3703 6.8042C32.3844 6.79041 32.4014 6.77988 32.4201 6.77333C32.4388 6.76679 32.4587 6.76439 32.4784 6.76636C32.4982 6.76832 32.5173 6.77455 32.5343 6.78464L34.0705 7.4652C34.0885 7.46863 34.1054 7.47639 34.1195 7.48791C34.1337 7.49943 34.1448 7.51435 34.1517 7.53116C34.1585 7.54797 34.161 7.56613 34.159 7.58415C34.1569 7.60216 34.1503 7.61943 34.1398 7.63428C33.6059 8.95498 32.4242 9.73209 30.8024 9.73209C29.1806 9.73209 27.9051 8.95496 27.3957 7.4128C27.1879 6.80077 27.1309 6.31361 27.1309 4.85198" fill="white"/>
<path d="M40.7696 9.6114C40.7235 9.61796 40.6765 9.6077 40.6375 9.5825C40.5985 9.5573 40.5701 9.51895 40.5577 9.47456L38.9277 6.01171H37.6481C37.6368 6.00972 37.6252 6.01039 37.6142 6.01367C37.6032 6.01695 37.5931 6.02274 37.5848 6.03058C37.5764 6.03842 37.5701 6.04809 37.5662 6.05879C37.5624 6.0695 37.5611 6.08094 37.5626 6.09222V9.47456C37.5638 9.49284 37.561 9.51119 37.5545 9.52833C37.5479 9.54548 37.5377 9.56099 37.5246 9.57395C37.5115 9.5869 37.4958 9.59698 37.4784 9.60344C37.4611 9.6099 37.4426 9.61258 37.4241 9.6114H35.6351C35.6163 9.61319 35.5973 9.6109 35.5794 9.60471C35.5616 9.59853 35.5453 9.58864 35.5317 9.57562C35.5182 9.56259 35.5076 9.54677 35.5008 9.52931C35.4941 9.51186 35.4912 9.49321 35.4925 9.47456V0.294058C35.4913 0.275245 35.4942 0.256346 35.5009 0.238713C35.5077 0.22108 35.5181 0.205151 35.5316 0.191822C35.5451 0.178493 35.5613 0.168111 35.5792 0.161446C35.597 0.154781 35.6161 0.151911 35.6351 0.15309H39.4493C41.4053 0.15309 42.7093 1.36106 42.7093 3.08844C42.7257 3.6451 42.5719 4.19375 42.2681 4.66278C41.9642 5.13181 41.5244 5.49947 41.0059 5.71778L42.8926 9.44635C42.9046 9.46279 42.9114 9.48226 42.9124 9.50248C42.9133 9.5227 42.9083 9.54281 42.898 9.56028C42.8876 9.57775 42.8724 9.5919 42.8541 9.60098C42.8358 9.61006 42.8152 9.61364 42.7948 9.6114H40.7696ZM40.6147 3.08844C40.6188 2.9242 40.5871 2.761 40.5218 2.6099C40.4565 2.45881 40.3591 2.32336 40.2363 2.21266C40.1134 2.10195 39.968 2.01863 39.8097 1.96827C39.6514 1.91792 39.484 1.90172 39.3189 1.92079H37.6318C37.6203 1.91951 37.6086 1.92083 37.5976 1.92462C37.5866 1.92842 37.5767 1.93459 37.5685 1.94271C37.5602 1.95084 37.554 1.96067 37.5502 1.97152C37.5463 1.98236 37.545 1.99392 37.5463 2.00533V4.20783C37.545 4.21925 37.5463 4.23081 37.5502 4.24165C37.554 4.25249 37.5602 4.26233 37.5685 4.27045C37.5767 4.27857 37.5866 4.28474 37.5976 4.28854C37.6086 4.29234 37.6203 4.29365 37.6318 4.29237H39.3189C39.4853 4.31099 39.6538 4.29398 39.813 4.24243C39.9721 4.19089 40.1182 4.10607 40.2412 3.99373C40.3641 3.88138 40.4611 3.74411 40.5256 3.59137C40.5901 3.43863 40.6205 3.27399 40.6147 3.1086" fill="white"/>
<path d="M46.1892 0.152832H44.4043C44.3256 0.152832 44.2617 0.215928 44.2617 0.293761V9.47022C44.2617 9.54805 44.3256 9.61115 44.4043 9.61115H46.1892C46.2679 9.61115 46.3318 9.54805 46.3318 9.47022V0.293761C46.3318 0.215928 46.2679 0.152832 46.1892 0.152832Z" fill="white"/>
<path d="M50.2729 9.61143C50.254 9.61323 50.2351 9.61094 50.2172 9.60475C50.1993 9.59856 50.1831 9.58868 50.1695 9.57565C50.1559 9.56263 50.1454 9.5468 50.1386 9.52935C50.1318 9.5119 50.129 9.49325 50.1302 9.47459V2.06169C50.1315 2.05028 50.1302 2.03872 50.1264 2.02788C50.1225 2.01703 50.1163 2.0072 50.1081 1.99907C50.0998 1.99095 50.0899 1.98478 50.0789 1.98099C50.0679 1.97719 50.0562 1.97587 50.0447 1.97715H47.6241C47.6054 1.97775 47.5868 1.97444 47.5695 1.96752C47.5521 1.96059 47.5364 1.95021 47.5234 1.93695C47.5103 1.92368 47.5002 1.90789 47.4937 1.89055C47.4872 1.8732 47.4845 1.85474 47.4856 1.83628V0.294091C47.4845 0.275632 47.4872 0.257168 47.4937 0.239827C47.5002 0.222486 47.5103 0.206594 47.5234 0.193329C47.5364 0.180064 47.5521 0.169682 47.5695 0.162757C47.5868 0.155831 47.6054 0.152528 47.6241 0.153123H54.7187C54.7375 0.151868 54.7565 0.154684 54.7741 0.16138C54.7918 0.168077 54.8077 0.178545 54.8209 0.191953C54.8341 0.205361 54.8442 0.221401 54.8505 0.23904C54.8567 0.25668 54.859 0.275484 54.8572 0.294091V1.83628C54.859 1.85489 54.8567 1.87359 54.8505 1.89123C54.8442 1.90887 54.8341 1.92501 54.8209 1.93842C54.8077 1.95183 54.7918 1.9622 54.7741 1.96889C54.7565 1.97559 54.7375 1.97841 54.7187 1.97715H52.2737C52.2621 1.97587 52.2504 1.97719 52.2395 1.98099C52.2285 1.98478 52.2185 1.99095 52.2103 1.99907C52.2021 2.0072 52.1958 2.01703 52.192 2.02788C52.1881 2.03872 52.1868 2.05028 52.1881 2.06169V9.47459C52.1894 9.49325 52.1865 9.5119 52.1798 9.52935C52.173 9.5468 52.1624 9.56263 52.1489 9.57565C52.1353 9.58868 52.119 9.59856 52.1012 9.60475C52.0833 9.61094 52.0643 9.61323 52.0455 9.61143H50.2729Z" fill="white"/>
<path d="M57.6772 0.293969C57.6859 0.252795 57.7091 0.215979 57.7427 0.19016C57.7762 0.164341 57.818 0.151165 57.8605 0.153001H59.6332C59.6755 0.151958 59.7169 0.165454 59.7503 0.191143C59.7838 0.216832 59.8071 0.253169 59.8165 0.293969L63.052 9.47447C63.0806 9.55903 63.052 9.61131 62.9542 9.61131H61.1246C61.0823 9.61505 61.0401 9.60309 61.0062 9.57779C60.9723 9.55249 60.9492 9.51571 60.9412 9.47447L60.3911 7.81953H57.0415L56.5077 9.47447C56.4998 9.51571 56.4766 9.55249 56.4427 9.57779C56.4088 9.60309 56.3666 9.61505 56.3243 9.61131H54.4824C54.3806 9.61131 54.352 9.55903 54.3806 9.47447L57.6772 0.293969ZM59.8288 6.08004L58.7448 2.77024H58.7041L57.6201 6.08004H59.8288Z" fill="white"/>
<path d="M70.0609 0.293856C70.0703 0.253057 70.0937 0.216719 70.1271 0.19103C70.1605 0.165341 70.2019 0.151845 70.2443 0.152888H72.0209C72.0633 0.151845 72.1047 0.165341 72.1381 0.19103C72.1715 0.216719 72.1949 0.253057 72.2043 0.293856L75.4398 9.47436C75.4684 9.55892 75.4398 9.6112 75.342 9.6112H73.5124C73.4701 9.61493 73.4279 9.60298 73.394 9.57768C73.3601 9.55237 73.337 9.51559 73.329 9.47436L72.7789 7.81941H69.4293L68.8955 9.47436C68.8876 9.51559 68.8644 9.55237 68.8305 9.57768C68.7966 9.60298 68.7544 9.61493 68.7121 9.6112H66.8662C66.7684 9.6112 66.7398 9.55892 66.7683 9.47436L70.0609 0.293856ZM72.2165 6.07993L71.1326 2.77013H71.0919L70.0079 6.07993H72.2165Z" fill="white"/>
<path d="M79.6211 4.88413C79.6211 3.47887 79.6782 2.95142 79.8901 2.2951C80.379 0.76502 81.7034 0 83.4067 0C85.1956 0 86.3651 0.877783 86.8134 2.01326C86.8255 2.03017 86.8337 2.04951 86.8373 2.06989C86.841 2.09027 86.84 2.11114 86.8346 2.13113C86.8291 2.15112 86.8193 2.16968 86.8058 2.18549C86.7923 2.2013 86.7754 2.21402 86.7563 2.22265L85.2527 2.85071C85.1549 2.87487 85.0815 2.85074 85.053 2.77826C84.9062 2.47716 84.6739 2.22471 84.3845 2.0517C84.0951 1.87869 83.7611 1.79262 83.423 1.80388C83.0831 1.77828 82.7448 1.86975 82.4655 2.06281C82.1861 2.25587 81.9831 2.53855 81.8909 2.86281C81.7768 3.19701 81.736 3.63993 81.736 4.87607C81.736 6.11221 81.7768 6.57124 81.8909 6.88933C81.9878 7.2153 82.1966 7.49773 82.4814 7.68805C82.7662 7.87837 83.1093 7.96474 83.4516 7.93224C83.7795 7.95707 84.1067 7.87588 84.3838 7.70083C84.661 7.52578 84.873 7.26642 84.9878 6.96188C85.0688 6.65716 85.1058 6.34265 85.0979 6.0277C85.0999 6.01651 85.0992 6.00496 85.0959 5.99408C85.0925 5.9832 85.0867 5.97331 85.0788 5.96508C85.0708 5.95685 85.061 5.9505 85.0502 5.9467C85.0394 5.94289 85.0277 5.94172 85.0163 5.94316H83.7205C83.7017 5.94495 83.6827 5.94266 83.6648 5.93647C83.647 5.93029 83.6307 5.9203 83.6171 5.90728C83.6035 5.89425 83.593 5.87853 83.5862 5.86107C83.5794 5.84362 83.5766 5.82487 83.5779 5.80622V4.46939C83.5766 4.45074 83.5794 4.43208 83.5862 4.41463C83.593 4.39718 83.6035 4.38135 83.6171 4.36833C83.6307 4.3553 83.647 4.34542 83.6648 4.33923C83.6827 4.33304 83.7017 4.33075 83.7205 4.33255H87.0131C87.0319 4.33075 87.0509 4.33304 87.0687 4.33923C87.0866 4.34542 87.1029 4.3553 87.1164 4.36833C87.13 4.38135 87.1405 4.39718 87.1473 4.41463C87.1541 4.43208 87.1569 4.45074 87.1557 4.46939V5.25061C87.1773 5.96693 87.0964 6.68269 86.9153 7.37663C86.4385 8.89463 85.1141 9.74015 83.423 9.74015C81.7319 9.74015 80.3954 8.97915 79.9064 7.44504C79.6945 6.79275 79.6374 6.2653 79.6374 4.86005" fill="white"/>
<path d="M94.0056 9.6114C93.9598 9.61875 93.913 9.60878 93.8744 9.58338C93.8359 9.55798 93.8085 9.5191 93.7978 9.47456L92.1474 6.01171H90.8678C90.8565 6.00972 90.8449 6.01039 90.8339 6.01367C90.8228 6.01695 90.8128 6.02274 90.8045 6.03058C90.7961 6.03842 90.7898 6.04808 90.7859 6.05879C90.7821 6.0695 90.7808 6.08094 90.7823 6.09222V9.47456C90.7835 9.49284 90.7807 9.51118 90.7742 9.52833C90.7676 9.54548 90.7575 9.56099 90.7444 9.57394C90.7313 9.5869 90.7155 9.59697 90.6981 9.60343C90.6808 9.6099 90.6622 9.61258 90.6437 9.6114H88.8548C88.836 9.61319 88.817 9.6109 88.7991 9.60471C88.7813 9.59853 88.765 9.58864 88.7515 9.57561C88.7379 9.56259 88.7273 9.54677 88.7206 9.52931C88.7138 9.51186 88.7109 9.49321 88.7122 9.47456V0.294058C88.711 0.275245 88.7139 0.256346 88.7206 0.238713C88.7274 0.22108 88.7378 0.205151 88.7513 0.191822C88.7648 0.178493 88.781 0.168111 88.7989 0.161446C88.8167 0.154781 88.8358 0.151911 88.8548 0.15309H92.669C94.625 0.15309 95.929 1.36106 95.929 3.08844C95.9454 3.6451 95.7917 4.19375 95.4878 4.66278C95.184 5.13181 94.7441 5.49947 94.2256 5.71778L96.1123 9.44635C96.1243 9.46279 96.1312 9.48226 96.1321 9.50248C96.1331 9.5227 96.128 9.54281 96.1177 9.56028C96.1073 9.57775 96.0921 9.5919 96.0738 9.60098C96.0554 9.61006 96.0349 9.61364 96.0145 9.6114H94.0056ZM93.8507 3.08844C93.8547 2.92458 93.8231 2.76176 93.758 2.61098C93.693 2.4602 93.596 2.32496 93.4736 2.21433C93.3512 2.10369 93.2062 2.02029 93.0485 1.96965C92.8907 1.91901 92.7238 1.90234 92.5589 1.92079H90.8678C90.8563 1.91951 90.8446 1.92083 90.8336 1.92462C90.8226 1.92842 90.8127 1.93459 90.8045 1.94271C90.7962 1.95084 90.79 1.96067 90.7862 1.97152C90.7823 1.98236 90.781 1.99392 90.7823 2.00533V4.20783C90.781 4.21925 90.7823 4.23081 90.7862 4.24165C90.79 4.25249 90.7962 4.26233 90.8045 4.27045C90.8127 4.27857 90.8226 4.28474 90.8336 4.28854C90.8446 4.29233 90.8563 4.29365 90.8678 4.29237H92.5589C92.725 4.31036 92.8931 4.29288 93.0518 4.24106C93.2104 4.18923 93.3559 4.10433 93.4785 3.99205C93.601 3.87978 93.6976 3.74271 93.7618 3.59029C93.8261 3.43786 93.8564 3.27361 93.8507 3.1086" fill="white"/>
<path d="M100.073 0.293969C100.082 0.253169 100.106 0.216832 100.139 0.191143C100.173 0.165454 100.214 0.151958 100.256 0.153001H102.029C102.072 0.151165 102.113 0.164341 102.147 0.19016C102.181 0.215979 102.204 0.252795 102.212 0.293969L105.472 9.47447C105.501 9.55903 105.472 9.61131 105.375 9.61131H103.545C103.502 9.61601 103.46 9.60443 103.426 9.57897C103.392 9.5535 103.369 9.51614 103.362 9.47447L102.803 7.83162H99.4537L98.9158 9.48656C98.9087 9.52823 98.8858 9.56559 98.8517 9.59106C98.8176 9.61653 98.7749 9.6281 98.7324 9.6234H96.8905C96.7927 9.6234 96.7642 9.57112 96.7927 9.48656L100.073 0.293969ZM102.229 6.08004L101.145 2.77024H101.1L100.016 6.08004H102.229Z" fill="white"/>
<path d="M107.774 9.61143C107.755 9.61323 107.736 9.61094 107.719 9.60475C107.701 9.59856 107.684 9.58868 107.671 9.57565C107.657 9.56263 107.647 9.5468 107.64 9.52935C107.633 9.5119 107.63 9.49325 107.632 9.47459V2.06169C107.633 2.05028 107.632 2.03872 107.628 2.02788C107.624 2.01703 107.618 2.0072 107.609 1.99907C107.601 1.99095 107.591 1.98478 107.58 1.98099C107.569 1.97719 107.558 1.97587 107.546 1.97715H105.125C105.107 1.97841 105.088 1.97559 105.07 1.96889C105.052 1.9622 105.036 1.95183 105.023 1.93842C105.01 1.92501 105 1.90887 104.994 1.89123C104.987 1.87359 104.985 1.85489 104.987 1.83628V0.294091C104.985 0.275484 104.987 0.25668 104.994 0.23904C105 0.221401 105.01 0.205361 105.023 0.191953C105.036 0.178545 105.052 0.168077 105.07 0.16138C105.088 0.154684 105.107 0.151868 105.125 0.153123H112.208C112.227 0.151868 112.246 0.154684 112.263 0.16138C112.281 0.168077 112.297 0.178545 112.31 0.191953C112.323 0.205361 112.333 0.221401 112.34 0.23904C112.346 0.25668 112.348 0.275484 112.346 0.294091V1.83628C112.348 1.85489 112.346 1.87359 112.34 1.89123C112.333 1.90887 112.323 1.92501 112.31 1.93842C112.297 1.95183 112.281 1.9622 112.263 1.96889C112.246 1.97559 112.227 1.97841 112.208 1.97715H109.787C109.776 1.97587 109.764 1.97719 109.753 1.98099C109.742 1.98478 109.732 1.99095 109.724 1.99907C109.716 2.0072 109.709 2.01703 109.706 2.02788C109.702 2.03872 109.7 2.05028 109.702 2.06169V9.47459C109.703 9.49325 109.7 9.5119 109.693 9.52935C109.687 9.5468 109.676 9.56263 109.662 9.57565C109.649 9.58868 109.633 9.59856 109.615 9.60475C109.597 9.61094 109.578 9.61323 109.559 9.61143H107.774Z" fill="white"/>
<path d="M113.459 6.13655V0.294058C113.458 0.275245 113.461 0.256346 113.468 0.238713C113.474 0.22108 113.485 0.205151 113.498 0.191822C113.512 0.178493 113.528 0.168111 113.546 0.161446C113.564 0.154781 113.583 0.151911 113.602 0.15309H115.387C115.406 0.151911 115.425 0.154781 115.443 0.161446C115.461 0.168111 115.477 0.178493 115.49 0.191822C115.504 0.205151 115.514 0.22108 115.521 0.238713C115.528 0.256346 115.531 0.275245 115.529 0.294058V6.19288C115.529 7.31628 116.161 7.95655 117.135 7.95655C118.109 7.95655 118.724 7.31628 118.724 6.19288V0.294058C118.723 0.275245 118.726 0.256346 118.733 0.238713C118.739 0.22108 118.75 0.205151 118.763 0.191822C118.777 0.178493 118.793 0.168111 118.811 0.161446C118.829 0.154781 118.848 0.151911 118.867 0.15309H120.652C120.671 0.151911 120.69 0.154781 120.708 0.161446C120.725 0.168111 120.742 0.178493 120.755 0.191822C120.769 0.205151 120.779 0.22108 120.786 0.238713C120.792 0.256346 120.795 0.275245 120.794 0.294058V6.13655C120.794 8.48805 119.274 9.76043 117.127 9.76043C114.979 9.76043 113.459 8.48402 113.459 6.13655Z" fill="white"/>
<path d="M124.507 0.152832H122.722C122.643 0.152832 122.579 0.215928 122.579 0.293761V9.47022C122.579 9.54805 122.643 9.61115 122.722 9.61115H124.507C124.585 9.61115 124.649 9.54805 124.649 9.47022V0.293761C124.649 0.215928 124.585 0.152832 124.507 0.152832Z" fill="white"/>
<path d="M126.479 0.294058C126.478 0.275245 126.481 0.256346 126.487 0.238713C126.494 0.22108 126.504 0.205151 126.518 0.191822C126.531 0.178493 126.548 0.168111 126.565 0.161446C126.583 0.154781 126.602 0.151911 126.621 0.15309H130.183C131.858 0.15309 133.035 0.861775 133.492 2.28314C133.659 2.81061 133.744 3.33807 133.744 4.88426C133.744 6.43045 133.659 6.95791 133.492 7.48538C133.027 8.90272 131.862 9.6114 130.183 9.6114H126.621C126.603 9.61319 126.584 9.6109 126.566 9.60471C126.548 9.59853 126.532 9.58864 126.518 9.57562C126.504 9.56259 126.494 9.54677 126.487 9.52931C126.48 9.51186 126.478 9.49321 126.479 9.47456V0.294058ZM128.634 7.7914H129.718C130.676 7.7914 131.255 7.51363 131.491 6.74859C131.589 6.47076 131.646 6.10832 131.646 4.88426C131.646 3.6602 131.589 3.29786 131.491 3.02003C131.255 2.25498 130.676 1.97712 129.718 1.97712H128.634C128.623 1.97584 128.611 1.97716 128.6 1.98095C128.589 1.98475 128.579 1.99092 128.571 1.99904C128.563 2.00716 128.557 2.017 128.553 2.02784C128.549 2.03869 128.548 2.05024 128.549 2.06166V7.6988C128.548 7.71021 128.549 7.72177 128.553 7.73261C128.557 7.74346 128.563 7.7533 128.571 7.76142C128.579 7.76954 128.589 7.77581 128.6 7.7796C128.611 7.7834 128.623 7.78462 128.634 7.78334" fill="white"/>
<path d="M137.558 0.293856C137.568 0.253057 137.591 0.216719 137.624 0.19103C137.658 0.165341 137.699 0.151845 137.742 0.152888H139.514C139.557 0.151845 139.598 0.165341 139.631 0.19103C139.665 0.216719 139.688 0.253057 139.698 0.293856L142.958 9.47436C142.986 9.55892 142.958 9.6112 142.86 9.6112H141.026C140.984 9.61493 140.942 9.60298 140.908 9.57768C140.874 9.55237 140.851 9.5156 140.843 9.47436L140.293 7.83151H136.943L136.405 9.48645C136.398 9.52812 136.375 9.56548 136.341 9.59095C136.307 9.61642 136.264 9.62799 136.222 9.62329H134.38C134.282 9.62329 134.253 9.57101 134.282 9.48645L137.558 0.293856ZM139.714 6.07993L138.63 2.77013H138.585L137.501 6.07993H139.714Z" fill="white"/>
<path d="M144.045 0.294058C144.044 0.275245 144.047 0.256346 144.054 0.238713C144.06 0.22108 144.071 0.205151 144.084 0.191822C144.098 0.178493 144.114 0.168111 144.132 0.161446C144.15 0.154781 144.169 0.151911 144.188 0.15309H147.749C149.424 0.15309 150.602 0.861775 151.058 2.28314C151.225 2.81061 151.311 3.33807 151.311 4.88426C151.311 6.43045 151.225 6.95791 151.058 7.48538C150.594 8.90272 149.428 9.6114 147.749 9.6114H144.188C144.169 9.61319 144.15 9.6109 144.132 9.60471C144.114 9.59853 144.098 9.58864 144.084 9.57562C144.071 9.56259 144.06 9.54677 144.054 9.52931C144.047 9.51186 144.044 9.49321 144.045 9.47456V0.294058ZM146.201 7.7914H147.285C148.242 7.7914 148.821 7.51363 149.057 6.74859C149.159 6.47076 149.212 6.10832 149.212 4.88426C149.212 3.6602 149.159 3.29786 149.057 3.02003C148.821 2.25498 148.242 1.97712 147.285 1.97712H146.201C146.189 1.97584 146.178 1.97716 146.167 1.98095C146.156 1.98475 146.146 1.99092 146.138 1.99904C146.129 2.00716 146.123 2.017 146.119 2.02784C146.115 2.03869 146.114 2.05024 146.115 2.06166V7.6988C146.114 7.71021 146.115 7.72177 146.119 7.73261C146.123 7.74346 146.129 7.7533 146.138 7.76142C146.146 7.76954 146.156 7.77581 146.167 7.7796C146.178 7.7834 146.189 7.78462 146.201 7.78334" fill="white"/>
</g>
<defs>
<clipPath id="clip0">
<rect width="152" height="17" fill="white"/>
</clipPath>
</defs>
</svg>
