<svg width="76" height="25" viewBox="0 0 76 25" fill="none" xmlns="http://www.w3.org/2000/svg">
<g clip-path="url(#clip0)">
<path d="M26.2331 24.8917H25.2746V23.7237C28.3594 23.6194 30.5099 22.921 32.5234 21.3558C34.3917 19.8441 35.6733 17.7309 36.1479 15.3797C36.1841 15.1348 36.2566 14.7777 36.2888 14.3201C33.345 16.4433 32.2617 16.9369 30.4736 16.9369C26.6438 16.9369 23.8047 13.5415 23.8047 8.94603C23.8047 3.88903 27.5258 0 32.3865 0C37.4244 0 40.477 3.85693 40.477 10.2544C40.477 18.6827 34.4081 24.8917 26.2532 24.8917H26.2331ZM34.4081 2.90179C34.0741 2.41784 33.6309 2.01865 33.114 1.73635C32.5972 1.45406 32.0211 1.29651 31.4321 1.27631C29.052 1.27631 27.4936 3.572 27.4936 7.07176C27.4936 11.5628 29.4789 14.5329 32.4952 14.5329C33.7356 14.5329 34.7988 14.0713 36.3975 12.9275C36.4338 12.1248 36.47 11.5107 36.47 11.0893C36.47 7.90657 35.6163 4.5473 34.4081 2.88572" fill="white"/>
<path d="M21.9841 14.9422C21.1787 14.9422 21.0176 14.9743 21.0176 15.3154V17.6232L21.0539 18.9958V20.5089C21.0539 21.3677 21.0861 21.7451 21.2592 21.8815L21.3961 22.0179C21.4501 22.0702 21.4931 22.1326 21.5229 22.2015C21.5526 22.2703 21.5684 22.3443 21.5693 22.4193C21.5693 22.6922 21.3962 22.9009 20.9491 23.1056C19.1015 23.7818 17.1991 24.2988 15.2628 24.6508C14.0959 24.8917 12.9065 25.0074 11.7149 24.996C4.58289 24.996 0 20.5289 0 13.4893C0 6.00413 6.0407 0.714425 14.5742 0.714425C16.8845 0.682821 19.1753 1.13964 21.2955 2.05487L20.8928 4.42288C20.7558 5.22558 20.6511 5.34992 20.3088 5.34992C19.9665 5.34992 19.7893 5.14522 19.7893 4.73183C19.7571 3.42745 17.0348 2.19136 14.2077 2.19136C8.28382 2.19136 4.28487 6.38138 4.28487 12.6665C4.28487 19.1563 7.86902 23.5029 13.1446 23.5029C14.496 23.5188 15.835 23.2451 17.071 22.7002V22.1504C17.071 15.6967 16.9341 14.9261 15.73 14.9261H13.6963V13.7221H23.2043V14.9261L21.9841 14.9422Z" fill="white"/>
<path d="M44.0285 12.0645H44.6245V13.7782C44.6192 13.9153 44.6425 14.0519 44.693 14.1796C44.7361 14.2619 44.8038 14.3289 44.8868 14.3713C44.9697 14.4137 45.0638 14.4295 45.1561 14.4164C45.2478 14.4292 45.3412 14.4133 45.4234 14.3708C45.5057 14.3284 45.5727 14.2616 45.6152 14.1796C45.6656 14.0519 45.6889 13.9153 45.6836 13.7782V12.0645H46.2796V13.7822C46.2906 14.0213 46.2437 14.2594 46.1427 14.4766C46.0206 14.6189 45.869 14.7332 45.6983 14.8116C45.5276 14.8899 45.342 14.9305 45.1541 14.9305C44.9661 14.9305 44.7805 14.8899 44.6098 14.8116C44.4391 14.7332 44.2875 14.6189 44.1654 14.4766C44.0625 14.2601 44.0155 14.0214 44.0285 13.7822V12.0645Z" fill="white"/>
<path d="M46.876 12.0605H47.4881L48.6036 14.0111V12.0605H49.1473V14.8579H48.5633L47.4196 12.8753V14.8579H46.876V12.0605Z" fill="white"/>
<path d="M50.3115 12.0605H49.7275V14.8579H50.3115V12.0605Z" fill="white"/>
<path d="M52.5341 12.0605H53.1422L52.1838 14.8579H51.632L50.6816 12.0605H51.3099L51.918 14.1837L52.5341 12.0605Z" fill="white"/>
<path d="M55.5862 12.5582H54.1042V13.1482H55.4654V13.6338H54.1042V14.3522H55.6546V14.8579H53.5283V12.0605H55.5862V12.5582Z" fill="white"/>
<path d="M57.9346 12.1367C58.036 12.1793 58.1257 12.2453 58.1964 12.3293C58.2556 12.4004 58.3031 12.4802 58.3374 12.5661C58.3744 12.6592 58.3922 12.7589 58.3897 12.859C58.3906 12.9991 58.356 13.1372 58.289 13.2604C58.2172 13.3902 58.0972 13.4868 57.9548 13.5294C58.069 13.5709 58.1666 13.6484 58.2327 13.7501C58.2941 13.8875 58.3217 14.0374 58.3132 14.1875V14.3762C58.3069 14.463 58.3069 14.5502 58.3132 14.6371C58.3194 14.6698 58.3323 14.7009 58.351 14.7285C58.3697 14.7561 58.3938 14.7796 58.4219 14.7976V14.8658H57.7776C57.7616 14.817 57.7481 14.7675 57.7373 14.7173C57.7213 14.6381 57.7132 14.5574 57.7132 14.4765V14.2157C57.7262 14.0894 57.6934 13.9627 57.6205 13.8585C57.5242 13.7883 57.4049 13.7567 57.2863 13.7701H56.7144V14.8658H56.1426V12.0563H57.4836C57.6346 12.0511 57.7851 12.0758 57.9266 12.1287L57.9346 12.1367ZM56.7185 12.53V13.2805H57.3467C57.444 13.285 57.5412 13.27 57.6326 13.2364C57.6882 13.2054 57.7334 13.1588 57.7628 13.1024C57.7921 13.0461 57.8043 12.9824 57.7977 12.9193C57.8065 12.853 57.7959 12.7857 57.7673 12.7252C57.7388 12.6647 57.6934 12.6137 57.6366 12.5781C57.5518 12.5411 57.4593 12.5247 57.3668 12.53H56.7185Z" fill="white"/>
<path d="M59.3802 14.0113C59.3877 14.1154 59.4239 14.2154 59.4849 14.3002C59.5507 14.3632 59.6294 14.4113 59.7156 14.4411C59.8018 14.4708 59.8935 14.4816 59.9843 14.4728C60.1016 14.4764 60.2187 14.4601 60.3306 14.4247C60.403 14.4081 60.4674 14.367 60.5129 14.3085C60.5584 14.25 60.5822 14.1776 60.5803 14.1036C60.5818 14.0595 60.5709 14.0158 60.5489 13.9775C60.5268 13.9392 60.4945 13.9078 60.4554 13.8868C60.3287 13.8225 60.1929 13.7779 60.0527 13.7545L59.7467 13.6902C59.5307 13.657 59.3231 13.5834 59.1345 13.4734C59.039 13.4061 58.9624 13.3153 58.9123 13.2099C58.8622 13.1044 58.8403 12.9878 58.8486 12.8714C58.8457 12.7531 58.8692 12.6356 58.9172 12.5274C58.9653 12.4192 59.0367 12.3229 59.1265 12.2454C59.3563 12.0687 59.6422 11.9804 59.9319 11.9965C60.2056 11.9892 60.4742 12.071 60.6971 12.2293C60.8029 12.3086 60.8884 12.4117 60.9465 12.5303C61.0046 12.6489 61.0337 12.7796 61.0313 12.9116H60.4675C60.4669 12.8371 60.4455 12.7641 60.4057 12.701C60.3659 12.6379 60.3092 12.5872 60.242 12.5544C60.1327 12.5027 60.0126 12.4778 59.8917 12.4821C59.7618 12.4766 59.6331 12.5086 59.5211 12.5744C59.4779 12.6007 59.4424 12.638 59.4184 12.6824C59.3943 12.7268 59.3825 12.7769 59.3842 12.8273C59.3822 12.8741 59.3941 12.9204 59.4185 12.9604C59.4429 13.0004 59.4786 13.0323 59.5211 13.0521C59.6396 13.1052 59.764 13.1442 59.8917 13.1684L60.387 13.2848C60.5606 13.3166 60.7254 13.385 60.8702 13.4855C60.9544 13.554 61.0213 13.6413 61.0653 13.7403C61.1094 13.8393 61.1295 13.9473 61.124 14.0555C61.1262 14.1774 61.1005 14.2982 61.0489 14.4088C60.9972 14.5194 60.921 14.6167 60.826 14.6936C60.5848 14.8754 60.2861 14.9652 59.9843 14.9465C59.6742 14.9658 59.367 14.8779 59.1144 14.6976C59.0089 14.618 58.9247 14.5138 58.8692 14.3941C58.8137 14.2744 58.7886 14.1429 58.7963 14.0113H59.3802Z" fill="white"/>
<path d="M62.1709 12.0605H61.5869V14.8579H62.1709V12.0605Z" fill="white"/>
<path d="M64.4096 12.1246C64.6044 12.1857 64.7731 12.31 64.8888 12.4777C64.9842 12.6133 65.0525 12.766 65.0901 12.9273C65.1246 13.0801 65.1421 13.2362 65.1425 13.3928C65.1522 13.7216 65.0744 14.047 64.917 14.336C64.826 14.5024 64.6896 14.6398 64.5235 14.7321C64.3575 14.8244 64.1685 14.868 63.9787 14.8578H62.7705V12.0484H63.9787C64.1247 12.0443 64.2703 12.0646 64.4096 12.1085V12.1246ZM63.3383 12.534V14.3561H63.878C64.0053 14.3615 64.131 14.3251 64.2357 14.2527C64.3404 14.1802 64.4184 14.0756 64.4579 13.9548C64.5212 13.7855 64.5513 13.6056 64.5465 13.425C64.5593 13.1979 64.5135 12.9712 64.4136 12.7667C64.3526 12.685 64.2708 12.621 64.1766 12.5815C64.0824 12.542 63.9793 12.5284 63.878 12.542L63.3383 12.534Z" fill="white"/>
<path d="M66.2986 12.0645H66.9591L67.9538 14.8739H67.3175L67.1323 14.3H66.0973L65.908 14.8739H65.2959L66.2986 12.0645ZM66.2584 13.8023H66.9792L66.6248 12.7026L66.2584 13.8023Z" fill="white"/>
<path d="M69.979 12.125C70.1733 12.1872 70.3417 12.3112 70.4582 12.4781C70.5543 12.6129 70.6215 12.766 70.6556 12.9277C70.6912 13.0804 70.7101 13.2365 70.712 13.3932C70.7217 13.722 70.6439 14.0474 70.4864 14.3364C70.3944 14.5028 70.2572 14.64 70.0905 14.7323C69.9238 14.8246 69.7345 14.8682 69.5441 14.8582H68.3359V12.0488H69.5441C69.6914 12.045 69.8383 12.0653 69.979 12.1089V12.125ZM68.9038 12.5344V14.3565H69.4434C69.5712 14.3615 69.6971 14.325 69.8024 14.2527C69.9076 14.1803 69.9866 14.076 70.0273 13.9552C70.0888 13.7854 70.1188 13.6059 70.1159 13.4254C70.1295 13.1978 70.0823 12.9706 69.979 12.7671C69.9186 12.6847 69.8369 12.6203 69.7425 12.5807C69.6482 12.5411 69.5447 12.5279 69.4434 12.5424L68.9038 12.5344Z" fill="white"/>
<path d="M73.2659 12.5582H71.7839V13.1482H73.1451V13.6338H71.7839V14.3522H73.3344V14.8579H71.208V12.0605H73.2659V12.5582Z" fill="white"/>
<path d="M74.2317 14.0113C74.2404 14.1158 74.2781 14.2158 74.3405 14.3002C74.4061 14.3634 74.4848 14.4116 74.571 14.4414C74.6573 14.4712 74.749 14.4819 74.8398 14.4728C74.9559 14.4765 75.0716 14.4602 75.1821 14.4247C75.2549 14.4082 75.3198 14.3673 75.3659 14.3089C75.4121 14.2504 75.4368 14.178 75.4358 14.1036C75.4365 14.0596 75.4252 14.0163 75.4032 13.9782C75.3813 13.94 75.3494 13.9085 75.311 13.8868C75.1841 13.823 75.0484 13.7785 74.9083 13.7545L74.6063 13.6902C74.3893 13.6561 74.1805 13.5826 73.9901 13.4734C73.8945 13.4061 73.818 13.3153 73.7679 13.2099C73.7178 13.1044 73.6958 12.9878 73.7042 12.8714C73.7013 12.7531 73.7247 12.6356 73.7728 12.5274C73.8208 12.4192 73.8923 12.3229 73.9821 12.2454C74.2118 12.0687 74.4977 11.9804 74.7875 11.9965C75.061 11.9904 75.3292 12.072 75.5526 12.2293C75.658 12.3088 75.7429 12.4121 75.8003 12.5307C75.8577 12.6494 75.886 12.7799 75.8828 12.9116H75.3231C75.3221 12.8366 75.3001 12.7635 75.2595 12.7003C75.2189 12.6372 75.1615 12.5867 75.0935 12.5544C74.9855 12.5031 74.8668 12.4783 74.7472 12.4821C74.6173 12.4761 74.4885 12.5082 74.3767 12.5744C74.333 12.6005 74.2969 12.6376 74.2722 12.682C74.2474 12.7264 74.2349 12.7766 74.2358 12.8273C74.2348 12.8739 74.2471 12.9198 74.2714 12.9596C74.2956 12.9994 74.3308 13.0315 74.3727 13.0521C74.4929 13.1044 74.6185 13.1433 74.7472 13.1684L75.2385 13.2848C75.4134 13.3166 75.5794 13.385 75.7258 13.4855C75.8092 13.5544 75.8753 13.6419 75.9187 13.7408C75.962 13.8398 75.9815 13.9476 75.9755 14.0555C75.9777 14.1774 75.952 14.2982 75.9004 14.4088C75.8488 14.5194 75.7725 14.6167 75.6775 14.6936C75.4366 14.8761 75.1378 14.9659 74.8358 14.9465C74.5259 14.9648 74.2189 14.877 73.9659 14.6976C73.8604 14.618 73.7762 14.5138 73.7207 14.3941C73.6652 14.2744 73.6402 14.1429 73.6478 14.0113H74.2317Z" fill="white"/>
<path d="M45.9096 18.3096C45.7074 18.4578 45.4593 18.5303 45.2089 18.5143H44.6249V19.5217H44.041V16.7123H45.2491C45.49 16.6997 45.7268 16.777 45.9136 16.929C46.002 17.0157 46.0702 17.1206 46.1133 17.2364C46.1565 17.3522 46.1735 17.4761 46.1633 17.5992C46.1764 17.7268 46.1608 17.8557 46.1176 17.9765C46.0744 18.0973 46.0047 18.207 45.9136 18.2976L45.9096 18.3096ZM45.4666 17.2902C45.3773 17.2242 45.2675 17.1915 45.1565 17.1979H44.629V18.0247H45.1565C45.269 18.0326 45.3802 17.9966 45.4666 17.9243C45.5073 17.8828 45.5385 17.8329 45.5579 17.7781C45.5774 17.7234 45.5847 17.6651 45.5794 17.6073C45.5841 17.5501 45.5765 17.4925 45.5571 17.4385C45.5376 17.3845 45.5068 17.3353 45.4666 17.2942" fill="white"/>
<path d="M46.5936 16.7241H47.1896V18.4258C47.1814 18.5696 47.2048 18.7134 47.258 18.8472C47.3023 18.9284 47.3703 18.9942 47.4531 19.0358C47.5358 19.0774 47.6294 19.0928 47.7212 19.0799C47.8125 19.0937 47.9058 19.0787 47.9881 19.0369C48.0705 18.9952 48.1376 18.9289 48.1803 18.8472C48.2355 18.7139 48.2589 18.5697 48.2487 18.4258V16.708H48.8447V18.4258C48.8557 18.6648 48.8088 18.903 48.7078 19.1201C48.5868 19.2636 48.4358 19.3789 48.2654 19.4581C48.095 19.5372 47.9092 19.5783 47.7212 19.5783C47.5331 19.5783 47.3474 19.5372 47.1769 19.4581C47.0065 19.3789 46.8555 19.2636 46.7345 19.1201C46.6301 18.904 46.5817 18.6653 46.5936 18.4258V16.7241ZM48.3736 15.9214L47.7936 16.4913H47.3909L47.7574 15.9214H48.3736Z" fill="white"/>
<path d="M51.5393 17.0212C51.6266 17.1472 51.6717 17.2976 51.6681 17.4507C51.6723 17.5952 51.6269 17.7368 51.5393 17.852C51.4791 17.9186 51.4066 17.9731 51.3258 18.0125C51.4574 18.0564 51.5707 18.1426 51.648 18.2574C51.7219 18.3781 51.7596 18.5174 51.7568 18.6587C51.7599 18.8162 51.7165 18.9711 51.6319 19.1042C51.5816 19.1901 51.5145 19.2652 51.4346 19.3249C51.3401 19.3943 51.2315 19.4423 51.1164 19.4654C50.9839 19.4923 50.849 19.5057 50.7137 19.5055H49.4492V16.6961H50.8023C50.9388 16.6843 51.076 16.7051 51.2028 16.7567C51.3296 16.8084 51.4422 16.8894 51.5312 16.9931L51.5393 17.0212ZM50.009 17.1817V17.7998H50.6896C50.7925 17.8046 50.8947 17.7795 50.9836 17.7276C51.0233 17.6972 51.0548 17.6575 51.0753 17.612C51.0959 17.5666 51.1047 17.5168 51.1011 17.467C51.0975 17.4173 51.0816 17.3692 51.0548 17.3271C51.0279 17.285 50.991 17.2502 50.9473 17.2259C50.8402 17.1941 50.7288 17.1792 50.6171 17.1817H50.009ZM50.009 18.2614V19.0078H50.6896C50.7864 19.0131 50.883 18.9953 50.9715 18.9557C51.0345 18.9234 51.086 18.8726 51.1192 18.8101C51.1523 18.7477 51.1654 18.6766 51.1567 18.6065C51.1614 18.5449 51.1468 18.4833 51.1151 18.4301C51.0834 18.377 51.0361 18.3349 50.9795 18.3095C50.8901 18.2734 50.794 18.257 50.6976 18.2614H50.009Z" fill="white"/>
<path d="M52.2764 16.7241H52.8643V19.0158H54.2658V19.5175H52.2764V16.7241Z" fill="white"/>
<path d="M55.2244 16.7241H54.6445V19.5215H55.2244V16.7241Z" fill="white"/>
<path d="M56.0984 17.0174C56.2282 16.8984 56.3808 16.8067 56.547 16.748C56.7132 16.6892 56.8896 16.6645 57.0656 16.6753C57.2417 16.6862 57.4137 16.7325 57.5713 16.8113C57.729 16.89 57.8691 16.9997 57.9831 17.1338C58.096 17.2859 58.163 17.4669 58.1764 17.6556H57.5884C57.5637 17.5463 57.5157 17.4436 57.4475 17.3546C57.3887 17.2906 57.3161 17.2408 57.2352 17.2088C57.1543 17.1768 57.0671 17.1636 56.9803 17.17C56.8832 17.1673 56.7871 17.1895 56.7011 17.2345C56.615 17.2794 56.542 17.3457 56.489 17.4268C56.3554 17.6462 56.2922 17.9011 56.3078 18.1573C56.2901 18.4059 56.3568 18.6533 56.4971 18.8596C56.5544 18.9337 56.6283 18.9933 56.713 19.0338C56.7976 19.0742 56.8905 19.0942 56.9844 19.0924C57.0715 19.0984 57.1587 19.0833 57.2387 19.0484C57.3187 19.0134 57.3889 18.9597 57.4435 18.8917C57.5127 18.7953 57.562 18.6863 57.5884 18.5707H58.1683C58.1234 18.8568 57.9812 19.1189 57.7656 19.3131C57.5451 19.5098 57.2558 19.6121 56.9602 19.5981C56.7832 19.6041 56.6071 19.5713 56.4442 19.5019C56.2814 19.4326 56.1358 19.3284 56.0179 19.1967C55.7765 18.8946 55.6547 18.5148 55.6755 18.1292C55.6633 17.9239 55.6927 17.7182 55.7619 17.5245C55.8311 17.3307 55.9387 17.1528 56.0783 17.0013" fill="white"/>
<path d="M59.3719 16.7241H60.0364L61.0271 19.5336H60.3948L60.2095 18.9597H59.1746L58.9853 19.5336H58.3691L59.3719 16.7241ZM59.3357 18.466H60.0565L59.6981 17.3623L59.3357 18.466Z" fill="white"/>
<path d="M61.7965 18.6585C61.8059 18.7617 61.8435 18.8602 61.9052 18.9435C61.9704 19.0074 62.049 19.056 62.1354 19.0859C62.2217 19.1157 62.3137 19.126 62.4046 19.116C62.5203 19.1187 62.6357 19.1039 62.7469 19.0719C62.8192 19.0538 62.8833 19.0118 62.9286 18.9528C62.9739 18.8938 62.9979 18.8212 62.9965 18.7468C62.9982 18.7037 62.9877 18.6609 62.9664 18.6234C62.9451 18.5858 62.9137 18.5549 62.8757 18.5341C62.7501 18.4672 62.6139 18.4224 62.473 18.4016L62.167 18.3334C61.9519 18.2993 61.7446 18.2272 61.5548 18.1207C61.4592 18.0524 61.3827 17.9609 61.3327 17.8548C61.2826 17.7487 61.2607 17.6316 61.2689 17.5147C61.2666 17.397 61.2904 17.2803 61.3384 17.1728C61.3864 17.0653 61.4575 16.9696 61.5468 16.8926C61.775 16.7129 62.0621 16.6242 62.3522 16.6438C62.6273 16.6353 62.8975 16.717 63.1214 16.8765C63.2265 16.9562 63.3112 17.0596 63.3686 17.1782C63.426 17.2968 63.4544 17.4272 63.4516 17.5589H62.8918C62.8916 17.4832 62.87 17.4092 62.8294 17.3452C62.7887 17.2813 62.7308 17.2301 62.6623 17.1976C62.5533 17.1496 62.435 17.1263 62.316 17.1294C62.1846 17.1213 62.0539 17.1535 61.9414 17.2217C61.8982 17.248 61.8627 17.2852 61.8387 17.3297C61.8146 17.3741 61.8028 17.424 61.8045 17.4745C61.8028 17.5207 61.8149 17.5664 61.8393 17.6057C61.8636 17.645 61.8992 17.6762 61.9414 17.6953C62.0597 17.7526 62.186 17.7918 62.316 17.8117L62.8073 17.9281C62.9809 17.962 63.1455 18.0317 63.2905 18.1328C63.3752 18.2008 63.4424 18.288 63.4865 18.3871C63.5307 18.4862 63.5504 18.5944 63.5443 18.7026C63.5459 18.8239 63.5199 18.944 63.4683 19.0538C63.4167 19.1637 63.3407 19.2604 63.2462 19.3368C63.0064 19.5218 62.7072 19.6131 62.4046 19.5936C62.0947 19.611 61.7881 19.5234 61.5347 19.3448C61.4307 19.2639 61.3476 19.1594 61.2923 19.04C61.237 18.9206 61.211 18.7899 61.2166 18.6585H61.7965Z" fill="white"/>
<path d="M44.0166 21.3838H44.6328L45.7442 23.3343V21.3838H46.2919V24.1812H45.708L44.5643 22.1985V24.1812H44.0166V21.3838Z" fill="white"/>
<path d="M49.0506 23.9326C48.7916 24.1456 48.4662 24.2621 48.1304 24.2621C47.7946 24.2621 47.4692 24.1456 47.2102 23.9326C47.0622 23.781 46.9478 23.6002 46.8743 23.4018C46.8007 23.2034 46.7697 22.9918 46.7833 22.7808C46.7677 22.5695 46.7977 22.3574 46.8713 22.1586C46.945 21.9599 47.0606 21.7792 47.2102 21.6288C47.4692 21.4158 47.7946 21.2993 48.1304 21.2993C48.4662 21.2993 48.7916 21.4158 49.0506 21.6288C49.1959 21.7813 49.307 21.963 49.3765 22.1616C49.4459 22.3602 49.4721 22.5713 49.4533 22.7808C49.4703 22.9901 49.4433 23.2007 49.3739 23.399C49.3046 23.5974 49.1945 23.7791 49.0506 23.9326ZM48.6841 23.5312C48.8331 23.3177 48.9055 23.0603 48.8895 22.8007C48.9062 22.5423 48.8337 22.2861 48.6841 22.0744C48.6192 21.9911 48.5352 21.9243 48.4393 21.8797C48.3434 21.835 48.2382 21.8137 48.1324 21.8175C48.0258 21.8135 47.9198 21.8343 47.8227 21.8782C47.7255 21.9221 47.6399 21.9879 47.5727 22.0704C47.4382 22.2905 47.3671 22.5431 47.3671 22.8007C47.3671 23.0584 47.4382 23.3111 47.5727 23.5312C47.6399 23.6137 47.7255 23.6795 47.8227 23.7234C47.9198 23.7673 48.0258 23.7881 48.1324 23.7841C48.2378 23.7877 48.3426 23.7667 48.4383 23.7228C48.5341 23.6789 48.6183 23.6133 48.6841 23.5312Z" fill="white"/>
<path d="M53.0774 21.8815H51.5954V22.4714H52.9566V22.9571H51.5954V23.6795H53.1459V24.1812H51.0195V21.3838H53.0774V21.8815Z" fill="white"/>
<path d="M54.0445 23.3184C54.0551 23.4225 54.0926 23.522 54.1533 23.6074C54.2189 23.6706 54.2976 23.7188 54.3838 23.7486C54.4701 23.7784 54.5618 23.7892 54.6526 23.78C54.7686 23.7837 54.8844 23.7674 54.9949 23.7318C55.0684 23.7152 55.1338 23.6737 55.18 23.6144C55.2263 23.5552 55.2505 23.4818 55.2486 23.4067C55.2481 23.3635 55.2364 23.3212 55.2145 23.2839C55.1926 23.2466 55.1613 23.2156 55.1238 23.194C54.9973 23.13 54.8613 23.0867 54.7211 23.0656L54.419 22.9973C54.2021 22.9632 53.9933 22.8899 53.8029 22.7807C53.7078 22.7131 53.6318 22.6221 53.5824 22.5166C53.533 22.4111 53.5118 22.2947 53.521 22.1787C53.5181 22.0603 53.5415 21.9428 53.5896 21.8345C53.6376 21.7263 53.7091 21.63 53.7989 21.5525C54.0276 21.3739 54.3143 21.2853 54.6043 21.3036C54.8786 21.2964 55.1475 21.3796 55.3694 21.5405C55.475 21.6192 55.5603 21.7216 55.6184 21.8395C55.6765 21.9574 55.7057 22.0874 55.7037 22.2187H55.1399C55.1393 22.1442 55.1179 22.0714 55.078 22.0083C55.0382 21.9452 54.9815 21.8944 54.9144 21.8616C54.8048 21.8107 54.6848 21.7859 54.564 21.7893C54.4341 21.7832 54.3053 21.8154 54.1935 21.8817C54.1498 21.9078 54.1137 21.9449 54.089 21.9893C54.0643 22.0336 54.0517 22.0837 54.0526 22.1345C54.0516 22.181 54.0639 22.2269 54.0882 22.2667C54.1124 22.3066 54.1476 22.3386 54.1895 22.3592C54.309 22.4134 54.4348 22.4525 54.564 22.4757L55.0553 22.592C55.2304 22.623 55.3966 22.6915 55.5426 22.7926C55.626 22.8615 55.6921 22.949 55.7355 23.048C55.7789 23.147 55.7983 23.2548 55.7923 23.3626C55.7945 23.4846 55.7688 23.6054 55.7172 23.716C55.6656 23.8265 55.5893 23.9239 55.4943 24.0007C55.2547 24.1826 54.9573 24.2725 54.6566 24.2536C54.3454 24.2722 54.0371 24.1844 53.7827 24.0047C53.6788 23.9238 53.5957 23.8193 53.5404 23.7C53.485 23.5806 53.4591 23.4498 53.4646 23.3184H54.0445Z" fill="white"/>
<path d="M58.3045 21.3838V21.8815H57.4669V24.1812H56.8789V21.8815H56.0332V21.3838H58.3045Z" fill="white"/>
<path d="M59.1913 21.3877H59.8557L60.8464 24.1971H60.2141L60.0248 23.6232H58.9939L58.8046 24.1971H58.1885L59.1913 21.3877ZM59.155 23.1256H59.8839L59.5295 22.0259L59.155 23.1256Z" fill="white"/>
<path d="M62.992 21.3838V21.8815H62.1544V24.1812H61.5664V21.8815H60.7207V21.3838H62.992Z" fill="white"/>
<path d="M63.8787 21.3877H64.5432L65.5339 24.1971H64.8976L64.7123 23.6232H63.6814L63.4921 24.1971H62.876L63.8787 21.3877ZM63.8385 23.1256H64.5593L64.2049 22.0259L63.8385 23.1256Z" fill="white"/>
<path d="M65.916 21.3838H66.5V23.6795H67.9014V24.1812H65.916V21.3838Z" fill="white"/>
<path d="M70.3704 21.8815H68.8884V22.4714H70.2495V22.9571H68.8884V23.6795H70.4428V24.1812H68.3125V21.3838H70.3704V21.8815Z" fill="white"/>
<path d="M71.3365 23.3184C71.3471 23.4225 71.3846 23.522 71.4452 23.6074C71.5109 23.6706 71.5896 23.7188 71.6758 23.7486C71.7621 23.7784 71.8538 23.7892 71.9446 23.78C72.0606 23.784 72.1765 23.7677 72.2869 23.7318C72.3603 23.7152 72.4258 23.6737 72.472 23.6144C72.5183 23.5552 72.5425 23.4818 72.5406 23.4067C72.541 23.3633 72.5295 23.3207 72.5075 23.2832C72.4856 23.2458 72.4539 23.2149 72.4158 23.194C72.2896 23.1293 72.1535 23.086 72.0131 23.0656L71.711 22.9973C71.4951 22.9641 71.2874 22.8907 71.0989 22.7807C71.0027 22.7139 70.9257 22.6231 70.8756 22.5175C70.8254 22.4119 70.8039 22.2951 70.813 22.1787C70.8101 22.0603 70.8335 21.9428 70.8816 21.8345C70.9296 21.7263 71.0011 21.63 71.0909 21.5525C71.3196 21.3739 71.6063 21.2853 71.8963 21.3036C72.1705 21.2964 72.4395 21.3796 72.6614 21.5405C72.767 21.6192 72.8523 21.7216 72.9104 21.8395C72.9685 21.9574 72.9978 22.0874 72.9957 22.2187H72.4319C72.4309 22.1438 72.4089 22.0706 72.3683 22.0075C72.3278 21.9443 72.2703 21.8938 72.2023 21.8616C72.0945 21.8098 71.9756 21.785 71.856 21.7893C71.7261 21.7832 71.5973 21.8154 71.4855 21.8817C71.4418 21.9078 71.4057 21.9449 71.381 21.9893C71.3562 22.0336 71.3437 22.0837 71.3446 22.1345C71.3434 22.1816 71.3562 22.228 71.3812 22.2679C71.4063 22.3079 71.4425 22.3396 71.4855 22.3592C71.6033 22.4142 71.7279 22.4534 71.856 22.4757L72.3473 22.592C72.5224 22.623 72.6886 22.6915 72.8346 22.7926C72.9181 22.8615 72.9841 22.949 73.0275 23.048C73.0708 23.147 73.0903 23.2548 73.0843 23.3626C73.0865 23.4846 73.0609 23.6054 73.0092 23.716C72.9576 23.8265 72.8813 23.9239 72.7863 24.0007C72.5467 24.1826 72.2493 24.2725 71.9486 24.2536C71.6374 24.2722 71.3291 24.1844 71.0747 24.0047C70.9708 23.9238 70.8877 23.8193 70.8323 23.7C70.777 23.5806 70.751 23.4498 70.7566 23.3184H71.3365Z" fill="white"/>
</g>
<defs>
<clipPath id="clip0">
<rect width="76" height="25" fill="white"/>
</clipPath>
</defs>
</svg>
