<svg width="160" height="32" viewBox="0 0 160 32" fill="none" xmlns="http://www.w3.org/2000/svg">
<g clip-path="url(#clip0)">
<path fill-rule="evenodd" clip-rule="evenodd" d="M156.756 9.8362L157.747 12.1912H155.748L156.756 9.8362ZM157.068 8.59893H156.914L155.157 12.7232C154.803 13.548 154.578 14.179 154.041 14.2244V14.3852H155.752V14.2244C155.461 14.2244 155.165 14.146 155.165 13.8656C155.271 13.4074 155.427 12.9621 155.631 12.5376H157.901L158.209 13.2634C158.538 14.0264 158.546 14.1914 157.793 14.2244V14.3852H159.995V14.2244C159.512 14.2491 159.329 13.7336 159.163 13.3996L157.068 8.59893ZM152.97 8.59893H152.791C152.504 9.2918 152.075 8.59893 150.888 8.59893C150.494 8.58724 150.101 8.65624 149.734 8.80162C149.368 8.94699 149.035 9.16562 148.758 9.44386C148.48 9.72211 148.264 10.054 148.122 10.4188C147.979 10.7836 147.915 11.1736 147.932 11.5643C147.932 13.4408 149.218 14.509 150.905 14.509C151.335 14.4991 151.758 14.3987 152.145 14.2145C152.533 14.0303 152.877 13.7666 153.154 13.4408L153.008 13.2676C152.752 13.5455 152.439 13.7659 152.09 13.9139C151.741 14.0618 151.364 14.134 150.984 14.1254C149.564 14.1254 148.931 12.8304 148.931 11.6509C148.931 10.1084 149.547 8.97012 150.976 8.97012C151.958 8.97012 152.591 9.6135 152.841 10.5538H153.049L152.97 8.59893ZM146.174 9.39492C146.174 9.14746 146.303 8.87526 147.007 8.87526V8.71029H144.429V8.87526C145.15 8.87526 145.262 9.14746 145.262 9.39492V13.6965C145.262 13.944 145.133 14.2203 144.429 14.2203V14.3811H147.007V14.2203C146.291 14.2203 146.174 13.944 146.174 13.6965V9.39492ZM142.843 9.39492C142.843 9.14746 142.968 8.87526 143.676 8.87526V8.71029H141.619V8.87526C142.326 8.87526 142.451 9.14746 142.451 9.39492V12.8304L139.12 8.70616H137.637V8.87113C137.789 8.85647 137.942 8.88472 138.079 8.9526C138.215 9.02048 138.329 9.12521 138.408 9.25468L138.479 9.3413V13.6924C138.479 13.9398 138.35 14.2161 137.646 14.2161V14.377H139.703V14.2161C138.995 14.2161 138.87 13.9398 138.87 13.6924V9.77847L142.71 14.4966H142.843V9.39492ZM136.626 8.59893H136.446C136.159 9.2918 135.726 8.59893 134.539 8.59893C134.145 8.58724 133.752 8.65624 133.385 8.80162C133.019 8.94699 132.686 9.16562 132.409 9.44386C132.131 9.72211 131.915 10.054 131.773 10.4188C131.631 10.7836 131.566 11.1736 131.583 11.5643C131.583 13.4408 132.869 14.509 134.56 14.509C134.99 14.498 135.412 14.3972 135.8 14.2131C136.187 14.029 136.531 13.7658 136.809 13.4408L136.659 13.2676C136.404 13.5461 136.091 13.767 135.741 13.915C135.392 14.063 135.015 14.1348 134.635 14.1254C133.219 14.1254 132.586 12.8304 132.586 11.6509C132.586 10.1084 133.202 8.97012 134.627 8.97012C135.614 8.97012 136.247 9.6135 136.496 10.5538H136.705L136.626 8.59893ZM130.308 14.3729L130.7 12.9253H130.458C129.996 14.0141 129.338 14.0223 128.647 14.0223H127.506C127.335 14.0223 127.281 13.8408 127.281 13.6882V11.5808H128.501C129.08 11.5808 129.575 11.7457 129.575 12.4056H129.754V10.4012H129.575C129.575 11.0652 129.08 11.2261 128.501 11.2261H127.281V9.38254C127.28 9.33458 127.29 9.28708 127.31 9.24328C127.33 9.19948 127.359 9.1604 127.395 9.12871C127.432 9.09701 127.474 9.07344 127.521 9.05959C127.567 9.04575 127.616 9.04195 127.664 9.04847H129.055C129.3 9.04524 129.538 9.1333 129.72 9.29522C129.903 9.45714 130.018 9.68112 130.042 9.92282H130.263V8.68555H125.682V8.85051C126.311 8.85051 126.44 9.1227 126.44 9.37016V13.6718C126.44 13.9192 126.311 14.1955 125.682 14.1955V14.3564L130.308 14.3729ZM123.612 14.212C122.979 14.212 122.85 13.9357 122.85 13.6882V9.08147H123.471C124.112 9.08147 124.512 9.08147 124.699 10.1785H124.907L124.857 8.72266H119.977L119.927 10.1785H120.131C120.322 9.08147 120.722 9.08147 121.38 9.08147H122.001V13.7089C122.001 13.9563 121.871 14.2326 121.239 14.2326V14.3935H123.645L123.612 14.212ZM111.523 9.47739C111.523 9.06497 111.602 9.04022 112.015 9.04022C113.618 9.04022 114.721 9.90632 114.721 11.5849C114.721 13.1768 113.701 14.1213 111.94 14.0594C111.829 14.0594 111.723 14.016 111.645 13.9386C111.567 13.8613 111.523 13.7564 111.523 13.647V9.47739ZM112.181 14.3935C114.501 14.3935 115.667 13.3171 115.667 11.5766C115.667 9.65061 114.326 8.72266 112.11 8.72266H109.858V8.88763C110.49 8.88763 110.62 9.15983 110.62 9.40729V13.7089C110.62 13.9563 110.49 14.2326 109.858 14.2326V14.3935H112.181ZM105.847 9.8362L106.851 12.1912H104.86L105.847 9.8362ZM106.155 8.59893H105.985L104.227 12.7232C103.873 13.548 103.649 14.179 103.111 14.2244V14.3852H104.823V14.2244C104.531 14.2244 104.236 14.146 104.236 13.8656C104.342 13.4074 104.498 12.9621 104.702 12.5376H106.972L107.28 13.2634C107.609 14.0264 107.617 14.1914 106.884 14.2244V14.3852H109.091V14.2244C108.604 14.2491 108.425 13.7336 108.258 13.3996L106.155 8.59893ZM98.4224 9.47326C98.4224 9.06084 98.4974 9.0361 98.9138 9.0361C100.513 9.0361 101.621 9.90219 101.621 11.5808C101.621 13.1727 100.6 14.1172 98.8347 14.0553C98.7242 14.0553 98.6183 14.0118 98.5402 13.9345C98.4621 13.8572 98.4183 13.7523 98.4183 13.6429L98.4224 9.47326ZM99.0762 14.3894C101.396 14.3894 102.566 13.3129 102.566 11.5725C102.566 9.64649 101.225 8.71853 99.0096 8.71853H96.7775V8.8835C97.4105 8.8835 97.5396 9.15571 97.5396 9.40316V13.7047C97.5396 13.9522 97.4105 14.2285 96.7775 14.2285V14.3894H99.0762ZM95.1326 9.40316C95.1326 9.15571 95.2617 8.8835 95.9655 8.8835V8.71853H93.3878V8.8835C94.1041 8.8835 94.2207 9.15571 94.2207 9.40316V13.7047C94.2207 13.9522 94.0916 14.2285 93.3878 14.2285V14.3894H95.9655V14.2285C95.2451 14.2285 95.1326 13.9522 95.1326 13.7047V9.40316ZM88.5781 14.5131H88.7696C88.857 13.8903 89.4775 14.5131 90.377 14.5131C91.5555 14.5131 92.201 13.7171 92.201 12.9459C92.201 11.9189 91.4056 11.5519 90.2313 10.8466C89.8606 10.6239 89.3151 10.2734 89.3151 9.77847C89.3146 9.66361 89.3384 9.54991 89.3849 9.44467C89.4313 9.33943 89.4995 9.24496 89.5849 9.16731C89.6704 9.08966 89.7713 9.03054 89.8811 8.99374C89.991 8.95695 90.1074 8.94328 90.2229 8.95362C91.0266 8.95362 91.5972 9.63411 91.797 10.4301H92.0136L91.822 8.60306H91.6388C91.4347 9.23819 91.0183 8.60306 90.1022 8.60306C89.9055 8.59243 89.7086 8.62152 89.5236 8.68857C89.3386 8.75561 89.1693 8.85921 89.026 8.99306C88.8827 9.12691 88.7683 9.28823 88.6899 9.4672C88.6114 9.64617 88.5706 9.83907 88.5697 10.0342C88.5697 11.6839 90.9309 11.721 91.2848 12.9211C91.3334 13.07 91.3448 13.2283 91.3182 13.3825C91.2916 13.5366 91.2276 13.6821 91.1319 13.8066C91.0361 13.931 90.9114 14.0306 90.7684 14.0969C90.6253 14.1632 90.4682 14.1942 90.3104 14.1873C89.3901 14.1873 88.7863 13.4697 88.5198 12.6737H88.3199L88.5781 14.5131ZM83.4268 9.45265C83.4268 9.04022 83.506 9.04022 84.0681 9.04022C84.8469 9.04022 85.4507 9.37429 85.4507 10.2239C85.4507 11.1477 84.6803 11.4034 83.4268 11.4612V9.45265ZM82.5482 13.7089C82.5482 13.9563 82.4149 14.2326 81.8111 14.2326V14.3935H84.1889V14.2326C83.5601 14.2326 83.4268 13.9563 83.4268 13.7089V11.7746H83.9141L85.9712 14.41H87.3704V14.2491C87.2036 14.2391 87.0414 14.1906 86.8968 14.1075C86.7523 14.0245 86.6292 13.9091 86.5376 13.7707L84.826 11.6797C85.6589 11.5684 86.3918 11.1477 86.3918 10.2404C86.3918 9.23819 85.5256 8.73915 84.089 8.73915H81.8069V8.90413C82.4108 8.90413 82.544 9.17632 82.544 9.42378L82.5482 13.7089ZM80.7159 14.3935L81.124 12.9335H80.8824C80.4244 14.0223 79.7664 14.0306 79.0752 14.0306H77.93C77.7593 14.0306 77.7093 13.8491 77.7093 13.6965V11.589H78.9252C79.5041 11.589 79.9996 11.754 79.9996 12.4139H80.1829V10.4095H79.9996C79.9996 11.0735 79.5041 11.2343 78.9252 11.2343H77.7093V9.39079C77.7089 9.34322 77.7188 9.29613 77.7383 9.25265C77.7578 9.20918 77.7864 9.17033 77.8223 9.1387C77.8582 9.10707 77.9005 9.0834 77.9463 9.06926C77.9922 9.05512 78.0406 9.05085 78.0882 9.05673H79.4583C79.7037 9.05253 79.9417 9.14025 80.1247 9.30236C80.3077 9.46446 80.4222 9.689 80.4452 9.93106H80.6368V8.69379H76.0561V8.85876C76.689 8.85876 76.8181 9.13096 76.8181 9.37842V13.68C76.8181 13.9275 76.689 14.2038 76.0561 14.2038V14.3646L80.7159 14.3935ZM72.4456 14.5131H72.5581C73.0328 13.2758 73.9239 11.0199 74.5652 9.50627C74.7027 9.15983 74.8775 8.89588 75.2815 8.88763V8.72266H73.5075V8.88763C73.7615 8.88763 74.1405 8.92887 74.1405 9.25468C74.1108 9.50085 74.0405 9.7405 73.9323 9.96405L72.683 13.016L71.4337 10.2156C71.2593 9.89285 71.1197 9.5528 71.0173 9.20108C71.0173 8.99899 71.1172 8.88763 71.6669 8.88763V8.72266H69.3682V8.88763C69.8679 8.88763 70.0928 9.36604 70.326 9.88157L72.4456 14.5131ZM67.7483 9.40729C67.7483 9.15983 67.8774 8.88763 68.5812 8.88763V8.72266H66.0035V8.88763C66.7239 8.88763 66.8363 9.15983 66.8363 9.40729V13.7089C66.8363 13.9563 66.7072 14.2326 66.0035 14.2326V14.3935H68.5812V14.2326C67.8649 14.2326 67.7483 13.9563 67.7483 13.7089V9.40729ZM64.4169 9.40729C64.4169 9.15983 64.546 8.88763 65.2497 8.88763V8.72266H63.2176V8.88763C63.9297 8.88763 64.0504 9.15983 64.0504 9.40729V12.8428L60.719 8.71853H59.2365V8.8835C59.3884 8.86885 59.5414 8.89709 59.6777 8.96497C59.814 9.03285 59.9282 9.13759 60.0069 9.26705L60.0777 9.35367V13.7047C60.0777 13.9522 59.9486 14.2285 59.2449 14.2285V14.3894H61.3062V14.2285C60.5941 14.2285 60.4733 13.9522 60.4733 13.7047V9.79084L64.3128 14.509H64.446L64.4169 9.40729ZM53.2982 12.2283C53.2982 13.7955 53.9395 14.5131 55.5095 14.5131C55.8897 14.5099 56.2658 14.4343 56.6172 14.2904C57.5958 13.8285 57.6833 13.0779 57.6833 12.1087V9.40729C57.6833 9.15983 57.8123 8.88763 58.5161 8.88763V8.72266H56.5089V8.88763C57.1919 8.88763 57.3418 9.15983 57.3418 9.40729V12.1087C57.3418 12.9335 57.3418 14.1295 55.7177 14.1295C54.635 14.1295 54.2227 13.6223 54.2227 12.286V9.39903C54.2227 9.15158 54.3518 8.87939 54.9806 8.87939V8.71441H52.5778V8.87939C53.2108 8.87939 53.3399 9.15158 53.3399 9.39903L53.2982 12.2283ZM156.756 18.7074L157.759 21.0624H155.76L156.756 18.7074ZM157.068 17.4702H156.914L155.157 21.5944C154.803 22.4193 154.578 23.0503 154.041 23.0915V23.2565H155.752V23.0915C155.461 23.0915 155.165 23.0173 155.165 22.7327C155.271 22.2745 155.427 21.8292 155.631 21.4047H157.901L158.209 22.1347C158.538 22.8936 158.546 23.0585 157.793 23.0915V23.2565H159.995V23.0915C159.512 23.1204 159.329 22.6049 159.163 22.2667L157.068 17.4702ZM152.658 18.295C152.658 18.0476 152.787 17.7713 153.491 17.7713V17.6104H150.909V17.7713C151.629 17.7713 151.742 18.0476 151.742 18.295V22.5966C151.742 22.8441 151.613 23.1163 150.909 23.1163V23.2812H153.491V23.1163C152.77 23.1163 152.658 22.8441 152.658 22.5966V18.295ZM146.478 18.3404C146.478 17.928 146.557 17.928 147.12 17.928C147.898 17.928 148.502 18.262 148.502 19.1075C148.502 20.0355 147.732 20.2912 146.478 20.3448V18.3404ZM145.595 22.5966C145.595 22.8441 145.466 23.1163 144.862 23.1163V23.2812H147.24V23.1163C146.607 23.1163 146.478 22.8441 146.478 22.5966V20.6582H146.961L149.018 23.2977H150.413V23.1328C150.246 23.1236 150.084 23.0756 149.939 22.9924C149.794 22.9093 149.672 22.7934 149.581 22.6544L147.869 20.5634C148.702 20.452 149.435 20.0355 149.435 19.124C149.435 18.1218 148.569 17.6269 147.132 17.6269H144.85V17.7877C145.454 17.7877 145.583 18.0641 145.583 18.3115L145.595 22.5966ZM141.131 18.7074L142.135 21.0624H140.136L141.131 18.7074ZM141.444 17.4702H141.269L139.516 21.5944C139.157 22.4193 138.937 23.0503 138.4 23.0915V23.2565H140.111V23.0915C139.815 23.0915 139.524 23.0173 139.524 22.7327C139.63 22.2745 139.786 21.8292 139.99 21.4047H142.256L142.568 22.1347C142.897 22.8936 142.905 23.0585 142.152 23.0915V23.2565H144.359V23.0915C143.871 23.1204 143.692 22.6049 143.526 22.2667L141.444 17.4702ZM137.096 18.295C137.096 18.0476 137.229 17.7713 137.858 17.7713V17.6104H136.138L134.227 21.9367L132.228 17.6104H130.517V17.7713C131.208 17.7713 131.349 18.0476 131.349 18.295V22.5966C131.349 22.8441 131.22 23.1163 130.517 23.1163V23.2812H132.574V23.1163C131.866 23.1163 131.741 22.8441 131.741 22.5966V18.6043L133.915 23.2812H134.01L136.226 18.4064V22.5966C136.226 22.8441 136.097 23.1163 135.464 23.1163V23.2812H137.866V23.1163C137.238 23.1163 137.104 22.8441 137.104 22.5966L137.096 18.295ZM124.491 18.7074L125.494 21.0624H123.496L124.491 18.7074ZM124.803 17.4702H124.628L122.875 21.5944C122.517 22.4193 122.292 23.0503 121.759 23.0915V23.2565H123.471V23.0915C123.175 23.0915 122.883 23.0173 122.883 22.7327C122.99 22.2745 123.146 21.8292 123.35 21.4047H125.615L125.928 22.1347C126.256 22.8936 126.265 23.0585 125.511 23.0915V23.2565H127.714V23.0915C127.235 23.1204 127.052 22.6049 126.881 22.2667L124.803 17.4702ZM120.743 23.0957C120.11 23.0957 119.981 22.8234 119.981 22.576V17.9527H120.606C121.247 17.9527 121.642 17.9527 121.855 19.0498H122.063L122.009 17.5939H117.095L117.041 19.0498H117.249C117.441 17.9527 117.836 17.9527 118.498 17.9527H119.119V22.5801C119.119 22.8276 118.99 23.0998 118.361 23.0998V23.2647H120.764L120.743 23.0957ZM115.708 18.295C115.708 18.0476 115.837 17.7713 116.541 17.7713V17.6104H114.484V17.7713C115.192 17.7713 115.317 18.0476 115.317 18.295V21.7305L111.985 17.6063H110.507V17.7671C110.659 17.7558 110.811 17.7859 110.947 17.8543C111.083 17.9226 111.197 18.0266 111.278 18.1548L111.344 18.2414V22.5925C111.344 22.8399 111.215 23.1121 110.511 23.1121V23.2771H112.568V23.1121C111.861 23.1121 111.736 22.8399 111.736 22.5925V18.6745L115.575 23.3967H115.704L115.708 18.295ZM106.788 18.7074L107.792 21.0624H105.793L106.788 18.7074ZM107.101 17.4702H106.943L105.189 21.5944C104.831 22.4193 104.606 23.0503 104.069 23.0915V23.2565H105.785V23.0915C105.489 23.0915 105.194 23.0173 105.194 22.7327C105.299 22.2739 105.457 21.8284 105.664 21.4047H107.929L108.242 22.1347C108.571 22.8936 108.579 23.0585 107.825 23.0915V23.2565H110.032V23.0915C109.545 23.1204 109.366 22.6049 109.2 22.2667L107.101 17.4702ZM99.4968 23.3802H99.6842C99.7716 22.7533 100.396 23.3802 101.292 23.3802C102.47 23.3802 103.12 22.5842 103.12 21.813C103.12 20.7819 102.324 20.4149 101.146 19.7138C100.775 19.4911 100.23 19.1405 100.23 18.6415C100.229 18.5266 100.253 18.4129 100.299 18.3077C100.346 18.2024 100.414 18.108 100.5 18.0303C100.585 17.9527 100.686 17.8935 100.796 17.8567C100.906 17.8199 101.022 17.8063 101.138 17.8166C101.941 17.8166 102.512 18.493 102.712 19.289H102.928L102.737 17.4702H102.558C102.349 18.1012 101.933 17.4702 101.017 17.4702C100.82 17.4595 100.624 17.4887 100.439 17.5557C100.254 17.6228 100.085 17.7265 99.942 17.8604C99.799 17.9943 99.6851 18.1557 99.6071 18.3346C99.5291 18.5136 99.4887 18.7064 99.4885 18.9013C99.4885 20.551 101.85 20.5881 102.199 21.7883C102.249 21.9374 102.261 22.0961 102.235 22.2508C102.208 22.4056 102.145 22.5517 102.049 22.6767C101.953 22.8016 101.828 22.9016 101.684 22.9681C101.541 23.0347 101.383 23.0657 101.225 23.0585C100.309 23.0585 99.7008 22.3409 99.4343 21.5408H99.2344L99.4968 23.3802ZM93.2879 17.7754C94.6288 17.7754 95.1368 19.0786 95.1368 20.4231C95.1826 21.3428 94.8245 22.9513 93.2879 23.0709C92.2676 23.1493 91.4347 22.1883 91.4347 20.4231C91.4347 18.7734 91.9969 17.862 93.2879 17.7754ZM93.2879 17.4702C91.6013 17.4331 90.452 18.7075 90.452 20.4231C90.4304 20.8046 90.4878 21.1863 90.6208 21.5449C90.7537 21.9035 90.9593 22.2314 91.2249 22.5084C91.4905 22.7854 91.8106 23.0056 92.1654 23.1556C92.5201 23.3055 92.9021 23.3819 93.2879 23.3802C95.016 23.3802 96.1154 22.077 96.1154 20.4231C96.1154 18.6002 94.7828 17.4001 93.2879 17.4702ZM89.4775 17.4702H89.2985C89.0111 18.1631 88.578 17.4702 87.3954 17.4702C87.0006 17.4573 86.6074 17.5254 86.2403 17.67C85.8733 17.8147 85.5404 18.0328 85.2624 18.3108C84.9845 18.5888 84.7675 18.9206 84.625 19.2855C84.4826 19.6504 84.4178 20.0405 84.4346 20.4314C84.4346 22.3079 85.7255 23.3802 87.412 23.3802C87.8422 23.3695 88.2651 23.2684 88.6528 23.0835C89.0405 22.8986 89.3841 22.6343 89.6608 22.3079L89.5109 22.1388C89.256 22.4169 88.9437 22.6374 88.5952 22.7854C88.2468 22.9334 87.8702 23.0054 87.4912 22.9967C86.0711 22.9967 85.4382 21.7017 85.4382 20.5015C85.4382 18.959 86.0545 17.8207 87.4787 17.8207C88.4656 17.8207 89.0986 18.4641 89.3484 19.4044H89.5567L89.4775 17.4702ZM82.9146 18.295C82.9146 18.0476 83.0437 17.7713 83.7475 17.7713V17.6104H81.1698V17.7713C81.8902 17.7713 82.0026 18.0476 82.0026 18.295V22.5966C82.0026 22.8441 81.8735 23.1163 81.1698 23.1163V23.2812H83.7475V23.1163C83.0312 23.1163 82.9146 22.8441 82.9146 22.5966V18.295ZM76.7348 18.3404C76.7348 17.928 76.814 17.928 77.3761 17.928C78.1549 17.928 78.7587 18.262 78.7587 19.1075C78.7587 20.0355 77.9883 20.2912 76.7348 20.3448V18.3404ZM75.852 22.5966C75.852 22.8441 75.7229 23.1163 75.1191 23.1163V23.2812H77.4969V23.1163C76.8639 23.1163 76.7348 22.8441 76.7348 22.5966V20.6582H77.2179L79.3 23.2977H80.6909V23.1328C80.5238 23.1236 80.3613 23.0756 80.2166 22.9924C80.0718 22.9093 79.949 22.7934 79.8581 22.6544L78.1465 20.5634C78.9585 20.452 79.7081 20.0355 79.7081 19.124C79.7081 18.1218 78.8461 17.6269 77.4095 17.6269H75.1274V17.7877C75.7312 17.7877 75.8603 18.0641 75.8603 18.3115L75.852 22.5966ZM74.2613 23.2812L74.6485 21.8336H74.407C73.9489 22.9183 73.291 22.9266 72.5997 22.9266H71.4587C71.2838 22.9266 71.2338 22.7492 71.2338 22.5966V20.4891H72.4539C73.0328 20.4891 73.5242 20.65 73.5242 21.314H73.7074V19.3096H73.5242C73.5242 19.9777 73.0328 20.1344 72.4539 20.1344H71.2338V18.295C71.2334 18.2475 71.2433 18.2004 71.2628 18.1569C71.2823 18.1134 71.311 18.0746 71.3468 18.0429C71.3827 18.0113 71.425 17.9876 71.4709 17.9735C71.5167 17.9594 71.5651 17.9551 71.6128 17.961H73.0036C73.2491 17.9568 73.4871 18.0445 73.6701 18.2066C73.8531 18.3687 73.9675 18.5932 73.9906 18.8353H74.1821V17.598H69.6014V17.7589C70.2344 17.7589 70.3635 18.0352 70.3635 18.2827V22.5842C70.3635 22.8317 70.2344 23.1039 69.6014 23.1039V23.2689L74.2613 23.2812ZM64.8125 18.3651C64.8125 17.9527 64.8916 17.928 65.3081 17.928C66.9071 17.928 68.0148 18.7941 68.0148 20.4726C68.0148 22.0646 66.9904 23.009 65.2289 22.9266C65.1185 22.9266 65.0125 22.8831 64.9344 22.8058C64.8564 22.7284 64.8125 22.6235 64.8125 22.5141V18.3651ZM65.4704 23.2812C67.7858 23.2812 68.956 22.2007 68.956 20.4603C68.956 18.5342 67.615 17.6104 65.3997 17.6104H63.1676V17.7713C63.8006 17.7713 63.9297 18.0476 63.9297 18.295V22.5966C63.9297 22.8441 63.8006 23.1163 63.1676 23.1163V23.2812H65.4704ZM62.2431 23.2812L62.6304 21.8336H62.3847C61.9266 22.9183 61.2687 22.9266 60.5774 22.9266H59.4364C59.2615 22.9266 59.2115 22.7492 59.2115 22.5966V20.4891H60.4317C61.0105 20.4891 61.5019 20.65 61.5019 21.314H61.6851V19.3096H61.5019C61.5019 19.9777 61.0105 20.1344 60.4317 20.1344H59.2115V18.295C59.2112 18.2475 59.2211 18.2004 59.2406 18.1569C59.2601 18.1134 59.2887 18.0746 59.3246 18.0429C59.3604 18.0113 59.4027 17.9876 59.4486 17.9735C59.4944 17.9594 59.5428 17.9551 59.5905 17.961H60.9855C61.2305 17.9569 61.468 18.0447 61.6503 18.2069C61.8327 18.3691 61.9462 18.5936 61.9683 18.8353H62.1599V17.598H57.5791V17.7589C58.2121 17.7589 58.3412 18.0352 58.3412 18.2827V22.5842C58.3412 22.8317 58.2121 23.1039 57.5791 23.1039V23.2689L62.2431 23.2812ZM54.939 23.2812V23.1163C54.2894 23.1163 54.1644 22.8441 54.1644 22.5966V20.4891H55.3054C55.8884 20.4891 56.3798 20.65 56.3798 21.314H56.5547V19.3096H56.3715C56.3715 19.9777 55.8801 20.1344 55.2971 20.1344H54.1603V18.295C54.1603 18.0888 54.2269 17.961 54.5309 17.961H55.6719C56.2757 17.961 56.7963 17.8908 56.9212 18.8353H57.1294V17.598H52.5195V17.7589C53.1525 17.7589 53.2774 18.0352 53.2774 18.2827V22.5842C53.2774 22.8317 53.1525 23.1039 52.5195 23.1039V23.2689L54.939 23.2812Z" fill="black"/>
<path fill-rule="evenodd" clip-rule="evenodd" d="M41.9258 6.4502H24.0194V20.0602C24.0157 20.0945 24.0157 20.129 24.0194 20.1633C24.0194 20.6995 24.5191 21.347 24.8522 21.7058C25.1534 22.0346 25.5212 22.2967 25.9317 22.4751C26.3421 22.6535 26.786 22.7441 27.2342 22.741C27.3202 22.7471 27.4064 22.7471 27.4924 22.741H30.4074C30.6077 22.7403 30.8078 22.7499 31.0071 22.7698C32.0356 22.8729 32.3896 23.2194 32.9643 24.0277C33.5931 23.042 34.1261 22.7533 35.2963 22.741H38.9608C39.6037 22.6787 40.2144 22.4327 40.7186 22.0329C41.2229 21.6331 41.5989 21.0967 41.8009 20.4891C41.8535 20.3394 41.8897 20.1846 41.9091 20.0272L41.9258 6.4502Z" fill="#FCAF17"/>
<path fill-rule="evenodd" clip-rule="evenodd" d="M1.25781 0.325684C2.03653 0.783475 2.26141 1.34026 2.38217 2.20222V20.0396C2.38217 20.0396 2.38217 20.0808 2.38217 20.1427C2.51199 20.722 2.8102 21.2511 3.24001 21.6645C3.58352 22.0025 3.9919 22.269 4.44105 22.4482C4.89019 22.6274 5.37102 22.7157 5.85518 22.708H8.85763C9.037 22.7071 9.2163 22.7153 9.39482 22.7327C10.3984 22.8234 10.7899 23.1658 11.3354 23.97C12.0183 22.9925 12.5555 22.708 13.7507 22.708H17.3319C17.9647 22.6103 18.5605 22.3497 19.0596 21.9524C19.5588 21.555 19.9438 21.0348 20.1762 20.4437C20.2283 20.3243 20.262 20.1978 20.2761 20.0684V2.37132C20.2909 2.18998 20.3159 2.0096 20.351 1.83103C20.3799 1.50677 20.4964 1.19621 20.6884 0.932023C20.8804 0.667835 21.1408 0.4598 21.4421 0.329812H16.5033V17.4165C16.4894 17.5441 16.4685 17.6707 16.4408 17.796C16.2867 18.5095 15.9161 18.7693 15.2456 19.0003H7.625C7.48288 18.9604 7.34373 18.9108 7.20857 18.8518C6.51314 18.5466 6.30492 18.1424 6.18832 17.4248V0.329812L1.25781 0.325684Z" fill="#006296"/>
<path fill-rule="evenodd" clip-rule="evenodd" d="M22.874 0.333984C23.6736 0.804148 23.8984 1.32792 24.0275 2.20638V6.12441H41.9339V2.37136C41.9578 2.19104 41.9911 2.01207 42.0339 1.8352C42.0877 1.52798 42.2068 1.23561 42.3834 0.977491C42.5601 0.719373 42.7901 0.501413 43.0583 0.3381L22.874 0.333984Z" fill="#006296"/>
<path fill-rule="evenodd" clip-rule="evenodd" d="M36.3794 19.9903C36.3341 20.1038 36.306 20.2233 36.2961 20.345L36.3669 20.3202C36.3579 20.2104 36.3579 20.1001 36.3669 19.9903H36.3794ZM37.0623 20.7038L37.0956 20.8151C37.0704 20.8515 37.0426 20.8859 37.0124 20.9183C36.9558 20.982 36.8834 21.0301 36.8023 21.0575C36.7212 21.085 36.6343 21.091 36.5501 21.075C36.3963 21.0303 36.2541 20.9529 36.1337 20.8482H36.1795C36.1347 20.8251 36.0915 20.7989 36.0504 20.7698C35.8755 20.8853 35.5007 20.7698 35.3508 20.6956L35.4341 20.5966C35.3234 20.5701 35.2148 20.5357 35.1093 20.4935C35.1093 20.4935 35.2009 20.3491 35.2342 20.3079C35.3051 20.2031 35.4069 20.1224 35.5257 20.0769L35.5673 19.9903C35.6366 19.8381 35.6675 19.6714 35.6573 19.5048C35.6471 19.3381 35.5963 19.1764 35.509 19.0335C35.4333 18.943 35.3779 18.8376 35.3466 18.7242C34.9868 18.7814 34.6417 18.9075 34.3306 19.0953C34.2086 19.1579 34.0674 19.1726 33.9349 19.1366H33.8933C33.871 19.1288 33.8518 19.1142 33.8383 19.095C33.8249 19.0757 33.8179 19.0528 33.8183 19.0294C33.4685 19.0294 33.1229 19.0294 32.7773 19.0665C32.7773 19.1737 32.8189 19.351 32.8397 19.4789C32.8458 19.6714 32.8751 19.8625 32.9272 20.048L32.9688 20.1553C32.9998 20.2019 33.018 20.2557 33.0217 20.3113C33.0253 20.367 33.0143 20.4227 32.9897 20.4728V20.5347C33.023 20.7368 32.7648 20.7904 32.6107 20.7904C32.4802 20.7703 32.3571 20.7178 32.2526 20.6378L32.2859 20.5677C32.2511 20.5617 32.2174 20.5506 32.1859 20.5347C32.1297 20.5068 32.0754 20.4751 32.0235 20.4399C32.0235 20.4399 32.0444 20.3409 32.0569 20.2996C32.0862 20.218 32.1284 20.1414 32.1818 20.0728V19.6604L32.136 19.5944L32.0943 19.5408C32.0041 19.7252 31.9667 19.9306 31.9861 20.1347V20.2089C32.0045 20.268 32.0035 20.3314 31.9833 20.3899C31.9631 20.4484 31.9247 20.4991 31.8736 20.5347L31.9236 20.7615L31.807 20.8647C31.711 20.935 31.5973 20.978 31.4784 20.9889C31.3595 20.9998 31.2398 20.9782 31.1324 20.9265C31.1303 20.8977 31.1303 20.8687 31.1324 20.8399C31.1305 20.8235 31.1305 20.8068 31.1324 20.7904C31.0393 20.7748 30.9475 20.7528 30.8575 20.7244C30.8575 20.7244 30.8867 20.5883 30.9075 20.5306C30.9598 20.408 31.0346 20.2961 31.1282 20.2006L31.1657 20.1594C31.1708 20.0767 31.1862 19.995 31.2115 19.9161C31.3198 19.6026 31.0949 19.6356 31.1282 19.2314C30.9367 19.0953 30.6077 18.9551 30.5077 18.753C30.4723 18.6911 30.4304 18.6331 30.3828 18.5798L30.3578 18.5427C30.2496 18.4643 30.2287 18.4932 30.2079 18.3406V18.2664C30.1785 18.1498 30.123 18.0412 30.0455 17.9488C29.679 17.6684 29.4917 17.9777 29.1752 17.8333L29.1294 17.8086C29.0945 17.7757 29.0516 17.7524 29.0049 17.7408C28.9582 17.7293 28.9092 17.7299 28.8628 17.7426L28.8129 17.7632C28.7105 17.8249 28.588 17.8451 28.471 17.8198C28.3539 17.7945 28.2512 17.7255 28.1841 17.6271C28.0825 17.5911 27.9979 17.5191 27.9467 17.425C27.9088 17.3599 27.8935 17.2843 27.9033 17.2097C27.9131 17.1352 27.9473 17.0659 28.0008 17.0126L28.0425 16.9755C28.1757 16.8476 28.1133 16.6043 28.3631 16.3816C28.5422 16.2166 28.4506 16.1053 28.6213 15.9362C28.4375 15.8376 28.2749 15.7045 28.1424 15.5444L28.2798 15.3794C28.2798 15.3794 28.3715 15.4289 28.4839 15.4784C28.6013 15.5403 28.7351 15.5648 28.867 15.5485L28.9295 15.5279C28.9789 15.5045 29.033 15.4923 29.0877 15.4923C29.1425 15.4923 29.1966 15.5045 29.246 15.5279L29.2834 15.5526L29.3376 15.5897C29.4417 15.6475 29.525 15.4825 29.7832 15.5897C29.8038 15.6009 29.8264 15.6079 29.8498 15.6104C29.9414 15.6104 30.2662 15.5485 30.5327 15.5485C30.7992 15.5485 31.0199 15.6186 31.3364 15.6351C31.6529 15.6516 31.7862 15.6351 32.0735 15.6351C32.6274 15.6351 32.9397 15.7258 33.4935 15.7217C34.3014 15.7217 34.7428 15.499 35.5757 15.5155C36.1295 15.5155 37.004 15.4578 37.2664 16.0063C37.3542 16.0692 37.4241 16.1535 37.4694 16.2511C37.5146 16.3486 37.5336 16.4561 37.5246 16.5631C37.5554 16.8983 37.4638 17.2334 37.2664 17.5075C36.979 17.8952 36.7 18.3983 36.9582 18.852C37.1039 19.1318 37.1395 19.4551 37.0582 19.7593C37.0536 19.9524 37.0647 20.1455 37.0915 20.3367C37.0881 20.3586 37.0881 20.3809 37.0915 20.4027L37.1165 20.4728C37.1581 20.5924 37.1498 20.6626 37.0165 20.712" fill="black"/>
<path fill-rule="evenodd" clip-rule="evenodd" d="M36.6454 20.4275L36.3831 20.5594C36.3483 20.5803 36.3161 20.6053 36.2873 20.6337C36.3149 20.6483 36.3443 20.6593 36.3747 20.6667C36.4311 20.6787 36.4897 20.6751 36.5441 20.6561C36.5985 20.6372 36.6465 20.6037 36.6829 20.5594L36.6454 20.4275ZM35.7418 20.2419L35.6293 20.2666C35.5753 20.2906 35.527 20.3258 35.4877 20.3697C35.7501 20.4316 35.7959 20.4522 35.7418 20.2419ZM36.6371 17.3302C36.8352 17.1891 36.9988 17.0059 37.116 16.794C37.1187 16.779 37.1187 16.7636 37.116 16.7486C37.1993 16.4187 37.1618 16.0187 36.8994 15.8908C36.4836 15.7428 36.0402 15.6865 35.6002 15.7258C34.7965 15.7258 34.3509 15.932 33.5472 15.9362C32.9892 15.9362 32.6769 15.8537 32.1188 15.8454C31.8273 15.8454 31.6649 15.8702 31.3734 15.8454C31.0819 15.8207 30.8945 15.7588 30.5822 15.7588C30.2699 15.7588 29.9867 15.8248 29.8993 15.8248C29.8118 15.8248 29.7244 15.7217 29.587 15.7794C29.5429 15.8009 29.4945 15.8121 29.4454 15.8121C29.3963 15.8121 29.3478 15.8009 29.3038 15.7794L29.2621 15.7547L29.208 15.7135C29.1847 15.7022 29.159 15.6963 29.1331 15.6963C29.1071 15.6963 29.0814 15.7022 29.0581 15.7135L28.9873 15.7423L28.8915 15.7629L29.1247 15.8661C28.8665 16.0351 28.8207 16.0104 28.7333 16.2785C28.6458 16.5466 28.4793 16.5259 28.421 16.7528C28.3956 16.8855 28.3352 17.0093 28.2461 17.1116L28.2044 17.1528C28.092 17.2601 28.2794 17.4085 28.4085 17.3797C28.4664 17.3684 28.5234 17.3533 28.5792 17.3343L28.625 17.3137C28.6945 17.2894 28.769 17.2827 28.8417 17.2942C28.9144 17.3057 28.9831 17.3351 29.0414 17.3797L29.0914 17.4085C29.3538 17.5281 29.562 17.1652 30.0992 17.6106C30.282 17.7605 30.4118 17.9642 30.4698 18.1921V18.2746C30.5139 18.309 30.5543 18.3477 30.5905 18.3901C30.7779 18.5551 30.6905 18.6417 30.9112 18.7695C31.1319 18.8974 31.4193 19.0459 31.4193 19.0459C31.336 19.5985 31.5109 19.3882 31.5192 19.714C31.519 19.7746 31.5077 19.8347 31.4859 19.8913L31.4651 19.9532C31.4425 20.0438 31.4285 20.1363 31.4234 20.2295C31.3248 20.3169 31.2417 20.42 31.1777 20.5347C31.2377 20.5537 31.3019 20.5556 31.363 20.5403C31.4241 20.525 31.4797 20.4931 31.5234 20.4481L31.4567 20.2171C31.5317 20.1676 31.6483 20.114 31.6191 20.0068L31.5941 19.9284C31.5067 19.5614 31.8273 18.951 31.9814 18.6375C32.0585 18.9642 32.2 19.2726 32.3978 19.5449L32.4353 20.0604L32.3271 20.0109L32.4187 20.1346L32.3354 20.1718C32.3212 20.2159 32.3031 20.2587 32.2812 20.2996C32.3282 20.326 32.3813 20.3399 32.4353 20.3399C32.4893 20.3399 32.5424 20.326 32.5894 20.2996L32.5561 20.1965L32.5894 20.1346C32.5924 20.1183 32.5924 20.1015 32.5894 20.0852C32.5808 20.0469 32.5682 20.0096 32.5519 19.9738L32.5061 19.8624C32.4499 19.6633 32.4164 19.4586 32.4062 19.2521C32.3812 19.0582 32.3104 18.6375 32.3104 18.6375C32.3104 18.6375 32.8434 18.5881 33.1099 18.5798C33.3765 18.5716 34.1094 18.5798 34.1094 18.5798L33.9303 18.6994C34.1135 18.6499 34.3925 18.4602 34.6341 18.3818C34.9054 18.3027 35.1847 18.2529 35.4669 18.2334C35.4566 18.4567 35.5178 18.6776 35.6418 18.8644C35.7618 19.0666 35.8278 19.2958 35.8337 19.5303C35.8395 19.7648 35.7849 19.9969 35.6751 20.2048H35.8126C35.8643 19.8715 35.9537 19.545 36.0791 19.2314C36.0688 19.0325 36.0479 18.8343 36.0166 18.6375L36.229 18.5798C36.229 18.5798 36.2956 18.7324 36.3664 18.9345C36.5366 19.3585 36.5884 19.8201 36.5163 20.2708L36.5746 20.3367H36.6704H36.7079L36.6829 20.2625C36.6238 20.0323 36.6041 19.7939 36.6246 19.5573C36.7043 19.2827 36.6775 18.9885 36.5496 18.7324C36.4561 18.545 36.4142 18.3365 36.4281 18.128C36.442 17.9194 36.5112 17.7182 36.6288 17.5446C36.4948 17.6512 36.3404 17.7298 36.1749 17.7756C35.9324 17.7932 35.6888 17.7633 35.4579 17.6876C35.2271 17.6119 35.0137 17.4918 34.8298 17.3343H34.7798H34.7423H34.6882C34.4592 17.4127 34.3259 17.2394 34.3051 17.0373C34.3051 16.9342 34.3051 16.9301 34.2468 16.8847L34.0136 16.728L34.3925 16.6992C34.5982 16.7049 34.7949 16.784 34.9464 16.9219C34.9464 16.9219 35.7251 17.4786 36.1665 17.3343C36.4624 17.2091 36.6981 16.9757 36.8245 16.6827L36.8536 16.629C36.8536 16.629 36.8536 16.6538 36.8536 16.6785L37.041 16.6167C37.0554 16.651 37.0554 16.6896 37.041 16.7239L37.0077 16.7816C36.9 16.987 36.7594 17.1736 36.5913 17.3343L36.6371 17.3302ZM35.0796 17.2436C35.3861 17.4839 35.7725 17.6016 36.1624 17.5735C36.2587 17.5469 36.3501 17.5051 36.433 17.4498C36.2594 17.531 36.0679 17.5671 35.8763 17.5549C35.6847 17.5426 35.4994 17.4823 35.3378 17.3797C35.242 17.3343 35.1546 17.2848 35.0796 17.2436ZM34.709 17.1446C34.7725 17.1342 34.8372 17.1342 34.9006 17.1446L34.8548 17.1116C34.8548 17.1116 34.7715 17.0538 34.7174 17.025C34.6693 16.9895 34.6159 16.9616 34.5591 16.9425H34.5175V17.058C34.5175 17.1281 34.5425 17.2229 34.6382 17.1899L34.709 17.1446Z" fill="#D7182A"/>
<path fill-rule="evenodd" clip-rule="evenodd" d="M33.2472 1.2911L33.6054 1.80251L34.6464 1.61279L34.5881 1.91799L34.838 1.8685L34.6548 2.81707L35.3502 3.28724L35.2711 3.34085L35.5251 3.50995L34.6423 4.11209L34.838 5.15139L33.7886 4.95756L33.1806 5.83189L33.0057 5.58444L32.9557 5.65868L32.4852 4.97405L31.519 5.15552L31.5773 4.90394L31.265 4.96168L31.4566 3.93062L30.9361 3.58006L30.5654 3.28724L31.4649 2.67685L31.265 1.61279L32.3394 1.81076L32.9557 0.919922L33.2264 1.30348L33.2472 1.2911Z" fill="black"/>
<path fill-rule="evenodd" clip-rule="evenodd" d="M32.5189 1.94249L32.9104 2.87456H33.0228L33.4018 1.94249L32.9604 1.30322L32.5189 1.94249ZM32.7063 2.95705L32.2899 2.02497L31.5237 1.88474L31.6653 2.6436L32.6064 3.03128C32.6275 3.00155 32.6544 2.97631 32.6855 2.95705H32.7063ZM32.5148 3.22925L31.582 2.8457L30.9365 3.28698L31.582 3.72416L32.5106 3.34473V3.30761C32.5084 3.28154 32.5084 3.25532 32.5106 3.22925H32.5148ZM32.5814 3.55094L31.6611 3.92625L31.5195 4.68511L32.2857 4.54488L32.673 3.64992C32.6372 3.6221 32.6063 3.58867 32.5814 3.55094ZM32.8729 3.73654L32.494 4.63149L32.9354 5.26663L33.3768 4.62736L33.0145 3.73654H32.8729ZM33.2185 3.64992L33.5808 4.54488L34.3471 4.68511L34.2055 3.92625L33.3102 3.54681C33.2852 3.58571 33.2543 3.6205 33.2185 3.64992ZM33.381 3.3406L34.2929 3.72416L34.9342 3.28698L34.2888 2.8457L33.3768 3.22512C33.379 3.25257 33.379 3.28016 33.3768 3.30761L33.381 3.3406ZM33.281 3.02717L34.2055 2.6436L34.3471 1.88474L33.5808 2.02497L33.206 2.95705C33.2349 2.97596 33.2603 2.99968 33.281 3.02717ZM32.9437 3.02717C32.8708 3.02717 32.8009 3.05584 32.7494 3.10689C32.6978 3.15793 32.6689 3.22718 32.6689 3.29937C32.6689 3.37156 32.6978 3.44079 32.7494 3.49184C32.8009 3.54288 32.8708 3.57156 32.9437 3.57156C33.0166 3.57156 33.0865 3.54288 33.138 3.49184C33.1896 3.44079 33.2185 3.37156 33.2185 3.29937C33.2185 3.22718 33.1896 3.15793 33.138 3.10689C33.0865 3.05584 33.0166 3.02717 32.9437 3.02717Z" fill="white"/>
<path fill-rule="evenodd" clip-rule="evenodd" d="M42.6174 20.4643C42.5219 21.1225 42.2321 21.738 41.7845 22.2336C41.1626 22.8924 40.327 23.3142 39.4234 23.4255H35.7463C35.308 23.4287 34.8742 23.5141 34.4679 23.6771C34.0208 24.0054 33.6619 24.4373 33.4227 24.935C33.3269 24.7865 33.2144 24.6216 33.0895 24.4566L32.9896 24.6381C32.7901 24.2944 32.5586 23.9699 32.2983 23.6689C31.8378 23.4984 31.3489 23.4158 30.8575 23.4255H27.9425C27.4458 23.4673 26.9458 23.4019 26.4771 23.2339C26.0083 23.0659 25.582 22.7992 25.2273 22.4522C24.9956 22.3007 24.7843 22.1205 24.5985 21.9161C23.6366 20.8438 23.6741 20.1633 23.6991 20.0272V6.12021V2.23104C23.5741 1.45981 23.3618 1.03089 22.8662 0.700949L22.7163 0.721577C22.6288 0.746323 21.6669 1.05564 21.3213 1.54643C21.1038 1.95503 20.9775 2.40507 20.9506 2.86618V20.5509C20.9506 20.5757 20.9506 21.2026 20.0303 22.2707C19.4371 22.9053 18.6417 23.3188 17.7775 23.442H14.1795C13.7417 23.4413 13.3074 23.5182 12.8969 23.6689C12.4227 23.9844 12.0326 24.4089 11.7601 24.9061C11.6616 24.7386 11.5546 24.5762 11.4394 24.4195L11.3311 24.5968C11.1556 24.2787 10.9522 23.9764 10.7232 23.6936L10.6565 23.6565C10.2202 23.4946 9.75643 23.4176 9.29065 23.4297H6.2882C5.95706 23.4314 5.62697 23.3926 5.30543 23.3142C4.61686 23.162 3.98763 22.8153 3.49396 22.3161C3.31462 22.1962 3.14853 22.058 2.99842 21.9037C2.05313 20.8974 2.04064 20.1674 2.0448 20.0478V2.23517C1.8699 1.13812 1.53259 0.733945 0.470703 0.329769L0.528996 0.012207H22.2624H43.7043V0.0781838L44.2748 0.663832C43.7898 0.857831 43.3556 1.15818 43.0047 1.5423C42.7798 1.94649 42.6383 2.39087 42.5882 2.84968V20.4684L42.6174 20.4643ZM41.9261 6.4419H24.0197V20.0519C24.016 20.0862 24.016 20.1207 24.0197 20.155C24.0197 20.6912 24.5194 21.3387 24.8526 21.6975C25.1537 22.0263 25.5215 22.2884 25.932 22.4668C26.3425 22.6452 26.7863 22.7358 27.2345 22.7327C27.3205 22.7388 27.4068 22.7388 27.4927 22.7327H30.4077C30.608 22.732 30.8081 22.7416 31.0074 22.7615C32.0359 22.8646 32.3899 23.2111 32.9646 24.0194C33.5934 23.0337 34.1264 22.745 35.2966 22.7327H38.9612C39.604 22.6704 40.2147 22.4244 40.7189 22.0246C41.2232 21.6248 41.5992 21.0884 41.8012 20.4808C41.8538 20.3311 41.8901 20.1762 41.9095 20.0189L41.9261 6.4419ZM22.8745 0.325641C23.6741 0.795805 23.899 1.31959 24.028 2.19805V6.11608H41.9345V2.36302C41.9583 2.1827 41.9916 2.00374 42.0344 1.82687C42.0881 1.51912 42.2077 1.22632 42.3851 0.968103C42.5625 0.70989 42.7936 0.492241 43.063 0.329769L22.8745 0.325641ZM1.25775 0.325641C2.03647 0.783432 2.26134 1.34021 2.38211 2.20218V20.0395C2.38211 20.0395 2.38211 20.0808 2.38211 20.1426C2.51192 20.722 2.81013 21.251 3.23995 21.6645C3.58346 22.0025 3.99183 22.2689 4.44098 22.4481C4.89013 22.6274 5.37095 22.7157 5.85512 22.7079H8.85756C9.03693 22.707 9.21624 22.7153 9.39475 22.7327C10.3983 22.8234 10.7898 23.1657 11.3353 23.9699C12.0183 22.9925 12.5554 22.7079 13.7506 22.7079H17.3319C17.9647 22.6103 18.5604 22.3497 19.0596 21.9523C19.5587 21.555 19.9437 21.0347 20.1761 20.4437C20.2282 20.3243 20.2619 20.1978 20.276 20.0684V2.37127C20.2908 2.18994 20.3159 2.00956 20.351 1.83099C20.3798 1.50673 20.4963 1.19617 20.6883 0.931981C20.8803 0.667792 21.1407 0.459758 21.442 0.329769H16.5032V17.4165C16.4893 17.544 16.4685 17.6707 16.4407 17.7959C16.2866 18.5094 15.916 18.7693 15.2456 19.0002H7.62494C7.48281 18.9604 7.34366 18.9108 7.20851 18.8517C6.51307 18.5466 6.30485 18.1424 6.18825 17.4248V0.329769L1.25775 0.325641Z" fill="black"/>
<path fill-rule="evenodd" clip-rule="evenodd" d="M6.5293 17.396C6.67505 18.192 6.89992 18.427 7.67447 18.6745H11.3182V9.26709H6.5293V17.396Z" fill="#FCAF17"/>
<path fill-rule="evenodd" clip-rule="evenodd" d="M10.7483 13.0368C10.778 13.0906 10.7895 13.1525 10.7813 13.2133C10.773 13.2741 10.7455 13.3307 10.7025 13.3749L10.7483 13.8245L10.4693 13.8657H9.96962H9.76973L9.49073 13.8286L9.52404 13.6801L9.24504 13.643L9.32415 13.1893C9.29165 13.156 9.26813 13.1151 9.25576 13.0705C9.24339 13.0258 9.24257 12.9787 9.25336 12.9336V12.8883C9.17322 12.7861 9.1254 12.6627 9.11593 12.5336C9.11407 12.4766 9.13008 12.4204 9.16175 12.3728C9.09095 11.8985 8.97852 10.9664 8.97852 10.9664L9.24504 11.0241L9.43659 10.8921L9.5865 10.9623L9.74057 10.8715L9.90716 10.9499L10.0779 10.8633L10.2445 10.9623L10.4069 10.8963L10.6026 11.0282L10.8816 10.9664L10.8275 11.2592L11.0648 11.2097L10.8358 12.5418V12.5831C10.8616 12.6522 10.8683 12.7269 10.8551 12.7994C10.842 12.872 10.8094 12.9397 10.7608 12.9955L10.7483 13.0368Z" fill="black"/>
<path fill-rule="evenodd" clip-rule="evenodd" d="M9.43236 12.7112H10.3735L10.4068 12.6658C10.4427 12.6229 10.4623 12.5689 10.4623 12.5132C10.4623 12.4575 10.4427 12.4035 10.4068 12.3606L10.6025 11.2388H10.5442L10.3693 11.1192L10.2152 11.1811L10.057 11.0903L9.89876 11.1769L9.73635 11.0986L9.58228 11.1893L9.44485 11.1233L9.27828 11.2388H9.21582C9.24913 11.4904 9.31576 11.9977 9.3699 12.3276C9.3699 12.439 9.31993 12.4678 9.31993 12.5338C9.32241 12.569 9.33219 12.6032 9.34867 12.6345C9.36516 12.6657 9.38797 12.6932 9.4157 12.7153L9.43236 12.7112ZM10.2694 13.2597H9.50731L9.46984 13.4618H9.54063H9.73219H10.2111H10.2944L10.2694 13.2597ZM9.43653 12.938C9.43653 12.9875 9.41571 13.0081 9.43653 13.0452H10.3318C10.3462 13.0309 10.3561 13.0128 10.3605 12.9931C10.3649 12.9734 10.3637 12.9529 10.3568 12.9339H9.46568L9.43653 12.938Z" fill="#008D5C"/>
<path fill-rule="evenodd" clip-rule="evenodd" d="M9.63212 16.6786C9.66167 16.7322 9.67354 16.7937 9.66607 16.8543C9.6586 16.915 9.63217 16.9718 9.59048 17.0168L9.63212 17.4664L9.35728 17.5076H9.11991H8.85341H8.65352L8.37867 17.4746L8.40782 17.3261L8.12881 17.289L8.20793 16.8353C8.17666 16.8012 8.15395 16.7603 8.14165 16.7159C8.12935 16.6715 8.12781 16.6248 8.13715 16.5796V16.5343C8.05887 16.431 8.01127 16.3082 7.99972 16.1796C8.00008 16.1216 8.01588 16.0647 8.04553 16.0146C7.97891 15.5445 7.8623 14.6124 7.8623 14.6124L8.12881 14.6701L8.32038 14.534L8.47029 14.6083L8.62436 14.5175L8.79093 14.5959L8.96167 14.5093L9.13241 14.6041L9.29065 14.5423L9.48637 14.6701L9.76538 14.6124L9.7154 14.9052L9.9486 14.8557L9.71957 16.1878L9.74039 16.2291C9.76624 16.2982 9.77292 16.3729 9.75974 16.4454C9.74656 16.518 9.71399 16.5857 9.66543 16.6415L9.63212 16.6786Z" fill="black"/>
<path fill-rule="evenodd" clip-rule="evenodd" d="M8.3288 16.3569H9.26576L9.29907 16.3074C9.33922 16.2685 9.36352 16.2163 9.36736 16.1608C9.3712 16.1053 9.35431 16.0503 9.3199 16.0063L9.51145 14.8804H9.45316L9.27825 14.7608L9.12833 14.8227L8.9701 14.7319L8.80769 14.8144L8.64944 14.7402L8.4912 14.8268L8.35378 14.7608L8.19137 14.8804H8.12891C8.15806 15.1279 8.22468 15.6393 8.28298 15.9692C8.28298 16.0806 8.22886 16.1053 8.22886 16.1754C8.23159 16.211 8.24191 16.2455 8.25914 16.2768C8.27637 16.3081 8.30011 16.3354 8.3288 16.3569ZM9.18247 16.9013H8.41624L8.37877 17.0993H8.44956H8.64112H8.90347H9.12001H9.2033L9.18247 16.9013ZM8.34961 16.5796C8.34961 16.625 8.32879 16.6497 8.34961 16.6868H9.20745C9.22209 16.6727 9.23254 16.6548 9.23767 16.6352C9.24281 16.6155 9.24244 16.5949 9.23661 16.5755H8.34129L8.34961 16.5796Z" fill="#008D5C"/>
<path fill-rule="evenodd" clip-rule="evenodd" d="M36.3789 13.2511C36.3342 13.3648 36.3062 13.4843 36.2957 13.6058L36.3664 13.5811C36.3574 13.4713 36.3574 13.3609 36.3664 13.2511H36.3789ZM37.0619 13.9646L37.0952 14.076C37.07 14.1123 37.0421 14.1468 37.0119 14.1791C36.9549 14.2422 36.8824 14.2898 36.8015 14.3172C36.7205 14.3447 36.6338 14.3511 36.5497 14.3358C36.3968 14.2909 36.255 14.2151 36.1332 14.1131H36.1791C36.1342 14.09 36.0911 14.0638 36.05 14.0348C35.8751 14.1502 35.5003 14.0348 35.3504 13.9605L35.4337 13.8615C35.323 13.8351 35.2144 13.8006 35.1088 13.7584C35.1088 13.7584 35.2004 13.6141 35.2338 13.5728C35.3056 13.4679 35.407 13.3862 35.5253 13.3378L35.5669 13.2553C35.6361 13.103 35.667 12.9364 35.6569 12.7697C35.6467 12.6031 35.5958 12.4413 35.5086 12.2984C35.4328 12.208 35.3775 12.1025 35.3462 11.9891C34.9864 12.0464 34.6413 12.1724 34.3301 12.3603C34.2082 12.4229 34.0669 12.4376 33.9345 12.4016H33.8929C33.8706 12.3938 33.8513 12.3792 33.8379 12.3599C33.8244 12.3407 33.8174 12.3177 33.8179 12.2943C33.4681 12.2943 33.1225 12.2943 32.7768 12.3314C32.7768 12.4387 32.8185 12.616 32.8393 12.7439C32.8453 12.9364 32.8747 13.1275 32.9268 13.313L32.9684 13.4202C32.9994 13.4668 33.0176 13.5206 33.0212 13.5763C33.0249 13.632 33.0139 13.6876 32.9892 13.7378V13.7997C33.0225 14.0018 32.7643 14.0554 32.6103 14.0512C32.4796 14.0343 32.356 13.9831 32.2521 13.9028L32.2855 13.8327C32.2507 13.8267 32.217 13.8155 32.1855 13.7997C32.1293 13.7718 32.075 13.7401 32.0231 13.7048C32.0231 13.7048 32.0439 13.6058 32.0564 13.5646C32.0858 13.4829 32.1279 13.4064 32.1813 13.3378V12.9253L32.1355 12.8635L32.0939 12.8057C32.0037 12.9902 31.9663 13.1956 31.9856 13.3996V13.4739C32.004 13.533 32.0031 13.5963 31.9829 13.6549C31.9627 13.7134 31.9243 13.7641 31.8732 13.7997L31.9232 14.0265L31.8066 14.1296C31.71 14.1986 31.5967 14.241 31.4782 14.2526C31.3597 14.2642 31.2403 14.2445 31.132 14.1956C31.1298 14.1654 31.1298 14.1351 31.132 14.1049C31.1301 14.0884 31.1301 14.0718 31.132 14.0554C31.0389 14.0398 30.947 14.0177 30.8571 13.9894C30.8571 13.9894 30.8863 13.8533 30.9071 13.7955C30.9593 13.673 31.0342 13.5611 31.1278 13.4656L31.1653 13.4244C31.1708 13.3418 31.1862 13.2601 31.2111 13.181C31.3193 12.8676 31.0945 12.9006 31.1278 12.4964C30.9362 12.3603 30.6073 12.2201 30.5073 12.018C30.4719 11.9561 30.43 11.898 30.3824 11.8448L30.3574 11.8077C30.2491 11.7293 30.2283 11.7582 30.2075 11.6056V11.5272C30.1768 11.4124 30.1214 11.3054 30.0451 11.2138C29.6786 10.9333 29.4912 11.2426 29.1747 11.0983L29.1289 11.0735C29.094 11.0407 29.0511 11.0174 29.0044 11.0058C28.9577 10.9943 28.9088 10.9949 28.8624 11.0076L28.8124 11.0282C28.7133 11.0726 28.6015 11.0812 28.4965 11.0526C28.3916 11.024 28.3 10.9599 28.2378 10.8715C28.1362 10.8354 28.0516 10.7634 28.0004 10.6694C27.9625 10.6043 27.9472 10.5286 27.957 10.4541C27.9668 10.3796 28.0011 10.3103 28.0545 10.257L28.0962 10.2198C28.2295 10.092 28.167 9.84865 28.4168 9.62594C28.5959 9.46098 28.5043 9.34961 28.675 9.18052C28.4912 9.08191 28.3286 8.94885 28.1961 8.78872L28.3336 8.61963C28.3997 8.65744 28.4678 8.69185 28.5376 8.72273C28.655 8.78463 28.7888 8.80911 28.9207 8.79284L28.9832 8.77222C29.0326 8.7488 29.0867 8.73664 29.1414 8.73664C29.1962 8.73664 29.2503 8.7488 29.2997 8.77222L29.3372 8.79697L29.3913 8.83408C29.4954 8.89182 29.5787 8.72685 29.8369 8.83408C29.8575 8.84522 29.8801 8.85222 29.9035 8.8547C29.9951 8.8547 30.3199 8.79284 30.5864 8.79284C30.853 8.79284 31.0737 8.86296 31.3901 8.87946C31.7066 8.89596 31.8399 8.87946 32.1272 8.87946C32.6811 8.87946 32.9934 8.97019 33.5472 8.96606C34.3551 8.96606 34.7965 8.74335 35.6294 8.75985C36.1832 8.75985 37.0577 8.70211 37.3201 9.25064C37.4079 9.31353 37.4778 9.39785 37.5231 9.4954C37.5683 9.59295 37.5873 9.70044 37.5783 9.80741C37.609 10.144 37.5175 10.4803 37.3201 10.756C37.0327 11.1395 36.7537 11.6427 37.0119 12.0964C37.1576 12.3761 37.1932 12.6994 37.1119 13.0037C37.1073 13.1967 37.1184 13.3898 37.1452 13.5811C37.1418 13.603 37.1418 13.6252 37.1452 13.6471L37.1702 13.7172C37.2118 13.8368 37.2035 13.9069 37.0702 13.9564" fill="black"/>
<path fill-rule="evenodd" clip-rule="evenodd" d="M35.7334 13.5026L35.621 13.5274C35.5669 13.5514 35.5187 13.5865 35.4794 13.6305C35.7418 13.6923 35.7876 13.713 35.7334 13.5026ZM36.6371 13.6882L36.3747 13.8202C36.34 13.8411 36.3078 13.866 36.279 13.8944C36.3066 13.909 36.336 13.9201 36.3664 13.9274C36.4228 13.9395 36.4814 13.9358 36.5358 13.9169C36.5902 13.8979 36.6382 13.8645 36.6746 13.8202L36.6371 13.6882ZM36.6371 10.5909C36.8352 10.4499 36.9988 10.2667 37.116 10.0547C37.1187 10.0397 37.1187 10.0244 37.116 10.0094C37.1993 9.67945 37.1618 9.27939 36.8994 9.15154C36.4838 9.00284 36.04 8.94789 35.6002 8.9907C34.7965 8.97008 34.3509 9.19279 33.5472 9.19691C32.9892 9.19691 32.6769 9.11443 32.1188 9.10618C31.8273 9.10618 31.6649 9.13092 31.3734 9.10618C31.0819 9.08143 30.8945 9.01957 30.5822 9.01957C30.2699 9.01957 29.9867 9.08556 29.8993 9.08556C29.8118 9.08556 29.7244 8.98245 29.587 9.04019C29.5432 9.06261 29.4946 9.07431 29.4454 9.07431C29.3961 9.07431 29.3475 9.06261 29.3038 9.04019L29.2621 9.01544L29.208 8.9742C29.1847 8.9629 29.159 8.95703 29.1331 8.95703C29.1071 8.95703 29.0814 8.9629 29.0581 8.9742L28.9873 9.00307L28.8915 9.02369L29.1247 9.12679C28.8665 9.29589 28.8207 9.27114 28.7333 9.53922C28.6667 9.74955 28.4793 9.78668 28.421 10.0135C28.3938 10.1469 28.3337 10.2716 28.2461 10.3764L28.2044 10.4136C28.092 10.5208 28.2794 10.6651 28.4085 10.6404C28.4664 10.6291 28.5234 10.614 28.5792 10.595L28.625 10.5744C28.6945 10.5501 28.769 10.5434 28.8417 10.555C28.9144 10.5665 28.9831 10.5959 29.0414 10.6404L29.0914 10.6693C29.3538 10.7889 29.562 10.4259 30.0992 10.8714C30.282 11.0212 30.4118 11.2249 30.4698 11.4529V11.5354C30.5139 11.5697 30.5543 11.6084 30.5905 11.6508C30.7779 11.8117 30.6905 11.9024 30.9112 12.0303C31.1319 12.1581 31.4193 12.3066 31.4193 12.3066C31.336 12.8592 31.5109 12.6489 31.5192 12.9747C31.519 13.0353 31.5077 13.0954 31.4859 13.1521L31.4651 13.2139C31.4425 13.3045 31.4285 13.3971 31.4234 13.4903C31.3248 13.5776 31.2417 13.6808 31.1777 13.7954C31.2377 13.8144 31.3019 13.8164 31.363 13.8011C31.4241 13.7857 31.4797 13.7538 31.5234 13.7088L31.4567 13.4779C31.5317 13.4284 31.6483 13.3748 31.6191 13.2675L31.5941 13.1892C31.5067 12.8221 31.8273 12.2117 31.9814 11.8983C32.0585 12.225 32.2 12.5333 32.3978 12.8056L32.4353 13.3212L32.3271 13.2717L32.4187 13.3954L32.3354 13.4325C32.3212 13.4766 32.3031 13.5194 32.2812 13.5604C32.3282 13.5867 32.3813 13.6006 32.4353 13.6006C32.4893 13.6006 32.5424 13.5867 32.5894 13.5604L32.5561 13.4572L32.5894 13.3954C32.5924 13.379 32.5924 13.3623 32.5894 13.3459C32.5808 13.3076 32.5682 13.2703 32.5519 13.2345L32.5061 13.1232C32.4499 12.9241 32.4164 12.7193 32.4062 12.5128C32.3812 12.3148 32.3104 11.8942 32.3104 11.8942C32.3104 11.8942 32.8434 11.8488 33.1099 11.8406C33.3765 11.8323 34.1094 11.8406 34.1094 11.8406L33.9303 11.9602C34.1135 11.9107 34.3925 11.7209 34.6341 11.6426C34.9059 11.5654 35.1849 11.5156 35.4669 11.4941C35.4571 11.7187 35.5182 11.9407 35.6418 12.1292C35.7618 12.3307 35.8279 12.5592 35.8337 12.7931C35.8395 13.0269 35.7849 13.2584 35.6751 13.4655H35.8126C35.8883 13.139 36.0015 12.8221 36.1499 12.5211C36.1398 12.3208 36.1189 12.1211 36.0874 11.923L36.2998 11.8653C36.2998 11.8653 36.3664 12.0179 36.4372 12.22C36.6074 12.644 36.6592 13.1056 36.5871 13.5562L36.6454 13.6222L36.7412 13.6016H36.7787L36.7537 13.5232C36.6946 13.293 36.6749 13.0547 36.6954 12.818C36.775 12.5434 36.7483 12.2492 36.6204 11.9931C36.5269 11.8058 36.485 11.5973 36.4989 11.3887C36.5128 11.1802 36.582 10.9789 36.6996 10.8054C36.5656 10.912 36.4112 10.9905 36.2457 11.0363C36.0023 11.0523 35.7582 11.0204 35.5274 10.9426C35.2965 10.8647 35.0835 10.7424 34.9006 10.5827H34.8506H34.8131H34.759C34.53 10.661 34.3967 10.4878 34.3759 10.2857C34.3759 10.1826 34.3759 10.1785 34.3176 10.1331L34.0844 9.97639L34.4633 9.94753C34.669 9.95323 34.8657 10.0323 35.0172 10.1702C35.0172 10.1702 35.7959 10.727 36.2373 10.5827C36.5322 10.454 36.7673 10.2198 36.8953 9.9269L36.9244 9.87328C36.9281 9.88101 36.93 9.88948 36.93 9.89804C36.93 9.9066 36.9281 9.91505 36.9244 9.92278L37.1118 9.86091C37.1262 9.89524 37.1262 9.93381 37.1118 9.96814L37.0785 10.0259C36.9708 10.2312 36.8302 10.4179 36.6621 10.5785L36.6371 10.5909ZM35.1504 10.4878C35.4569 10.7281 35.8433 10.8458 36.2332 10.8177C36.3295 10.7911 36.4209 10.7494 36.5038 10.694C36.3302 10.7752 36.1387 10.8114 35.9471 10.7991C35.7555 10.7868 35.5702 10.7265 35.4086 10.6239C35.3128 10.5785 35.2254 10.529 35.1504 10.4878ZM34.7798 10.3888C34.8432 10.3784 34.908 10.3784 34.9714 10.3888L34.9256 10.3558C34.9256 10.3558 34.8423 10.2981 34.7882 10.2692C34.7401 10.2337 34.6867 10.2059 34.6299 10.1867H34.5883V10.3022C34.5883 10.3723 34.6133 10.4672 34.709 10.4342L34.7798 10.3888Z" fill="#D7182A"/>
<path fill-rule="evenodd" clip-rule="evenodd" d="M15.2831 19.85H15.4163L15.5663 20.4687L15.6912 20.6007L15.7328 20.6502C15.7629 20.686 15.7895 20.7247 15.812 20.7656L15.8911 20.8481L15.9244 20.8935C16.1659 21.1946 16.0868 21.4049 15.8161 21.6276C15.762 22.0813 15.5496 22.2009 15.104 22.1514C14.9825 22.286 14.8177 22.3748 14.6376 22.403C14.4572 22.3758 14.2921 22.2868 14.1712 22.1514C13.8922 22.2132 13.659 22.2133 13.5299 21.9617C13.3384 21.9081 13.2343 21.739 13.1968 21.442L13.1302 21.3966C12.8262 21.1781 12.9136 20.8357 13.1302 20.5718L13.4258 20.2501L13.5924 19.5696L14.0421 19.549C14.0855 19.5013 14.1385 19.4632 14.1976 19.4371C14.2568 19.411 14.3209 19.3975 14.3857 19.3975C14.4505 19.3975 14.5145 19.411 14.5737 19.4371C14.6329 19.4632 14.6859 19.5013 14.7292 19.549L15.204 19.582L15.2831 19.85Z" fill="black"/>
<path fill-rule="evenodd" clip-rule="evenodd" d="M14.612 19.7468C14.5852 19.7243 14.5559 19.7049 14.5246 19.6891C14.4994 19.6686 14.4693 19.6548 14.4373 19.6491C14.4052 19.6433 14.3722 19.6457 14.3413 19.6561L14.1373 19.7963C14.079 19.8458 14.079 19.9201 14.0332 19.9613C13.9874 20.0025 13.8375 19.9242 13.8708 19.8087H13.7833L13.6459 20.382L13.3086 20.7449C13.1629 20.9016 13.0629 21.0913 13.2711 21.2316L13.5834 20.7738L13.7667 20.8934L13.4169 21.4089C13.4544 21.7512 13.546 21.8213 13.8833 21.7388L14.0082 20.9594L14.2289 20.9965L14.0998 21.7966C14.1312 21.8524 14.1771 21.8989 14.2328 21.9313C14.2884 21.9637 14.3518 21.9808 14.4163 21.9808C14.4808 21.9808 14.5442 21.9637 14.5998 21.9313C14.6555 21.8989 14.7014 21.8524 14.7328 21.7966L14.5621 20.9717L14.7786 20.9264L14.9493 21.7265C15.27 21.7512 15.3658 21.6976 15.4074 21.38L15.0285 20.8851L15.2034 20.7531L15.5365 21.1903C15.6989 21.0377 15.6947 20.914 15.5365 20.7449L15.195 20.3696L15.0534 19.7922H14.9535L14.7578 19.8994C14.7415 19.8451 14.7079 19.7973 14.662 19.7633L14.612 19.7468Z" fill="white"/>
<path fill-rule="evenodd" clip-rule="evenodd" d="M8.52836 13.0368C8.55676 13.0909 8.56759 13.1525 8.55939 13.213C8.55119 13.2735 8.52436 13.3301 8.48254 13.3749L8.52836 13.8245L8.24935 13.8657H7.74547H7.54975L7.27074 13.8286L7.30406 13.6801L7.02088 13.643L7.1 13.1893C7.06886 13.1552 7.04654 13.1141 7.03493 13.0696C7.02333 13.0251 7.02279 12.9784 7.03337 12.9336V12.8883C6.95509 12.785 6.9075 12.6622 6.89596 12.5336C6.89504 12.4761 6.91253 12.4198 6.94592 12.3728C6.87513 11.8985 6.7627 10.9664 6.7627 10.9664L7.02922 11.0241L7.22077 10.8921L7.36652 10.9623L7.52477 10.8715L7.68717 10.9499L7.8579 10.8633L8.02864 10.9623L8.19104 10.8963L8.38261 11.0282L8.66161 10.9664L8.61164 11.2592L8.849 11.2097L8.61997 12.5418V12.5831C8.64582 12.6522 8.6525 12.7269 8.63931 12.7994C8.62613 12.872 8.59357 12.9397 8.54501 12.9955L8.52836 13.0368Z" fill="black"/>
<path fill-rule="evenodd" clip-rule="evenodd" d="M7.22044 12.7112H8.16157L8.19488 12.6658C8.23077 12.6229 8.25042 12.5689 8.25042 12.5132C8.25042 12.4575 8.23077 12.4035 8.19488 12.3606L8.38644 11.2388H8.33231L8.15741 11.1192L8.00333 11.1811L7.84509 11.0903L7.68269 11.1769L7.52444 11.0986L7.3662 11.1893L7.22877 11.1233L7.06637 11.2388H7.00391C7.03306 11.4904 7.09968 11.9977 7.15798 12.3276C7.1788 12.439 7.10384 12.4678 7.10384 12.5338C7.10603 12.5695 7.11612 12.6042 7.13339 12.6356C7.15066 12.667 7.1747 12.6942 7.20378 12.7153L7.22044 12.7112ZM8.05747 13.2597H7.29124L7.25792 13.4618H7.32872H7.5161H7.99916H8.08245L8.05747 13.2597ZM7.22461 12.938C7.22461 12.9875 7.19963 13.0081 7.22461 13.0452H8.08245C8.09793 13.0316 8.10897 13.0138 8.11416 12.9939C8.11935 12.9741 8.11847 12.9532 8.1116 12.9339H7.21628L7.22461 12.938Z" fill="#008D5C"/>
<path fill-rule="evenodd" clip-rule="evenodd" d="M9.14486 19.8498H9.27812L9.4322 20.4684L9.55713 20.6004C9.57131 20.6156 9.58387 20.6322 9.59461 20.6499C9.62611 20.6847 9.65272 20.7236 9.67373 20.7654L9.75284 20.8479L9.79033 20.8932C10.0277 21.1943 9.95274 21.4046 9.68206 21.6274C9.62792 22.081 9.41554 22.2006 8.9658 22.1511C8.84424 22.2857 8.67949 22.3746 8.4994 22.4027C8.32012 22.3757 8.15632 22.2865 8.03716 22.1511C7.75815 22.213 7.5208 22.213 7.3917 21.9614C7.20015 21.9078 7.09604 21.7387 7.06272 21.4418L6.99609 21.3964C6.68793 21.1778 6.77955 20.8355 6.99609 20.5716L7.29176 20.2499L7.45833 19.5694L7.90807 19.5487C7.95179 19.501 8.00513 19.4628 8.06466 19.4366C8.12419 19.4105 8.18859 19.397 8.25371 19.397C8.31883 19.397 8.38322 19.4105 8.44275 19.4366C8.50228 19.4628 8.55562 19.501 8.59934 19.5487L9.07408 19.5817L9.14486 19.8498Z" fill="black"/>
<path fill-rule="evenodd" clip-rule="evenodd" d="M8.47433 19.7468C8.44893 19.7244 8.42097 19.7051 8.39104 19.6891C8.36585 19.6686 8.33581 19.6548 8.30374 19.6491C8.27168 19.6433 8.23866 19.6457 8.20781 19.6561L8.00376 19.7963C7.94546 19.8458 7.9413 19.9201 7.89966 19.9613C7.85801 20.0025 7.69977 19.9242 7.73309 19.8087H7.6498L7.50821 20.382L7.17091 20.7449C7.02516 20.9016 6.92522 21.0913 7.13343 21.2316L7.44575 20.7738L7.63314 20.8934L7.27918 21.4089C7.32083 21.7512 7.40826 21.8213 7.74974 21.7388L7.87467 20.9594L8.09538 20.9965L7.96629 21.7966C8.04877 21.8915 8.15961 21.9579 8.28276 21.9863C8.40417 21.9584 8.5144 21.8952 8.59925 21.8048L8.42851 20.98L8.64507 20.9346L8.81163 21.7347C9.13645 21.7595 9.22806 21.7058 9.26971 21.3883L8.89076 20.8934L9.08231 20.7696L9.41545 21.2068C9.57369 21.0542 9.57369 20.9305 9.41545 20.7614L9.06982 20.3861L8.92823 19.8087H8.82829L8.63673 19.9159C8.61872 19.8624 8.58546 19.8151 8.54096 19.7798L8.47433 19.7468Z" fill="white"/>
<path fill-rule="evenodd" clip-rule="evenodd" d="M19.2933 16.6456H19.4266L19.5806 17.2642L19.7014 17.4003L19.743 17.4457C19.7727 17.4819 19.7991 17.5205 19.8222 17.5612L19.9013 17.6478L19.9388 17.6931C20.1761 17.9901 20.097 18.2045 19.8263 18.4273C19.7764 18.8809 19.564 19.0005 19.1142 18.9469C19.0641 19.0244 18.9951 19.0881 18.9136 19.1323C18.8321 19.1765 18.7407 19.1996 18.6478 19.1996C18.5549 19.1996 18.4635 19.1765 18.382 19.1323C18.3005 19.0881 18.2315 19.0244 18.1814 18.9469C17.9066 19.0088 17.6692 19.0088 17.5401 18.7531C17.3486 18.7036 17.2445 18.5345 17.2112 18.2334L17.1445 18.1922C16.8364 17.9736 16.928 17.6313 17.1445 17.3673L17.4402 17.0415L17.6068 16.3651L18.0565 16.3445C18.0995 16.2962 18.1524 16.2576 18.2116 16.2311C18.2708 16.2046 18.3351 16.1909 18.4001 16.1909C18.4651 16.1909 18.5293 16.2046 18.5885 16.2311C18.6478 16.2576 18.7006 16.2962 18.7436 16.3445L19.2183 16.3775L19.2933 16.6456Z" fill="black"/>
<path fill-rule="evenodd" clip-rule="evenodd" d="M18.6228 16.5218L18.5395 16.4641C18.5136 16.4449 18.4836 16.4319 18.4518 16.4262C18.42 16.4205 18.3873 16.4221 18.3562 16.4311L18.148 16.5713C18.0939 16.6208 18.0897 16.6992 18.0481 16.7363C18.0064 16.7734 17.8482 16.7033 17.8815 16.5837H17.7982L17.6566 17.157L17.3193 17.524C17.1736 17.6807 17.0737 17.8663 17.2819 18.0065L17.5942 17.5488L17.7774 17.6725L17.4276 18.188C17.4651 18.5303 17.5567 18.6004 17.894 18.5138L18.0231 17.7385L18.2396 17.7715L18.1106 18.5757C18.1947 18.6707 18.3069 18.7371 18.4312 18.7654C18.5532 18.7367 18.6636 18.6719 18.7477 18.5798L18.5728 17.755L18.7935 17.7096L18.9601 18.5138C19.2849 18.5386 19.3765 18.485 19.4181 18.1674L19.0392 17.6684L19.2141 17.5364L19.5514 17.9777C19.7096 17.821 19.7096 17.7014 19.5514 17.5281L19.2099 17.1528L19.0683 16.5796H18.9684L18.7768 16.6868C18.7573 16.634 18.7243 16.5871 18.6811 16.5507L18.6228 16.5218Z" fill="white"/>
<path fill-rule="evenodd" clip-rule="evenodd" d="M39.0063 1.2911L39.3644 1.80251L40.4055 1.61279L40.3472 1.91799L40.597 1.8685L40.4138 2.81707L41.1051 3.28724L41.0301 3.34085L41.2841 3.50995L40.4013 4.11209L40.597 5.15139L39.5435 4.95756L38.9396 5.83189L38.7647 5.58444L38.7148 5.65868L38.2442 4.97405L37.2781 5.15552L37.3322 4.90394L37.0241 4.96168L37.2156 3.93062L36.6951 3.58006L36.3203 3.28724L37.2198 2.67685L37.0241 1.61279L38.0943 1.81076L38.7148 0.919922L38.9813 1.30348L39.0063 1.2911Z" fill="black"/>
<path fill-rule="evenodd" clip-rule="evenodd" d="M38.2742 1.94249L38.6657 2.87456H38.7823L39.1612 1.94249L38.7157 1.30322L38.2742 1.94249ZM38.4616 2.95705L38.0702 2.02497L37.304 1.88474L37.4455 2.6436L38.3867 3.03128C38.4073 3.00259 38.4327 2.9775 38.4616 2.95705ZM38.2909 3.22925L37.3581 2.8457L36.7168 3.28698L37.3581 3.72416L38.2867 3.34473V3.30761C38.2846 3.28154 38.2846 3.25532 38.2867 3.22925H38.2909ZM38.3575 3.55094L37.4414 3.92625L37.2998 4.68511L38.066 4.54488L38.4491 3.64992C38.4144 3.62099 38.3836 3.58772 38.3575 3.55094ZM38.6532 3.73654L38.2701 4.63149L38.7115 5.26663L39.1571 4.62736L38.7948 3.73654H38.649H38.6532ZM38.9905 3.64992L39.357 4.54488L40.1232 4.68511L39.9816 3.92625L39.0863 3.54681C39.0611 3.58677 39.0286 3.62174 38.9905 3.64992ZM39.1571 3.3406L40.0649 3.72416L40.7104 3.28698L40.0649 2.8457L39.1529 3.22512C39.1552 3.25257 39.1552 3.28016 39.1529 3.30761L39.1571 3.3406ZM39.0655 3.03541L39.9899 2.65186L40.1315 1.893L39.3653 2.03322L38.9863 2.96529C39.0166 2.98402 39.0433 3.00774 39.0655 3.03541ZM38.7282 3.03541C38.6736 3.03459 38.6201 3.04985 38.5743 3.07926C38.5286 3.10867 38.4927 3.15089 38.4713 3.20055C38.4498 3.25021 38.4438 3.30507 38.4539 3.35814C38.4641 3.41122 38.4899 3.4601 38.5282 3.49858C38.5664 3.53706 38.6154 3.5634 38.6688 3.57424C38.7222 3.58508 38.7777 3.57994 38.8282 3.55946C38.8786 3.53899 38.9218 3.5041 38.9522 3.45925C38.9826 3.4144 38.9988 3.36162 38.9988 3.30761C38.9994 3.27206 38.9928 3.23675 38.9794 3.20375C38.9661 3.17075 38.9462 3.14071 38.921 3.11538C38.8958 3.09005 38.8658 3.06993 38.8327 3.0562C38.7996 3.04247 38.7641 3.03541 38.7282 3.03541Z" fill="white"/>
<path fill-rule="evenodd" clip-rule="evenodd" d="M19.2933 11.8326H19.4266L19.5806 12.4554L19.7014 12.5874L19.743 12.6369C19.7735 12.6709 19.8001 12.7083 19.8222 12.7482L19.9013 12.8348L19.9388 12.8802C20.1761 13.1813 20.097 13.3916 19.8263 13.6143C19.7764 14.068 19.564 14.1876 19.1142 14.1381C18.9927 14.2727 18.8279 14.3615 18.6478 14.3897C18.4668 14.3643 18.3012 14.2749 18.1814 14.1381C17.9066 14.2 17.6692 14.2041 17.5401 13.9484C17.3486 13.8948 17.2445 13.7257 17.2112 13.4287L17.1445 13.3833C16.8364 13.1689 16.928 12.8225 17.1445 12.5791L17.4402 12.2574L17.6068 11.5769L18.0565 11.5563C18.0999 11.5086 18.1528 11.4705 18.212 11.4444C18.2712 11.4183 18.3353 11.4048 18.4001 11.4048C18.4649 11.4048 18.5289 11.4183 18.5881 11.4444C18.6473 11.4705 18.7003 11.5086 18.7436 11.5563L19.2183 11.5852L19.2933 11.8326Z" fill="black"/>
<path fill-rule="evenodd" clip-rule="evenodd" d="M18.6228 11.7334C18.5966 11.7119 18.5688 11.6926 18.5395 11.6756C18.514 11.6557 18.4841 11.642 18.4523 11.6355C18.4205 11.6291 18.3876 11.6301 18.3562 11.6385L18.148 11.7787C18.0939 11.8282 18.0897 11.9066 18.0481 11.9478C18.0064 11.9891 17.8482 11.9107 17.8815 11.7952H17.7982L17.6566 12.3685L17.3193 12.7314C17.1736 12.8881 17.0737 13.0779 17.2819 13.2181L17.5942 12.7603L17.7774 12.8799L17.4276 13.3954C17.4651 13.7377 17.5567 13.8079 17.894 13.7254L18.0231 12.9459L18.2396 12.983L18.1106 13.7831C18.1947 13.8781 18.3069 13.9445 18.4312 13.9728C18.5523 13.944 18.6622 13.881 18.7477 13.7913L18.5728 12.9665L18.7935 12.9211L18.9601 13.7212C19.2849 13.746 19.3765 13.6965 19.4181 13.3748L19.0392 12.8799L19.2141 12.7479L19.5514 13.1851C19.7096 13.0325 19.7096 12.9088 19.5514 12.7397L19.2099 12.3644L19.0683 11.787H18.9684L18.7768 11.8942C18.7573 11.8414 18.7243 11.7945 18.6811 11.7581L18.6228 11.7334Z" fill="white"/>
<path fill-rule="evenodd" clip-rule="evenodd" d="M19.2933 7.04428H19.4266L19.5806 7.66291L19.7014 7.79901L19.743 7.84438C19.7727 7.88059 19.7991 7.91922 19.8222 7.95986L19.9013 8.04235L19.9388 8.08771C20.1761 8.38878 20.097 8.59911 19.8263 8.82182C19.7764 9.27549 19.564 9.39509 19.1142 9.3456C18.994 9.48184 18.8286 9.57107 18.6478 9.59718C18.4668 9.57178 18.3012 9.48242 18.1814 9.3456C17.9066 9.40746 17.6692 9.41159 17.5401 9.15588C17.3486 9.10227 17.2445 8.9373 17.2112 8.63623L17.1445 8.59499C16.8364 8.37641 16.928 8.02997 17.1445 7.79076L17.4402 7.46494L17.6068 6.78857L18.0565 6.76383C18.0999 6.71614 18.1528 6.678 18.212 6.6519C18.2712 6.6258 18.3353 6.6123 18.4001 6.6123C18.4649 6.6123 18.5289 6.6258 18.5881 6.6519C18.6473 6.678 18.7003 6.71614 18.7436 6.76383L19.2183 6.79269L19.2933 7.04428Z" fill="black"/>
<path fill-rule="evenodd" clip-rule="evenodd" d="M18.6228 6.94115L18.5395 6.8834C18.5141 6.86326 18.4841 6.84971 18.4521 6.84395C18.4201 6.83819 18.3871 6.84041 18.3562 6.85042L18.148 6.99064C18.0939 7.04013 18.0897 7.11436 18.0481 7.15561C18.0064 7.19685 17.8482 7.11849 17.8815 7.00301H17.7982L17.6566 7.57629L17.3193 7.93922C17.1736 8.09594 17.0737 8.28566 17.2819 8.42588L17.5942 7.96808L17.7774 8.09182L17.4276 8.60735C17.4651 8.94554 17.5567 9.01976 17.894 8.93315L18.0231 8.15781L18.2396 8.1908L18.1106 8.99503C18.1961 9.08745 18.3079 9.15213 18.4312 9.18061C18.5523 9.15183 18.6622 9.08877 18.7477 8.99914L18.5728 8.1743L18.7935 8.12893L18.9601 8.92904C19.2849 8.95791 19.3765 8.90429 19.4181 8.58672L19.0392 8.08769L19.2141 7.95571L19.5514 8.39288C19.7096 8.24028 19.7096 8.12068 19.5514 7.94747L19.2099 7.57216L19.0683 6.99888H18.9684L18.7768 7.11025C18.7573 7.05745 18.7243 7.01056 18.6811 6.97414L18.6228 6.94115Z" fill="white"/>
<path fill-rule="evenodd" clip-rule="evenodd" d="M19.2933 2.2517H19.4266L19.5806 2.87033L19.7014 3.00643L19.743 3.0518C19.7727 3.08801 19.7991 3.12664 19.8222 3.16728L19.9013 3.24976L19.9388 3.29513C20.1761 3.5962 20.097 3.81066 19.8263 4.03337C19.7764 4.48292 19.564 4.60663 19.1142 4.55302C18.994 4.68926 18.8286 4.77849 18.6478 4.8046C18.4668 4.7792 18.3012 4.68985 18.1814 4.55302C17.9066 4.61488 17.6692 4.61901 17.5401 4.36331C17.3486 4.30969 17.2445 4.14472 17.2112 3.84365L17.1445 3.8024C16.8364 3.58382 16.928 3.24151 17.1445 2.99818L17.4402 2.67236L17.6068 1.996L18.0565 1.97537C18.0995 1.92709 18.1524 1.88843 18.2116 1.86195C18.2708 1.83547 18.3351 1.82178 18.4001 1.82178C18.4651 1.82178 18.5293 1.83547 18.5885 1.86195C18.6478 1.88843 18.7006 1.92709 18.7436 1.97537L19.2183 2.00837L19.2933 2.2517Z" fill="black"/>
<path fill-rule="evenodd" clip-rule="evenodd" d="M18.6228 2.14867L18.5395 2.09092C18.5141 2.07078 18.4841 2.05723 18.4521 2.05147C18.4201 2.04571 18.3871 2.04793 18.3562 2.05794L18.148 2.19816C18.0939 2.24765 18.0897 2.32601 18.0481 2.36313C18.0065 2.40024 17.8482 2.32601 17.8815 2.21053H17.7982L17.6567 2.78381L17.3193 3.15086C17.1736 3.30758 17.0737 3.49318 17.2819 3.6334L17.5942 3.1756L17.7774 3.29934L17.411 3.81898C17.4484 4.1613 17.54 4.23141 17.8774 4.1448L18.0064 3.36944L18.223 3.40244L18.0939 4.20666C18.178 4.30166 18.2902 4.36802 18.4146 4.39637C18.5366 4.36761 18.6469 4.30291 18.731 4.21079L18.5561 3.38594L18.7768 3.34057L18.9434 4.14067C19.2682 4.16954 19.3598 4.11593 19.4015 3.79837L19.0225 3.29934L19.1974 3.16736L19.5347 3.60453C19.693 3.45193 19.693 3.33232 19.5347 3.1591L19.1933 2.78381L19.0767 2.21053H18.9767L18.7852 2.31777C18.7656 2.26497 18.7326 2.21808 18.6894 2.18166L18.6228 2.14867Z" fill="white"/>
<path fill-rule="evenodd" clip-rule="evenodd" d="M27.4926 1.2911L27.8466 1.80251L28.8918 1.61279L28.8335 1.91799L29.0834 1.8685L28.896 2.81707L29.5914 3.28724L29.5123 3.34085L29.7663 3.50995L28.8835 4.11209L29.0792 5.15139L28.0298 4.95756L27.4218 5.83189L27.2511 5.58444L27.1969 5.65868L26.7264 4.97405L25.7603 5.15552L25.8186 4.90394L25.5062 4.96168L25.702 3.93062L25.1773 3.58006L24.8066 3.28724L25.7061 2.67685L25.5062 1.61279L26.5806 1.81076L27.1969 0.919922L27.4676 1.30348L27.4926 1.2911Z" fill="black"/>
<path fill-rule="evenodd" clip-rule="evenodd" d="M26.7598 1.94249L27.1513 2.87456H27.2679L27.6427 1.94249L27.2013 1.30322L26.7598 1.94249ZM26.9472 2.95705L26.5516 2.02497L25.7854 1.88474L25.927 2.6436L26.8681 3.03128C26.8902 3.00245 26.917 2.97738 26.9472 2.95705ZM26.7765 3.22925L25.8437 2.8457L25.1982 3.28698L25.8437 3.72416L26.7723 3.34473V3.30761C26.7701 3.28154 26.7701 3.25532 26.7723 3.22925H26.7765ZM26.8431 3.55094L25.9228 3.92625L25.7812 4.68511L26.5516 4.54488L26.9347 3.64992C26.8989 3.6221 26.868 3.58867 26.8431 3.55094ZM27.1388 3.73654L26.7557 4.63149L27.1971 5.26663L27.6385 4.62736L27.2762 3.73654H27.1388ZM27.4803 3.64992L27.8425 4.54488L28.6129 4.68511L28.4672 3.92625L27.5719 3.54681C27.547 3.58571 27.516 3.6205 27.4803 3.64992ZM27.6468 3.3406L28.5547 3.72416L29.1959 3.28698L28.5505 2.8457L27.6385 3.22512C27.6408 3.25257 27.6408 3.28016 27.6385 3.30761L27.6468 3.3406ZM27.5427 3.02717L28.4672 2.6436L28.6129 1.88474L27.8425 2.02497L27.4678 2.95705C27.4967 2.97596 27.522 2.99968 27.5427 3.02717ZM27.2054 3.02717C27.1511 3.02717 27.0979 3.04312 27.0527 3.07303C27.0075 3.10294 26.9723 3.14545 26.9515 3.19519C26.9307 3.24493 26.9253 3.29967 26.9359 3.35247C26.9465 3.40527 26.9726 3.45377 27.0111 3.49184C27.0495 3.5299 27.0985 3.55583 27.1518 3.56633C27.2051 3.57684 27.2604 3.57144 27.3106 3.55084C27.3608 3.53024 27.4037 3.49535 27.4339 3.45059C27.4641 3.40583 27.4803 3.3532 27.4803 3.29937C27.4803 3.22718 27.4513 3.15793 27.3998 3.10689C27.3482 3.05584 27.2783 3.02717 27.2054 3.02717Z" fill="white"/>
<path fill-rule="evenodd" clip-rule="evenodd" d="M5.13412 16.6456H5.26738L5.42146 17.2642L5.54222 17.4003L5.58387 17.4457C5.61349 17.4819 5.63996 17.5205 5.66299 17.5612L5.74211 17.6478L5.77959 17.6931C6.01695 17.9901 5.93783 18.2046 5.66715 18.4273C5.61718 18.8809 5.4048 19.0005 4.95506 18.9469C4.90547 19.0244 4.8369 19.0883 4.75573 19.1325C4.67455 19.1767 4.5834 19.1999 4.49075 19.1999C4.39809 19.1999 4.30694 19.1767 4.22576 19.1325C4.14459 19.0883 4.07601 19.0244 4.02642 18.9469C3.74741 19.0088 3.51005 19.0088 3.38096 18.7531C3.1894 18.7036 3.08529 18.5345 3.05198 18.2334L2.98535 18.1922C2.67719 17.9736 2.76881 17.6313 2.98535 17.3673L3.28102 17.0415L3.44759 16.3651L3.89733 16.3445C3.94031 16.2962 3.99319 16.2576 4.05242 16.2311C4.11165 16.2046 4.1759 16.1909 4.24089 16.1909C4.30587 16.1909 4.37012 16.2046 4.42935 16.2311C4.48858 16.2576 4.54146 16.2962 4.58444 16.3445L5.05917 16.3775L5.13412 16.6456Z" fill="black"/>
<path fill-rule="evenodd" clip-rule="evenodd" d="M4.46456 16.5218L4.38127 16.4641C4.35541 16.4449 4.3254 16.4319 4.2936 16.4262C4.2618 16.4205 4.22908 16.4221 4.19804 16.4311L3.994 16.5713C3.93153 16.6208 3.93153 16.6992 3.88989 16.7363C3.84825 16.7734 3.69001 16.7033 3.72332 16.5837H3.64003L3.49845 17.157L3.16114 17.524C3.01539 17.6807 2.91545 17.8663 3.12367 18.0065L3.43599 17.5488L3.61922 17.6725L3.26942 18.188C3.3069 18.5303 3.39851 18.6004 3.73582 18.5138L3.86491 17.7385L4.08144 17.7715L3.95235 18.5757C4.03649 18.6707 4.14868 18.7371 4.27301 18.7654C4.39502 18.7367 4.50536 18.6719 4.58949 18.5798L4.4146 17.755L4.63113 17.7096L4.80187 18.5138C5.12668 18.5386 5.2183 18.485 5.25994 18.1674L4.88099 17.6684L5.06005 17.5364L5.38904 17.9777C5.55144 17.821 5.54728 17.7014 5.38904 17.5281L5.04339 17.1528L4.90181 16.5796H4.80187L4.60615 16.6868C4.58982 16.6324 4.55623 16.5847 4.51037 16.5507L4.46456 16.5218Z" fill="white"/>
<path fill-rule="evenodd" clip-rule="evenodd" d="M5.13412 11.8326H5.26738L5.42146 12.4554L5.54222 12.5874L5.58387 12.6369C5.61435 12.6709 5.64089 12.7083 5.66299 12.7482L5.74211 12.8348L5.77959 12.8802C6.01695 13.1813 5.93783 13.3916 5.66715 13.6143C5.61718 14.068 5.4048 14.1876 4.95506 14.1381C4.8335 14.2727 4.66875 14.3615 4.48866 14.3897C4.30877 14.3644 4.14439 14.2749 4.02642 14.1381C3.74741 14.2 3.51005 14.2041 3.38096 13.9484C3.1894 13.8948 3.08529 13.7257 3.05198 13.4287L2.98535 13.3833C2.67719 13.1689 2.76881 12.8225 2.98535 12.5791L3.28102 12.2574L3.44759 11.5769L3.89733 11.5563C3.94067 11.5086 3.99367 11.4705 4.05285 11.4444C4.11204 11.4183 4.1761 11.4048 4.24089 11.4048C4.30567 11.4048 4.36973 11.4183 4.42892 11.4444C4.4881 11.4705 4.5411 11.5086 4.58444 11.5563L5.05917 11.5852L5.13412 11.8326Z" fill="black"/>
<path fill-rule="evenodd" clip-rule="evenodd" d="M4.46456 11.7334C4.43843 11.7119 4.41057 11.6926 4.38127 11.6756C4.35577 11.6557 4.32592 11.642 4.29411 11.6355C4.26229 11.6291 4.22939 11.6301 4.19804 11.6385L3.994 11.7787C3.93153 11.8282 3.93153 11.9066 3.88989 11.9478C3.84825 11.9891 3.69001 11.9107 3.72332 11.7952H3.64003L3.49845 12.3685L3.16114 12.7314C3.01539 12.8881 2.91545 13.0779 3.12367 13.2181L3.43599 12.7603L3.61922 12.8799L3.26942 13.3954C3.3069 13.7377 3.39851 13.8079 3.73582 13.7254L3.86491 12.9459L4.08144 12.983L3.95235 13.7831C4.03649 13.8781 4.14868 13.9445 4.27301 13.9728C4.39405 13.944 4.50401 13.881 4.58949 13.7913L4.4146 12.9665L4.63113 12.9211L4.80187 13.7212C5.12668 13.746 5.2183 13.6965 5.25994 13.3748L4.88099 12.8799L5.06005 12.7479L5.38904 13.1851C5.55144 13.0325 5.54728 12.9088 5.38904 12.7397L5.04339 12.3644L4.90181 11.787H4.80187L4.60615 11.8942C4.58982 11.8398 4.55623 11.7921 4.51037 11.7581L4.46456 11.7334Z" fill="white"/>
<path fill-rule="evenodd" clip-rule="evenodd" d="M5.13412 7.04428H5.26738L5.42146 7.66291L5.54222 7.79901L5.58387 7.84438C5.61349 7.88059 5.63996 7.91922 5.66299 7.95986L5.74211 8.04235L5.77959 8.08771C6.01695 8.38878 5.93783 8.59911 5.66715 8.82182C5.61718 9.27549 5.4048 9.39509 4.95506 9.3456C4.83485 9.48184 4.66944 9.57107 4.48866 9.59718C4.30877 9.57192 4.14439 9.48244 4.02642 9.3456C3.74741 9.40746 3.51005 9.41159 3.38096 9.15588C3.1894 9.10227 3.08529 8.9373 3.05198 8.63623L2.98535 8.59499C2.67719 8.37641 2.76881 8.02997 2.98535 7.79076L3.28102 7.46494L3.44759 6.78857L3.89733 6.76383C3.94067 6.71614 3.99367 6.678 4.05285 6.6519C4.11204 6.6258 4.1761 6.6123 4.24089 6.6123C4.30567 6.6123 4.36973 6.6258 4.42892 6.6519C4.4881 6.678 4.5411 6.71614 4.58444 6.76383L5.05917 6.79269L5.13412 7.04428Z" fill="black"/>
<path fill-rule="evenodd" clip-rule="evenodd" d="M4.46456 6.94115L4.38127 6.8834C4.3559 6.86326 4.32587 6.84971 4.29388 6.84395C4.26189 6.83819 4.22895 6.84041 4.19804 6.85042L3.994 6.99064C3.93153 7.04013 3.93153 7.11436 3.88989 7.15561C3.84825 7.19685 3.69001 7.11849 3.72332 7.00301H3.64003L3.49845 7.57629L3.16114 7.93922C3.01539 8.09594 2.91545 8.28566 3.12367 8.42588L3.43599 7.96808L3.61922 8.09182L3.26942 8.60735C3.3069 8.94554 3.39851 9.01976 3.73582 8.93315L3.86491 8.15781L4.08144 8.1908L3.95235 8.99503C4.03793 9.08745 4.1497 9.15213 4.27301 9.18061C4.39405 9.15183 4.50401 9.08877 4.58949 8.99914L4.4146 8.1743L4.63113 8.12893L4.80187 8.92904C5.12668 8.95791 5.2183 8.90429 5.25994 8.58672L4.88099 8.08769L5.06005 7.95571L5.38904 8.39288C5.55144 8.24028 5.54728 8.12068 5.38904 7.94747L5.04339 7.57216L4.90181 6.99888H4.80187L4.60615 7.11025C4.58982 7.05586 4.55623 7.00813 4.51037 6.97414L4.46456 6.94115Z" fill="white"/>
<path fill-rule="evenodd" clip-rule="evenodd" d="M5.13412 2.2517H5.26738L5.42146 2.87033L5.54222 3.00643L5.58387 3.0518C5.61349 3.08801 5.63996 3.12664 5.66299 3.16728L5.74211 3.24976L5.77959 3.29513C6.01695 3.5962 5.93783 3.81066 5.66715 4.03337C5.61718 4.48292 5.4048 4.60663 4.95506 4.55302C4.83485 4.68926 4.66944 4.77849 4.48866 4.8046C4.30877 4.77934 4.14439 4.68987 4.02642 4.55302C3.74741 4.61488 3.51005 4.61901 3.38096 4.36331C3.1894 4.30969 3.08529 4.14472 3.05198 3.84365L2.98535 3.8024C2.67719 3.58382 2.76881 3.24151 2.98535 2.99818L3.28102 2.67236L3.44759 1.996L3.89733 1.97537C3.94031 1.92709 3.99319 1.88843 4.05242 1.86195C4.11165 1.83547 4.1759 1.82178 4.24089 1.82178C4.30587 1.82178 4.37012 1.83547 4.42935 1.86195C4.48858 1.88843 4.54146 1.92709 4.58444 1.97537L5.05917 2.00837L5.13412 2.2517Z" fill="black"/>
<path fill-rule="evenodd" clip-rule="evenodd" d="M4.46457 2.14867L4.38127 2.09092C4.3559 2.07078 4.32587 2.05723 4.29388 2.05147C4.26189 2.04571 4.22895 2.04793 4.19804 2.05794L3.994 2.19816C3.93153 2.24765 3.93153 2.32601 3.88989 2.36313C3.84825 2.40024 3.69001 2.32601 3.72332 2.21053H3.64003L3.49845 2.78381L3.16114 3.15086C3.01539 3.30758 2.91545 3.49318 3.12367 3.6334L3.43599 3.1756L3.61922 3.29934L3.25276 3.81898C3.29024 4.1613 3.38185 4.23141 3.71915 4.1448L3.84825 3.36944L4.0648 3.40244L3.93571 4.20666C4.01984 4.30166 4.13202 4.36802 4.25635 4.39637C4.37836 4.36761 4.48871 4.30291 4.57284 4.21079L4.39794 3.38594L4.61447 3.34057L4.78521 4.14067C5.11002 4.16954 5.20164 4.11593 5.24328 3.79837L4.86433 3.29934L5.04339 3.16736L5.37238 3.60453C5.53478 3.45193 5.53062 3.33232 5.37238 3.1591L5.02675 2.78381L4.91847 2.21053H4.81853L4.62281 2.31777C4.60648 2.26338 4.57289 2.21565 4.52703 2.18166L4.46457 2.14867Z" fill="white"/>
<path fill-rule="evenodd" clip-rule="evenodd" d="M16.1696 0.330078H14.4831L11.3515 3.43976L8.2075 0.330078H6.5293V1.99215L9.19444 4.64816L6.5293 7.2753V8.9415H8.19501L11.3515 5.83594L14.4956 8.9415H16.1696V7.2918L13.4878 4.64816L16.1696 2.0004V0.330078Z" fill="#D7182A"/>
<path fill-rule="evenodd" clip-rule="evenodd" d="M11.6514 18.6745H15.1868C15.9031 18.4064 16.0946 18.1672 16.1696 17.4042V9.26709H11.6514V18.6745Z" fill="#FCAF17"/>
<path fill-rule="evenodd" clip-rule="evenodd" d="M12.7548 13.6387C12.6744 13.6125 12.6064 13.5583 12.5633 13.4861C12.5546 13.4718 12.5477 13.4566 12.5424 13.4408C12.2634 13.3377 12.1802 13.0572 12.3509 12.7396C11.9053 12.4344 11.8595 12.1251 12.2801 11.7622C12.2036 11.6802 12.1501 11.5798 12.125 11.471C12.0998 11.3622 12.1038 11.2488 12.1367 11.142C12.1695 11.0352 12.2301 10.9388 12.3122 10.8624C12.3943 10.786 12.4953 10.7322 12.6049 10.7064C12.5549 10.1661 12.9214 10.0011 13.3961 10.0877C13.4634 9.99656 13.5514 9.92238 13.6531 9.87124C13.7548 9.8201 13.8672 9.79346 13.9812 9.79346C14.0952 9.79346 14.2077 9.8201 14.3093 9.87124C14.411 9.92238 14.499 9.99656 14.5663 10.0877C14.8828 9.93103 15.1743 10.03 15.2451 10.3063L15.295 10.3352C15.3466 10.3694 15.3882 10.4163 15.416 10.4712C15.4437 10.5262 15.4566 10.5873 15.4533 10.6486C15.562 10.71 15.6448 10.8081 15.6865 10.925C15.7852 10.9867 15.8578 11.082 15.8905 11.193C15.9123 11.3016 15.909 11.4137 15.8809 11.5208C15.8528 11.6279 15.8005 11.7274 15.7281 11.8117C15.8229 11.8876 15.8981 11.9848 15.9473 12.0953C15.9966 12.2058 16.0185 12.3263 16.0113 12.4468C15.9697 12.6613 15.8697 12.9129 15.6282 12.9623C15.8281 13.317 15.7489 13.7171 15.2909 13.7872C15.241 13.791 15.1909 13.791 15.141 13.7872C15.141 14.2945 14.8994 14.4264 14.4372 14.245C14.4094 14.7635 14.4234 15.2835 14.4788 15.7998C14.496 16.0134 14.5677 16.2192 14.687 16.3978C14.8169 16.5273 14.9561 16.6472 15.1035 16.7566L15.699 17.1938L15.6615 17.2681L15.8989 17.4413L15.8239 17.5856C15.8239 17.5856 15.4075 17.4619 15.1326 17.3547C14.9848 17.2965 14.8449 17.2203 14.7162 17.1278L14.6787 17.0948C14.688 17.123 14.6991 17.1506 14.712 17.1773L14.8786 17.6722L14.7412 17.7588L14.5288 17.5361C14.3896 17.4337 14.2637 17.3145 14.154 17.1814C14.1234 17.1438 14.0982 17.1022 14.0791 17.0577C13.9137 17.2331 13.7619 17.4206 13.6252 17.6186C13.4203 17.851 13.199 18.0688 12.963 18.2702L12.834 18.1713L13.0172 17.8372L12.7673 18.064L12.5924 17.932L12.8131 17.5196L12.9797 17.2392C12.7477 17.3384 12.5099 17.4238 12.2676 17.4949L12.201 17.3464L12.5633 17.1237C12.4009 17.1856 12.2343 17.2392 12.0594 17.2928L11.9678 17.0948L12.4383 16.8061C12.5661 16.733 12.6898 16.6531 12.809 16.5669C13.5794 16.0102 13.4461 15.7421 13.5377 14.9172C13.5377 14.7358 13.5669 14.5048 13.571 14.311C13.3545 14.3563 13.1296 14.344 13.0547 14.1171C12.8631 14.0759 12.7548 13.9192 12.7756 13.6305" fill="black"/>
<path fill-rule="evenodd" clip-rule="evenodd" d="M13.1216 17.3958C13.2715 17.2432 13.6713 16.6122 13.8504 16.5709C14.0294 16.5297 14.1877 16.8844 14.3209 17.0246V16.9792C14.3181 16.9546 14.3181 16.9297 14.3209 16.905C14.2959 16.674 14.4708 16.6122 14.6457 16.7359C14.7631 16.8092 14.8872 16.8713 15.0164 16.9215C14.9112 16.8439 14.8111 16.7599 14.7165 16.6699C14.0586 16.0636 14.1335 15.7626 14.0669 14.9583C14.0454 14.5352 14.0454 14.1112 14.0669 13.6881C14.6208 13.9768 14.8248 14.018 14.7332 13.321C14.8623 13.321 15.2287 13.3788 15.3037 13.2303C15.4661 12.9086 15.1205 12.624 14.9456 12.4343C14.9456 12.4343 15.3245 12.5333 15.362 12.5333C15.6702 12.5333 15.7784 11.9724 15.362 11.6713L15.2621 11.5971C15.4036 11.4486 15.5869 11.23 15.5202 10.9991C15.4536 10.7681 15.1913 10.7351 15.008 10.7145C15.0414 10.6114 15.1413 10.3309 15.008 10.2485C14.8748 10.166 14.6166 10.3145 14.4875 10.4093L14.4334 10.2196C14.2918 9.90203 13.7379 9.95977 13.6005 10.2567L13.5547 10.3351C13.4214 10.298 13.0966 10.2237 12.9842 10.3351C12.8093 10.5083 12.8884 10.7475 12.9426 10.929C12.7302 10.929 12.4887 10.8753 12.4137 11.1764C12.3221 11.5558 12.4762 11.6095 12.7552 11.7249C12.193 12.1044 12.0306 12.2817 12.7218 12.6653C12.3054 13.1849 12.6011 13.3004 13.1383 13.2427C13.0925 13.3829 12.9717 13.7458 13.0883 13.8737C13.2049 14.0015 13.7088 13.7664 13.8462 13.6963C13.8462 13.6963 13.8462 14.5212 13.8046 14.9336C13.7129 15.7584 13.8296 16.076 13.0675 16.6617C13.1716 16.6122 13.4506 16.4472 13.5672 16.5627C13.6838 16.6781 13.3298 17.103 13.2341 17.2927L13.1216 17.3958Z" fill="#008D5C"/>
<path fill-rule="evenodd" clip-rule="evenodd" d="M11.4848 6.27285L8.76136 8.93711H14.1749L11.4848 6.27285ZM6.5293 6.96572L8.88211 4.64789L6.5293 2.3012V6.96572ZM16.1613 2.5734L13.9292 4.77987L16.1613 6.97809V2.5734ZM14.1624 0.325684H8.52399L11.3515 3.13018L14.1624 0.325684Z" fill="white"/>
<path fill-rule="evenodd" clip-rule="evenodd" d="M23.6582 28.3251H20.9972V29.6572C20.9932 29.6988 20.9862 29.7402 20.9764 29.7809C20.9509 29.8917 20.8903 29.9916 20.8034 30.0658C20.7164 30.14 20.6078 30.1847 20.4933 30.1933H3.25322V31.4925C3.25107 31.6274 3.19598 31.7563 3.0996 31.8517C3.00322 31.9472 2.87313 32.0017 2.73685 32.0039H0.546437V31.7028H0.0175781V27.5786H1.98728V26.3413C1.99118 26.1804 2.05155 26.0258 2.15801 25.9041C2.26283 25.8084 2.39541 25.7478 2.53696 25.7309H19.7688V24.4936C19.7709 24.3599 19.8172 24.2306 19.9007 24.1256C19.9842 24.0205 20.1003 23.9455 20.231 23.9121H20.3351H23.9997C24.1341 23.9222 24.2614 23.9757 24.3622 24.0644C24.463 24.153 24.5317 24.2719 24.5577 24.4029C24.6591 24.4403 24.7468 24.5071 24.8092 24.5947C24.8716 24.6823 24.9059 24.7865 24.9075 24.8937V25.7185H41.777C41.9195 25.7319 42.0532 25.793 42.1559 25.8918C42.1686 25.9946 42.2117 26.0914 42.2799 26.1699C42.3481 26.2485 42.4383 26.3052 42.5391 26.333C42.6265 26.4304 42.6792 26.5536 42.689 26.6836V27.5497H44.2964V28.0199H44.6545V31.9791H42.4683C42.4245 31.9775 42.3812 31.9706 42.3392 31.9585C42.2625 31.9414 42.1909 31.9067 42.1302 31.8573C42.0694 31.8079 42.0212 31.7451 41.9894 31.6739L41.8769 31.6533C41.7471 31.6201 41.6323 31.5448 41.5508 31.4394C41.4692 31.334 41.4257 31.2046 41.4272 31.0718V30.1603H24.6951C24.5983 30.1564 24.5045 30.1257 24.4243 30.0718C24.3441 30.0179 24.2807 29.9428 24.2412 29.8551C24.0857 29.8438 23.9401 29.7754 23.833 29.6632C23.7259 29.551 23.6651 29.4032 23.6624 29.2489L23.6582 28.3251Z" fill="black"/>
<path fill-rule="evenodd" clip-rule="evenodd" d="M20.3255 29.2905L19.7716 28.0203V26.0654H2.57313C2.50831 26.071 2.44701 26.097 2.39824 26.1396C2.35366 26.1922 2.3261 26.2569 2.31912 26.3252V29.5462H20.0589C20.1267 29.5417 20.1907 29.5135 20.2395 29.4667C20.2883 29.4199 20.3187 29.3575 20.3255 29.2905ZM42.3545 27.9007V29.8762L41.784 31.1135C41.7934 31.1771 41.8246 31.2356 41.8724 31.2791C41.9201 31.3226 41.9816 31.3486 42.0464 31.3527H43.9869V27.8883L42.3545 27.9007ZM41.9381 29.8762H41.7798V30.2556L41.9381 29.8762ZM2.40239 29.8762L2.56064 30.2597V29.8762H2.40239ZM2.55647 31.1135L2.04427 29.8762H1.99013V27.8965H0.336914V31.365H2.27747C2.29819 31.368 2.31922 31.368 2.33993 31.365C2.39319 31.353 2.44124 31.3246 2.47716 31.2838C2.51307 31.2431 2.53502 31.1921 2.53982 31.1382L2.55647 31.1135ZM20.2963 24.2383C20.2382 24.2527 20.1864 24.2854 20.1489 24.3316C20.1113 24.3777 20.0899 24.4348 20.0881 24.494V27.7068H24.2232V24.4817C24.2248 24.4583 24.2248 24.4349 24.2232 24.4116C24.2101 24.3544 24.1778 24.3034 24.1317 24.2667C24.0856 24.23 24.0284 24.2099 23.9692 24.2095H20.313L20.2963 24.2383ZM24.0109 29.2369C24.0065 29.267 24.0065 29.2976 24.0109 29.3277C24.0265 29.3794 24.0561 29.426 24.0964 29.4623C24.1368 29.4986 24.1864 29.5234 24.2399 29.5339H41.9797V26.3128C41.9727 26.2458 41.9451 26.1824 41.9006 26.1314C41.8522 26.0875 41.7909 26.06 41.7257 26.053H24.5272V28.0079L24.0109 29.2369ZM24.1608 27.9997H24.0109V28.375L24.1608 27.9997ZM20.1797 27.9997H20.3255V28.375L20.1797 27.9997Z" fill="white"/>
<path fill-rule="evenodd" clip-rule="evenodd" d="M5.53878 28.7747C5.60212 28.7724 5.6632 28.7508 5.71369 28.7128C5.80017 28.6272 5.87955 28.5348 5.95105 28.4365L6.39246 27.8715L6.08014 27.3931C5.99569 27.2585 5.89955 27.1316 5.79281 27.0136C5.73147 26.961 5.65323 26.9318 5.5721 26.9311V26.8734H6.42994V26.9311C6.37594 26.9259 6.32154 26.9259 6.26753 26.9311C6.24998 26.9366 6.23475 26.9476 6.22421 26.9626C6.21366 26.9775 6.20839 26.9954 6.20924 27.0136C6.21329 27.048 6.22315 27.0815 6.23839 27.1126C6.2487 27.1345 6.26126 27.1552 6.27587 27.1745L6.57153 27.6199L6.89634 27.2075C6.93183 27.1626 6.96253 27.1142 6.98795 27.0631C6.99351 27.0443 6.99351 27.0242 6.98795 27.0054C6.98879 26.9872 6.98353 26.9692 6.97298 26.9543C6.96244 26.9394 6.9472 26.9283 6.92965 26.9229C6.88421 26.9147 6.83766 26.9147 6.79223 26.9229V26.8652H7.46267V26.9229C7.40226 26.9217 7.34241 26.9344 7.28778 26.96C7.19302 27.0259 7.11117 27.1084 7.04625 27.2033L6.62982 27.7354L7.17118 28.5602C7.20842 28.6253 7.2579 28.6827 7.31694 28.7293C7.36958 28.7578 7.42783 28.7747 7.48767 28.7788V28.8324H6.65482V28.7747C6.70993 28.7842 6.76627 28.7842 6.82138 28.7747C6.83638 28.7701 6.84942 28.7608 6.85847 28.7481C6.86751 28.7354 6.87204 28.7201 6.87135 28.7046C6.86276 28.6496 6.84138 28.5974 6.80889 28.552C6.76725 28.4819 6.65065 28.2963 6.45493 28.0035L6.12179 28.4406L6.01768 28.585C5.99461 28.6154 5.97893 28.6507 5.97187 28.6881C5.97205 28.7088 5.97908 28.7288 5.99186 28.7452C6.00464 28.7616 6.02249 28.7734 6.04267 28.7788C6.09044 28.7905 6.13925 28.7974 6.18841 28.7994V28.853H5.53046L5.53878 28.7747ZM9.16588 26.8734V26.9311C9.09065 26.9272 9.01616 26.9475 8.95349 26.9889C8.91103 27.0488 8.89316 27.1226 8.90352 27.1951V28.1395C8.89758 28.2636 8.91889 28.3874 8.96599 28.5025C9.00249 28.5794 9.06208 28.6432 9.13662 28.6853C9.21116 28.7274 9.29701 28.7456 9.38241 28.7376C9.47542 28.7487 9.56966 28.7318 9.65285 28.6892C9.73604 28.6465 9.80432 28.58 9.84881 28.4984C9.90039 28.3671 9.92311 28.2265 9.91544 28.0859V27.3188C9.92635 27.2154 9.90758 27.1111 9.8613 27.0178C9.80176 26.9682 9.72672 26.9405 9.64892 26.9394V26.8817H10.3319V26.9394C10.2518 26.9392 10.1746 26.9686 10.1153 27.0219C10.0713 27.1144 10.0539 27.2172 10.0654 27.3188V28.0859C10.0743 28.2504 10.0429 28.4146 9.97375 28.5643C9.90181 28.6615 9.80776 28.7405 9.69923 28.795C9.59071 28.8495 9.47077 28.8779 9.34911 28.8779C9.22744 28.8779 9.10749 28.8495 8.99896 28.795C8.89044 28.7405 8.7964 28.6615 8.72446 28.5643C8.65661 28.4273 8.62508 28.2755 8.63285 28.123V27.1992C8.64321 27.1267 8.62534 27.053 8.58287 26.993C8.5223 26.9538 8.45117 26.9337 8.37882 26.9353V26.8775L9.16588 26.8734ZM10.4152 28.7747C10.4983 28.7754 10.5792 28.7477 10.6442 28.6963C10.6834 28.601 10.6991 28.4978 10.69 28.3952V27.1951C10.6989 27.1232 10.6828 27.0504 10.6442 26.9889C10.5792 26.9457 10.5015 26.9254 10.4235 26.9311V26.8734H10.9815L11.6395 28.3664L12.2641 26.8734H12.8304V26.9311C12.7582 26.9303 12.6873 26.9503 12.6264 26.9889C12.589 27.0509 12.5729 27.1233 12.5806 27.1951V28.5107C12.5717 28.5826 12.5878 28.6554 12.6264 28.7169C12.6864 28.7574 12.7579 28.7777 12.8304 28.7747V28.8283H12.0351V28.7747C12.1517 28.7747 12.2225 28.7541 12.2474 28.7128C12.2867 28.6395 12.3026 28.5561 12.2932 28.4736V27.1497L11.5687 28.8283H11.527L10.8149 27.2157V28.3952C10.8038 28.5054 10.827 28.6162 10.8816 28.7128C10.9393 28.755 11.0097 28.7768 11.0814 28.7747V28.8283H10.4152V28.7747ZM14.1089 28.6345C14.1614 28.5961 14.2026 28.5445 14.2282 28.485C14.2538 28.4255 14.2629 28.3604 14.2546 28.2963C14.2623 28.2296 14.2503 28.1621 14.2199 28.1021C14.1896 28.042 14.1424 27.992 14.0839 27.9581C13.9476 27.8937 13.7976 27.8626 13.6466 27.8673H13.5134V28.6056C13.5134 28.6592 13.5134 28.6922 13.555 28.7046C13.6162 28.7267 13.6817 28.7352 13.7466 28.7293C13.8737 28.7349 13.9997 28.7033 14.1089 28.6386V28.6345ZM12.9512 28.7788C13.0285 28.7832 13.1054 28.7645 13.1719 28.7252C13.2094 28.6963 13.226 28.6262 13.226 28.5149V27.1992C13.226 27.092 13.226 27.0219 13.1719 26.993C13.1069 26.9499 13.0292 26.9295 12.9512 26.9353V26.8775H13.7466C13.9327 26.8696 14.1177 26.9094 14.2838 26.993C14.3517 27.0325 14.407 27.0903 14.4431 27.1596C14.4792 27.229 14.4947 27.3071 14.4878 27.3848C14.4914 27.4451 14.4805 27.5053 14.4559 27.5606C14.4312 27.6158 14.3937 27.6644 14.3462 27.7024C14.2756 27.7534 14.1946 27.7885 14.1089 27.8055C14.2311 27.8349 14.345 27.8913 14.442 27.9704C14.488 28.0105 14.5246 28.06 14.5491 28.1156C14.5736 28.1712 14.5853 28.2315 14.5836 28.2921C14.5903 28.3934 14.5639 28.4942 14.5084 28.5796C14.453 28.665 14.3713 28.7305 14.2754 28.7664C14.1427 28.8167 14.0009 28.8391 13.859 28.8324H12.9345L12.9512 28.7788ZM14.0173 27.7065C14.0753 27.6791 14.1235 27.6348 14.1555 27.5795C14.1875 27.5243 14.2017 27.4607 14.1963 27.3972C14.2046 27.3243 14.1893 27.2507 14.1526 27.1869C14.116 27.1232 14.0598 27.0726 13.9923 27.0425C13.8809 27 13.7616 26.9817 13.6425 26.9889C13.5842 26.9889 13.5467 26.9889 13.5342 26.9889C13.5244 27.0169 13.5244 27.0474 13.5342 27.0755V27.7436H13.8007C13.8823 27.7425 13.9629 27.7257 14.0381 27.6941L14.0173 27.7065ZM15.8162 27.7436C15.8875 27.7143 15.9477 27.6634 15.988 27.5983C16.0284 27.5331 16.047 27.4569 16.0411 27.3807C16.0472 27.3086 16.031 27.2364 15.9945 27.1738C15.958 27.1111 15.9031 27.061 15.837 27.0301C15.7473 26.9938 15.6508 26.9769 15.5539 26.9806C15.5045 26.9699 15.4533 26.9699 15.404 26.9806C15.404 26.9806 15.379 27.0219 15.379 27.0672V27.7931C15.5274 27.7944 15.675 27.7721 15.8162 27.7271V27.7436ZM14.8459 28.7499C14.9542 28.7499 15.0208 28.7211 15.05 28.6839C15.083 28.6102 15.0959 28.5291 15.0875 28.4489V27.1703C15.0999 27.1359 15.1026 27.0988 15.0954 27.063C15.0882 27.0271 15.0713 26.9939 15.0465 26.9668C15.0217 26.9397 14.99 26.9198 14.9546 26.9091C14.9193 26.8985 14.8818 26.8976 14.8459 26.9064V26.8487H15.6288C15.7706 26.8445 15.9119 26.8669 16.0453 26.9146C16.1406 26.9455 16.223 27.0067 16.2795 27.0888C16.336 27.1709 16.3635 27.2691 16.3576 27.3683C16.3619 27.4317 16.3513 27.4952 16.3268 27.5538C16.3022 27.6125 16.2643 27.6647 16.216 27.7065C16.1099 27.7924 15.9814 27.8467 15.8454 27.8632L16.4284 28.6097C16.4579 28.6503 16.4945 28.6852 16.5366 28.7128C16.579 28.7354 16.626 28.7481 16.6741 28.7499V28.8036H16.1619L15.4873 27.8962H15.3332V28.4777C15.3229 28.551 15.3391 28.6255 15.379 28.6881C15.4415 28.7259 15.514 28.7446 15.5872 28.7417V28.7953H14.8001L14.8459 28.7499ZM17.8817 28.0488L17.5527 27.224L17.2321 28.0488H17.8817ZM16.6616 28.8036V28.7499C16.6928 28.7475 16.7232 28.7389 16.7511 28.7248C16.779 28.7106 16.8037 28.6911 16.824 28.6674C16.9002 28.5365 16.963 28.3984 17.0114 28.255L17.6027 26.8033H17.6568L18.3606 28.4777C18.3889 28.5531 18.4282 28.624 18.4772 28.6881C18.5183 28.7183 18.5676 28.7356 18.6188 28.7376V28.7912H17.8984V28.7376C17.952 28.7367 18.0053 28.7284 18.0566 28.7128C18.0703 28.7042 18.0811 28.6918 18.0878 28.6771C18.0944 28.6625 18.0966 28.6462 18.0941 28.6303C18.0981 28.6044 18.0981 28.5779 18.0941 28.552C18.0842 28.5127 18.0717 28.4741 18.0566 28.4365L17.94 28.1519H17.1988C17.1238 28.3458 17.078 28.4654 17.0655 28.5066C17.0545 28.54 17.0475 28.5747 17.0447 28.6097C17.0426 28.6307 17.047 28.6519 17.0574 28.6704C17.0679 28.6888 17.0838 28.7036 17.103 28.7128C17.1457 28.7282 17.1908 28.7366 17.2362 28.7376V28.7912L16.6616 28.8036ZM20.6468 26.8239C20.7281 26.829 20.8092 26.8104 20.88 26.7703C20.9175 26.7455 20.9341 26.6754 20.9341 26.56V25.2443C20.9341 25.1371 20.9341 25.067 20.88 25.0381C20.8097 24.9966 20.7286 24.9765 20.6468 24.9804V24.9268H21.5255V24.9804C21.4437 24.9765 21.3626 24.9966 21.2923 25.0381C21.2548 25.067 21.2381 25.1371 21.2381 25.2443V26.56C21.2381 26.6754 21.2381 26.7455 21.2923 26.7703C21.363 26.8104 21.4441 26.829 21.5255 26.8239V26.8817H20.6468V26.8239ZM21.6212 26.8239C21.7076 26.8289 21.7925 26.8008 21.8586 26.7455C21.906 26.6526 21.9248 26.5479 21.9127 26.4445V25.1453L21.8711 25.0959C21.8418 25.0558 21.8033 25.0233 21.7587 25.001C21.7146 24.9854 21.6679 24.9784 21.6212 24.9804V24.9268H22.1334L23.2828 26.3496V25.3598C23.2953 25.2491 23.2704 25.1374 23.212 25.0422C23.1497 24.9997 23.0753 24.978 22.9996 24.9804V24.9268H23.6576V24.9804C23.5735 24.9786 23.4918 25.0081 23.4285 25.0629C23.3785 25.1535 23.3582 25.2572 23.3702 25.3598V26.9559H23.3203L21.9919 25.3062V26.4569C21.9774 26.5682 22.004 26.681 22.0668 26.7744C22.1268 26.8153 22.198 26.8369 22.2709 26.8363V26.894H21.5754L21.6212 26.8239ZM27.9884 28.1932C28.0274 28.3084 28.0867 28.4159 28.1633 28.5107C28.2161 28.5762 28.2833 28.6288 28.3599 28.6646C28.4364 28.7003 28.5201 28.7182 28.6047 28.7169C28.6946 28.7193 28.7822 28.6884 28.8504 28.6303C28.8863 28.599 28.9146 28.5602 28.9333 28.5167C28.952 28.4732 28.9607 28.426 28.9587 28.3788C28.9576 28.284 28.9186 28.1936 28.8504 28.1272C28.7628 28.0491 28.6664 27.9813 28.5631 27.9251L28.3091 27.7684C28.2418 27.7286 28.1801 27.68 28.1258 27.624C28.045 27.541 28.0001 27.43 28.0009 27.3147C27.999 27.246 28.0113 27.1776 28.0371 27.1137C28.0628 27.0499 28.1016 26.992 28.1508 26.9435C28.2024 26.8922 28.2642 26.8521 28.3324 26.8258C28.4005 26.7995 28.4734 26.7877 28.5464 26.7909C28.6307 26.7958 28.7136 26.8139 28.7921 26.8445L28.9545 26.894C28.992 26.894 29.017 26.894 29.0295 26.8652C29.0469 26.8432 29.0597 26.8179 29.067 26.7909H29.1253L29.1919 27.4219H29.1211C29.0975 27.2607 29.0144 27.1137 28.8879 27.0095C28.7954 26.94 28.6833 26.9011 28.5673 26.8981C28.4907 26.8981 28.4161 26.9228 28.3549 26.9683C28.3241 26.991 28.2995 27.0211 28.2835 27.0556C28.2675 27.0902 28.2605 27.1283 28.2633 27.1662C28.2624 27.2372 28.2875 27.3061 28.3341 27.3601C28.397 27.4283 28.47 27.4866 28.5506 27.5333L28.8129 27.6941C28.9422 27.7658 29.0589 27.8577 29.1586 27.9663C29.2255 28.0525 29.2607 28.1587 29.2585 28.2674C29.2603 28.3412 29.2452 28.4145 29.2141 28.4817C29.1831 28.5489 29.1371 28.6082 29.0795 28.6551C28.955 28.7619 28.7943 28.8179 28.6297 28.8118C28.5301 28.8113 28.4314 28.7932 28.3382 28.7582C28.2828 28.737 28.2257 28.7204 28.1675 28.7087C28.1541 28.7068 28.1405 28.7084 28.1281 28.7135C28.1156 28.7186 28.1048 28.7269 28.0967 28.7376C28.0841 28.7592 28.0756 28.783 28.0717 28.8077H28.0092L27.9176 28.1767L27.9884 28.1932ZM30.2455 28.5025C30.2982 28.5722 30.3668 28.6287 30.4456 28.6673C30.5245 28.706 30.6114 28.7258 30.6994 28.7252C30.7861 28.7247 30.8717 28.7049 30.9496 28.667C31.0274 28.6291 31.0957 28.5743 31.1491 28.5066C31.2719 28.2952 31.3365 28.0556 31.3365 27.8117C31.3365 27.5678 31.2719 27.3282 31.1491 27.1167C31.0951 27.0497 31.0267 26.9953 30.949 26.9576C30.8712 26.9198 30.786 26.8995 30.6994 26.8981C30.6111 26.8983 30.5241 26.9189 30.4453 26.9583C30.3665 26.9977 30.298 27.0548 30.2455 27.125C30.1039 27.3259 30.0376 27.5695 30.0581 27.8137C30.0387 28.0578 30.1048 28.3011 30.2455 28.5025ZM30.0206 27.0549C30.2053 26.8856 30.4477 26.7916 30.6994 26.7916C30.951 26.7916 31.1934 26.8856 31.3781 27.0549C31.4785 27.1537 31.5566 27.2724 31.6076 27.4031C31.6585 27.5339 31.6811 27.6738 31.6738 27.8137C31.6809 27.9554 31.657 28.0969 31.6038 28.2285C31.5507 28.3602 31.4694 28.479 31.3657 28.5767C31.1857 28.7443 30.9463 28.8347 30.6994 28.8283C30.5701 28.8326 30.4413 28.8098 30.3215 28.7615C30.2016 28.7132 30.0934 28.6404 30.0039 28.5478C29.8164 28.3436 29.7124 28.0774 29.7124 27.8014C29.7124 27.5253 29.8164 27.2591 30.0039 27.0549H30.0206ZM31.982 28.7376C32.0571 28.7363 32.1305 28.7149 32.1943 28.6757C32.2277 28.651 32.2443 28.5808 32.2443 28.4695V27.1539C32.254 27.0827 32.2362 27.0105 32.1943 26.9518C32.1324 26.9084 32.0577 26.8866 31.982 26.8899V26.8363H32.8148V26.8899C32.7362 26.8864 32.6583 26.905 32.59 26.9435C32.5681 26.9696 32.5519 27 32.5426 27.0327C32.5333 27.0654 32.531 27.0996 32.5358 27.1332V28.5561C32.5286 28.5803 32.5286 28.6061 32.5358 28.6303C32.5444 28.642 32.5557 28.6514 32.5688 28.6579C32.5818 28.6643 32.5962 28.6676 32.6108 28.6674H32.819C33.0003 28.6791 33.1823 28.6581 33.3562 28.6056C33.48 28.5256 33.5748 28.4085 33.6269 28.2715H33.7018L33.5561 28.7829H31.9861L31.982 28.7376ZM33.9808 28.7376C34.0574 28.737 34.1323 28.7156 34.1974 28.6757C34.2265 28.651 34.2432 28.5808 34.2432 28.4695V27.1539C34.2515 27.0833 34.2353 27.012 34.1974 26.9518C34.1338 26.9086 34.0578 26.8869 33.9808 26.8899V26.8363H35.5674V27.2487H35.4925C35.4852 27.1546 35.4455 27.0658 35.38 26.9971C35.2756 26.9458 35.1584 26.9258 35.0427 26.9394H34.6263C34.5846 26.9394 34.5555 26.9394 34.5472 26.9394C34.5405 26.9651 34.5405 26.9921 34.5472 27.0178V27.6776H35.0052C35.0915 27.6886 35.1788 27.668 35.2509 27.6199C35.2973 27.5523 35.3259 27.4744 35.3342 27.3931H35.405V28.0777H35.3342C35.3271 27.9955 35.2967 27.9169 35.2468 27.8509C35.1766 27.8019 35.0902 27.7812 35.0052 27.7931H34.5472V28.5272C34.5472 28.585 34.568 28.618 34.6055 28.6303C34.7164 28.638 34.8277 28.638 34.9386 28.6303C35.0911 28.6383 35.2438 28.6173 35.3883 28.5685C35.5084 28.4948 35.5995 28.3828 35.6465 28.2509H35.7298L35.5966 28.7458H33.9808V28.7376ZM35.9838 28.7376C36.0701 28.7376 36.1539 28.7085 36.2212 28.6551C36.2646 28.5609 36.2819 28.457 36.2712 28.354V27.1539C36.2799 27.0814 36.2622 27.0083 36.2212 26.9476C36.1533 26.9042 36.0728 26.8839 35.9922 26.8899V26.8363H36.5793L37.2706 28.3251L37.9286 26.8363H38.5241V26.8899C38.4482 26.8859 38.3733 26.9078 38.3117 26.9518C38.2699 27.0105 38.252 27.0827 38.2617 27.1539V28.4695C38.2513 28.542 38.2692 28.6157 38.3117 28.6757C38.3755 28.7149 38.4489 28.7363 38.5241 28.7376V28.7871H37.6912V28.7376C37.7713 28.7394 37.8499 28.7163 37.9161 28.6716C37.9553 28.5982 37.9713 28.5148 37.9619 28.4324V27.1085L37.1998 28.7871H37.1582L36.4086 27.1786V28.354C36.3954 28.4647 36.4203 28.5766 36.4794 28.6716C36.5408 28.7131 36.6132 28.7361 36.6876 28.7376V28.7871H35.988L35.9838 28.7376ZM3.79395 28.7747C3.86548 28.7745 3.93577 28.756 3.998 28.7211C4.03688 28.6581 4.05303 28.584 4.0438 28.5107V27.1951C4.05343 27.1232 4.03722 27.0502 3.998 26.9889C3.93778 26.9489 3.86639 26.9287 3.79395 26.9311V26.8734H5.33473V27.2858H5.26394C5.2551 27.1929 5.21727 27.1049 5.15567 27.0343C5.05643 26.9854 4.94526 26.9654 4.83502 26.9765H4.45191C4.41027 26.9765 4.38111 26.9765 4.37279 26.9971C4.36659 27.0229 4.36659 27.0497 4.37279 27.0755V27.7354H4.78921C4.87152 27.746 4.95482 27.7253 5.02241 27.6776C5.06702 27.6095 5.09418 27.5317 5.10154 27.4508H5.16817V28.1354H5.10154C5.09327 28.0541 5.06464 27.9762 5.01824 27.9086C4.95229 27.8608 4.87022 27.8401 4.78921 27.8509H4.37279V28.6056C4.37279 28.6633 4.37278 28.6963 4.42276 28.7087C4.52946 28.7174 4.6367 28.7174 4.7434 28.7087C4.88526 28.7143 5.02681 28.6918 5.15983 28.6427C5.27588 28.5677 5.36257 28.4556 5.40553 28.3251H5.48464L5.35555 28.82H3.8231L3.79395 28.7747Z" fill="black"/>
</g>
<defs>
<clipPath id="clip0">
<rect width="160" height="32" fill="white"/>
</clipPath>
</defs>
</svg>
