<svg width="16" height="20" viewBox="0 0 16 20" fill="none" xmlns="http://www.w3.org/2000/svg">
<path d="M15.3333 15.9973H14.6667V8.66522C14.6667 7.01279 14.0528 5.41926 12.9442 4.19378C11.8355 2.9683 10.3111 2.19824 8.66667 2.033V0.666555C8.66667 0.489774 8.59646 0.320232 8.47144 0.195229C8.34641 0.0702256 8.17681 0 8 0C7.82319 0 7.65359 0.0702256 7.52856 0.195229C7.40354 0.320232 7.33333 0.489774 7.33333 0.666555V2.033C5.68891 2.19824 4.16449 2.9683 3.05583 4.19378C1.94717 5.41926 1.33331 7.01279 1.33333 8.66522V15.9973H0.666667C0.489856 15.9973 0.320255 16.0675 0.195231 16.1926C0.0702069 16.3176 0 16.4871 0 16.6639C0 16.8407 0.0702069 17.0102 0.195231 17.1352C0.320255 17.2602 0.489856 17.3304 0.666667 17.3304H4.73332C4.88633 18.0838 5.29512 18.7612 5.89046 19.2477C6.4858 19.7342 7.2311 20 8 20C8.7689 20 9.5142 19.7342 10.1095 19.2477C10.7049 18.7612 11.1137 18.0838 11.2667 17.3304H15.3333C15.5101 17.3304 15.6797 17.2602 15.8048 17.1352C15.9298 17.0102 16 16.8407 16 16.6639C16 16.4871 15.9298 16.3176 15.8048 16.1926C15.6797 16.0675 15.5101 15.9973 15.3333 15.9973ZM8 3.33278C9.41449 3.33278 10.771 3.89458 11.7712 4.89461C12.7714 5.89463 13.3333 7.25097 13.3333 8.66522V13.3311H2.66667V8.66522C2.66667 7.25097 3.22857 5.89463 4.22876 4.89461C5.22895 3.89458 6.58551 3.33278 8 3.33278ZM8 18.6635C7.58737 18.6624 7.18521 18.5336 6.84863 18.295C6.51206 18.0563 6.25758 17.7194 6.12004 17.3304H9.87996C9.74242 17.7194 9.48794 18.0563 9.15137 18.295C8.81479 18.5336 8.41263 18.6624 8 18.6635ZM2.66667 15.9973V14.6642H13.3333V15.9973H2.66667Z" fill="white"/>
</svg>
