<svg width="25" height="17" viewBox="0 0 25 17" fill="none" xmlns="http://www.w3.org/2000/svg">
<path d="M0.85 3C0.85 1.81259 1.81259 0.85 3 0.85H4C5.18741 0.85 6.15 1.81259 6.15 3V14C6.15 15.1874 5.18741 16.15 4 16.15H3C1.81259 16.15 0.85 15.1874 0.85 14V3Z" stroke="white" stroke-width="1.7"/>
<path d="M9.85 3C9.85 1.81259 10.8126 0.85 12 0.85H13C14.1874 0.85 15.15 1.81259 15.15 3V14C15.15 15.1874 14.1874 16.15 13 16.15H12C10.8126 16.15 9.85 15.1874 9.85 14V3Z" stroke="white" stroke-width="1.7"/>
<path d="M18.85 3C18.85 1.81259 19.8126 0.85 21 0.85H22C23.1874 0.85 24.15 1.81259 24.15 3V14C24.15 15.1874 23.1874 16.15 22 16.15H21C19.8126 16.15 18.85 15.1874 18.85 14V3Z" stroke="white" stroke-width="1.7"/>
</svg>
