<svg width="184" height="20" viewBox="0 0 184 20" fill="none" xmlns="http://www.w3.org/2000/svg">
<g clip-path="url(#clip0)">
<path d="M36.7268 20C38.7018 20 40.6324 19.4135 42.2745 18.3147C43.9167 17.2159 45.1966 15.6542 45.9523 13.8269C46.7081 11.9996 46.9059 9.98889 46.5206 8.04908C46.1353 6.10927 45.1843 4.32748 43.7877 2.92896C42.3912 1.53043 40.6119 0.577995 38.6749 0.192143C36.7379 -0.193709 34.7301 0.00435829 32.9055 0.761235C31.0809 1.51811 29.5213 2.79985 28.4241 4.44434C27.3269 6.08883 26.7412 8.02219 26.7412 10C26.7412 12.6522 27.7933 15.1957 29.6659 17.071C31.5386 18.9464 34.0785 20 36.7268 20ZM31.4195 7.84998C31.4195 7.43524 31.5011 7.02459 31.6598 6.64148C31.8184 6.25838 32.0509 5.91035 32.344 5.61731C32.6371 5.32428 32.9849 5.09198 33.3677 4.93372C33.7506 4.77546 34.1608 4.69442 34.5749 4.69507H38.8787C39.2929 4.69442 39.7031 4.77546 40.0859 4.93372C40.4687 5.09198 40.8166 5.32428 41.1097 5.61731C41.4028 5.91035 41.6353 6.25838 41.7939 6.64148C41.9525 7.02459 42.0342 7.43524 42.0342 7.84998V12.15C42.0342 12.5648 41.9525 12.9754 41.7939 13.3585C41.6353 13.7416 41.4028 14.0897 41.1097 14.3827C40.8166 14.6757 40.4687 14.908 40.0859 15.0663C39.7031 15.2245 39.2929 15.3057 38.8787 15.3051H34.5749C34.1608 15.3057 33.7506 15.2245 33.3677 15.0663C32.9849 14.908 32.6371 14.6757 32.344 14.3827C32.0509 14.0897 31.8184 13.7416 31.6598 13.3585C31.5011 12.9754 31.4195 12.5648 31.4195 12.15V7.84998Z" fill="white"/>
<path d="M34.6298 14.27H38.8387C39.4125 14.27 39.9629 14.0421 40.3692 13.6362C40.7754 13.2304 41.0043 12.6796 41.0056 12.105V7.89503C41.0043 7.32037 40.7754 6.76965 40.3692 6.36378C39.9629 5.9579 39.4125 5.72998 38.8387 5.72999H34.6298C34.3455 5.72933 34.0638 5.78493 33.8009 5.89344C33.5381 6.00195 33.2991 6.16121 33.0979 6.36231C32.8966 6.56341 32.7369 6.80232 32.6279 7.06531C32.519 7.32831 32.4629 7.61029 32.4629 7.89503V12.105C32.4629 12.3897 32.519 12.6717 32.6279 12.9347C32.7369 13.1977 32.8966 13.4366 33.0979 13.6377C33.2991 13.8388 33.5381 13.9982 33.8009 14.1067C34.0638 14.2152 34.3455 14.2707 34.6298 14.27ZM39.5427 6.55005C39.6642 6.55005 39.7829 6.58612 39.8839 6.65369C39.9849 6.72127 40.0636 6.81732 40.1101 6.92969C40.1566 7.04207 40.1687 7.16574 40.145 7.28504C40.1213 7.40434 40.0628 7.51385 39.9769 7.59986C39.8911 7.68587 39.7816 7.74446 39.6625 7.76819C39.5434 7.79192 39.4199 7.77971 39.3077 7.73316C39.1955 7.68661 39.0996 7.60786 39.0321 7.50672C38.9646 7.40558 38.9286 7.28668 38.9286 7.16504C38.9286 7.00194 38.9933 6.84544 39.1085 6.73011C39.2236 6.61477 39.3798 6.55005 39.5427 6.55005ZM36.8066 7.33997C37.3167 7.34195 37.8148 7.49528 38.238 7.78052C38.6612 8.06577 38.9905 8.47024 39.1843 8.94275C39.3782 9.41527 39.4278 9.93465 39.3271 10.4354C39.2264 10.9362 38.9798 11.3958 38.6184 11.7564C38.257 12.1169 37.797 12.3621 37.2966 12.4611C36.7962 12.56 36.2776 12.5082 35.8066 12.3123C35.3355 12.1163 34.9329 11.785 34.6497 11.3601C34.3665 10.9352 34.2154 10.4359 34.2154 9.92505C34.218 9.23855 34.4922 8.58106 34.9779 8.09656C35.4635 7.61207 36.1211 7.33997 36.8066 7.33997Z" fill="white"/>
<path d="M36.8021 11.58C37.1288 11.579 37.4478 11.4811 37.7189 11.2987C37.99 11.1162 38.2011 10.8574 38.3254 10.5549C38.4497 10.2524 38.4817 9.91979 38.4174 9.59908C38.3531 9.27837 38.1953 8.98396 37.964 8.75301C37.7326 8.52205 37.4381 8.36492 37.1177 8.30147C36.7973 8.23801 36.4653 8.27103 36.1636 8.39644C35.8619 8.52185 35.6041 8.73401 35.4227 9.00606C35.2413 9.27811 35.1445 9.59789 35.1445 9.925C35.1445 10.1428 35.1874 10.3584 35.2708 10.5595C35.3541 10.7606 35.4763 10.9433 35.6303 11.097C35.7843 11.2507 35.9671 11.3725 36.1682 11.4554C36.3693 11.5383 36.5847 11.5807 36.8021 11.58Z" fill="white"/>
<path d="M10.0071 20C11.9821 20 13.9127 19.4135 15.5548 18.3147C17.1969 17.2159 18.4768 15.6542 19.2326 13.8269C19.9884 11.9996 20.1862 9.98889 19.8009 8.04908C19.4156 6.10927 18.4645 4.32748 17.068 2.92896C15.6715 1.53043 13.8922 0.577995 11.9552 0.192143C10.0182 -0.193709 8.0104 0.00435829 6.18576 0.761235C4.36113 1.51811 2.8016 2.79985 1.70436 4.44434C0.60713 6.08883 0.0214844 8.02219 0.0214844 10C0.0214844 12.6522 1.07353 15.1957 2.9462 17.071C4.81886 18.9464 7.35875 20 10.0071 20ZM7.5906 8.27002C7.5906 8.23555 7.60426 8.20248 7.6286 8.1781C7.65295 8.15372 7.68596 8.14002 7.72039 8.14002H8.66903V6.64002C8.66903 6.39337 8.71761 6.1492 8.81202 5.92139C8.90642 5.69358 9.04479 5.48656 9.21918 5.31238C9.39356 5.13821 9.60055 5.00019 9.82828 4.90625C10.056 4.81232 10.3 4.76436 10.5463 4.76502H12.3088C12.3437 4.76631 12.3767 4.7811 12.4009 4.80628C12.4251 4.83146 12.4386 4.86507 12.4386 4.90003V6.43506C12.4386 6.46954 12.4249 6.5026 12.4006 6.52698C12.3763 6.55136 12.3432 6.56507 12.3088 6.56507H11.2653C11.1422 6.56507 11.0241 6.61397 10.937 6.70118C10.8499 6.78838 10.801 6.90671 10.801 7.03003V8.125H12.2988C12.3167 8.12495 12.3345 8.1286 12.3509 8.13575C12.3673 8.1429 12.3821 8.15336 12.3943 8.16651C12.4065 8.17966 12.4158 8.19522 12.4217 8.21216C12.4277 8.22911 12.43 8.24712 12.4286 8.26502L12.2988 9.80506C12.2963 9.83777 12.2815 9.86825 12.2574 9.89051C12.2334 9.91276 12.2018 9.92515 12.169 9.92505H10.8159V15.035C10.8159 15.0695 10.8023 15.1026 10.7779 15.127C10.7536 15.1513 10.7205 15.165 10.6861 15.165H8.81881C8.78391 15.1651 8.75037 15.1516 8.72523 15.1273C8.70008 15.1031 8.68532 15.07 8.68403 15.035V9.92505H7.72039C7.70334 9.92505 7.68647 9.9217 7.67072 9.91516C7.65497 9.90863 7.64066 9.89904 7.6286 9.88697C7.61655 9.8749 7.607 9.8605 7.60047 9.84473C7.59395 9.82896 7.5906 9.81212 7.5906 9.79505V8.27002Z" fill="white"/>
<path d="M64.0077 9.76975L61.3665 8.33469C61.2566 8.27469 60.8672 8.3347 60.8672 8.4747V11.2697C60.8672 11.3947 61.2466 11.4698 61.3665 11.4148L64.1325 10.0498C64.2424 9.98978 64.1325 9.82975 64.0127 9.76975" fill="white"/>
<path d="M62.0354 0C60.0605 0 58.1299 0.586489 56.4877 1.6853C54.8456 2.78412 53.5657 4.34596 52.8099 6.17322C52.0541 8.00048 51.8564 10.0111 52.2417 11.9509C52.627 13.8907 53.578 15.6725 54.9745 17.071C56.371 18.4696 58.1503 19.422 60.0873 19.8079C62.0244 20.1937 64.0321 19.9956 65.8567 19.2388C67.6814 18.4819 69.2409 17.2002 70.3382 15.5557C71.4354 13.9112 72.0211 11.9778 72.0211 10C72.0211 7.34784 70.969 4.80432 69.0963 2.92896C67.2237 1.05359 64.6838 0 62.0354 0ZM67.5275 11.355C67.5275 11.6706 67.4654 11.9832 67.3446 12.2747C67.2239 12.5662 67.0469 12.8309 66.8238 13.0538C66.6008 13.2768 66.336 13.4534 66.0446 13.5737C65.7533 13.694 65.4411 13.7557 65.126 13.755H58.9449C58.6297 13.7557 58.3176 13.694 58.0262 13.5737C57.7349 13.4534 57.4701 13.2768 57.247 13.0538C57.024 12.8309 56.847 12.5662 56.7262 12.2747C56.6055 11.9832 56.5433 11.6706 56.5433 11.355V8.64502C56.5433 8.32943 56.6055 8.01697 56.7262 7.72546C56.847 7.43396 57.024 7.16909 57.247 6.94617C57.4701 6.72324 57.7349 6.54659 58.0262 6.42627C58.3176 6.30595 58.6297 6.24434 58.9449 6.245H65.121C65.4361 6.24434 65.7483 6.30595 66.0396 6.42627C66.331 6.54659 66.5958 6.72324 66.8188 6.94617C67.0419 7.16909 67.2189 7.43396 67.3396 7.72546C67.4604 8.01697 67.5225 8.32943 67.5225 8.64502L67.5275 11.355Z" fill="white"/>
<path d="M84.3389 3.27002C88.4529 3.27002 91.2589 6.05006 91.2589 10.0601C91.2589 12.5351 89.8559 13.7051 88.2632 13.7051C87.8339 13.7383 87.4038 13.6533 87.0192 13.4595C86.6347 13.2656 86.3103 12.9701 86.0813 12.605C85.7269 13.265 85.0828 13.6901 83.8146 13.6901C82.5464 13.6901 81.7326 13.1451 81.3931 12.0801C81.2009 11.4438 81.1214 10.7787 81.1584 10.115C81.1208 9.4562 81.2002 8.79601 81.3931 8.16504C81.527 7.67168 81.8276 7.24003 82.2437 6.94373C82.6597 6.64742 83.1655 6.50478 83.6748 6.54004C84.0276 6.51741 84.3804 6.5849 84.7 6.73621C85.0197 6.88751 85.2957 7.11765 85.5022 7.40503V6.88C85.4993 6.86068 85.5006 6.84091 85.5061 6.82214C85.5116 6.80338 85.521 6.7861 85.5339 6.77136C85.5467 6.75662 85.5625 6.74481 85.5803 6.73682C85.5981 6.72882 85.6175 6.72476 85.637 6.72498H87.2596C87.3645 6.72498 87.3945 6.775 87.3945 6.88V10.995C87.3945 11.74 87.8039 12.0601 88.2932 12.0601C88.9173 12.0601 89.3916 11.5351 89.3916 10.0601C89.3916 6.97506 87.4644 4.89502 84.3489 4.89502C81.2333 4.89502 79.3111 6.95997 79.3111 10.095C79.3111 13.23 81.2383 15.225 84.3489 15.225C85.5612 15.2498 86.7611 14.9769 87.8438 14.4301C87.863 14.4162 87.8851 14.407 87.9084 14.4031C87.9317 14.3991 87.9556 14.4006 87.9783 14.4073C88.001 14.4141 88.0218 14.426 88.0391 14.442C88.0565 14.4581 88.0699 14.4779 88.0785 14.5L88.6876 15.6C88.7005 15.6179 88.7092 15.6387 88.7129 15.6605C88.7166 15.6824 88.7153 15.7047 88.7091 15.726C88.7028 15.7472 88.6918 15.7668 88.6768 15.7831C88.6618 15.7994 88.6433 15.812 88.6227 15.8201C87.3207 16.5652 85.8377 16.9338 84.3389 16.885C80.2448 16.885 77.4238 14.11 77.4238 10.095C77.4238 6.07997 80.2448 3.25 84.3389 3.25V3.27002ZM84.2739 12.01C84.5216 12.0325 84.7692 11.9666 84.973 11.8239C85.1768 11.6811 85.3235 11.4707 85.3873 11.23C85.4882 10.8607 85.5237 10.4765 85.4922 10.095C85.5244 9.71836 85.4889 9.33902 85.3873 8.97498C85.3247 8.73251 85.1788 8.51991 84.9751 8.37451C84.7715 8.22912 84.5233 8.16032 84.2739 8.18005C84.0251 8.16585 83.7789 8.23676 83.5756 8.38123C83.3724 8.52569 83.2243 8.73505 83.1556 8.97498C83.0672 9.34132 83.0336 9.71875 83.0557 10.095C83.0342 10.4761 83.0679 10.8584 83.1556 11.23C83.2247 11.4686 83.3734 11.6763 83.577 11.8182C83.7805 11.9602 84.0265 12.0279 84.2739 12.01Z" fill="white"/>
<path d="M97.8345 14.6098C97.812 14.6105 97.7896 14.6067 97.7687 14.5984C97.7478 14.5901 97.7288 14.5776 97.7129 14.5616C97.697 14.5457 97.6845 14.5267 97.6763 14.5057C97.668 14.4848 97.664 14.4624 97.6647 14.4399V13.7248C97.2903 14.3348 96.4964 14.7949 95.2632 14.7949C93.7254 14.7949 92.5371 13.9998 92.5371 12.3548C92.5371 10.7098 93.7254 9.85484 95.7026 9.85484H97.5399C97.5541 9.85643 97.5684 9.8548 97.5818 9.85008C97.5953 9.84537 97.6075 9.83771 97.6176 9.82762C97.6276 9.81753 97.6353 9.80532 97.64 9.79185C97.6447 9.77839 97.6464 9.76404 97.6448 9.74986V9.1599C97.6448 8.0399 97.2054 7.56493 95.6976 7.56493C94.9981 7.53473 94.3083 7.73683 93.7354 8.13988C93.7214 8.15851 93.7034 8.17365 93.6826 8.18407C93.6618 8.19448 93.6388 8.19994 93.6156 8.19994C93.5923 8.19994 93.5694 8.19448 93.5486 8.18407C93.5278 8.17365 93.5097 8.15851 93.4958 8.13988L93.0414 7.35985C93.0166 7.32346 93.0065 7.27914 93.013 7.23558C93.0194 7.19202 93.0421 7.15244 93.0763 7.12486C93.883 6.56372 94.8511 6.28279 95.8324 6.32494C98.1341 6.32494 99.0128 7.08983 99.0128 9.08983V14.4598C99.0135 14.4823 99.0096 14.5048 99.0013 14.5257C98.993 14.5467 98.9805 14.5657 98.9646 14.5816C98.9487 14.5976 98.9297 14.6101 98.9088 14.6184C98.8879 14.6267 98.8655 14.6306 98.843 14.6299L97.8345 14.6098ZM97.6348 11.9798V11.0848C97.6348 11.0148 97.5998 10.9848 97.5299 10.9848H95.9073C94.5043 10.9848 93.9101 11.3899 93.9101 12.3049C93.9101 13.1349 94.5193 13.5749 95.6027 13.5749C96.8709 13.5749 97.6497 12.9798 97.6497 11.9798" fill="white"/>
<path d="M106.242 14.61C106.22 14.6115 106.197 14.6081 106.176 14.6001C106.154 14.5921 106.135 14.5796 106.119 14.5635C106.103 14.5474 106.091 14.528 106.082 14.5067C106.074 14.4854 106.071 14.4628 106.073 14.4401V13.66C105.831 14.0429 105.489 14.3515 105.084 14.5518C104.679 14.7521 104.226 14.8363 103.776 14.7951C103.157 14.8447 102.54 14.6773 102.031 14.3215C101.522 13.9658 101.152 13.4438 100.985 12.845C100.599 11.3394 100.599 9.76058 100.985 8.25501C101.153 7.65673 101.523 7.13539 102.032 6.77979C102.541 6.42419 103.157 6.2564 103.776 6.30506C104.994 6.30506 105.688 6.78006 106.073 7.42506V3.27003C106.071 3.24732 106.074 3.22454 106.082 3.20325C106.091 3.18196 106.103 3.1627 106.119 3.14661C106.135 3.13052 106.154 3.11801 106.176 3.10999C106.197 3.10197 106.22 3.09851 106.242 3.09998H107.326C107.348 3.09841 107.371 3.10181 107.392 3.10987C107.413 3.11793 107.432 3.13055 107.448 3.14673C107.463 3.16292 107.475 3.18232 107.483 3.20362C107.49 3.22492 107.493 3.24758 107.491 3.27003V14.4501C107.492 14.4723 107.489 14.4946 107.481 14.5155C107.473 14.5364 107.461 14.5555 107.446 14.5715C107.43 14.5876 107.412 14.6002 107.391 14.6085C107.37 14.6169 107.348 14.6207 107.326 14.62L106.242 14.61ZM105.888 12.235C106.134 11.1201 106.134 9.96484 105.888 8.84998C105.747 8.49066 105.502 8.1822 105.183 7.96473C104.865 7.74726 104.488 7.63087 104.103 7.63087C103.718 7.63087 103.341 7.74726 103.023 7.96473C102.704 8.1822 102.459 8.49066 102.318 8.84998C102.169 9.40034 102.105 9.97032 102.128 10.54C102.102 11.1115 102.166 11.6835 102.318 12.235C102.455 12.5985 102.699 12.9116 103.018 13.1326C103.337 13.3536 103.715 13.4721 104.103 13.4721C104.491 13.4721 104.869 13.3536 105.188 13.1326C105.507 12.9116 105.751 12.5985 105.888 12.235Z" fill="white"/>
<path d="M120.077 14.61C120.054 14.6107 120.032 14.6068 120.011 14.5985C119.99 14.5902 119.971 14.5777 119.955 14.5618C119.939 14.5459 119.927 14.5268 119.919 14.5059C119.91 14.4849 119.906 14.4626 119.907 14.4401V9.6951C119.907 8.3901 119.313 7.63003 118.095 7.63003C117.837 7.62468 117.582 7.67391 117.344 7.77444C117.107 7.87497 116.894 8.02456 116.719 8.21341C116.543 8.40225 116.41 8.62613 116.327 8.87027C116.244 9.11441 116.213 9.37327 116.237 9.63003V14.46C116.238 14.4825 116.234 14.505 116.226 14.5259C116.218 14.5468 116.205 14.5659 116.189 14.5818C116.173 14.5977 116.154 14.6103 116.133 14.6186C116.112 14.6269 116.09 14.6307 116.068 14.63H114.984C114.962 14.6307 114.939 14.6269 114.918 14.6186C114.898 14.6103 114.878 14.5977 114.863 14.5818C114.847 14.5659 114.834 14.5468 114.826 14.5259C114.818 14.505 114.814 14.4825 114.814 14.46V9.71499C114.814 8.40999 114.22 7.65005 113.007 7.65005C112.749 7.64237 112.492 7.68991 112.253 7.78958C112.015 7.88924 111.8 8.03877 111.624 8.22805C111.448 8.41733 111.314 8.64202 111.231 8.88723C111.148 9.13245 111.119 9.39253 111.145 9.65005V14.48C111.145 14.5025 111.141 14.525 111.133 14.5459C111.125 14.5669 111.112 14.5859 111.097 14.6018C111.081 14.6178 111.062 14.6303 111.041 14.6386C111.02 14.6469 110.997 14.6507 110.975 14.6501H109.892C109.869 14.6507 109.847 14.6469 109.826 14.6386C109.805 14.6303 109.786 14.6178 109.77 14.6018C109.754 14.5859 109.742 14.5669 109.733 14.5459C109.725 14.525 109.721 14.5025 109.722 14.48V6.7001C109.721 6.6778 109.725 6.6556 109.733 6.63491C109.742 6.61423 109.754 6.5954 109.77 6.57986C109.786 6.56432 109.805 6.55231 109.826 6.54458C109.847 6.53685 109.869 6.53365 109.892 6.53506H110.975C110.997 6.53365 111.019 6.53685 111.04 6.54458C111.061 6.55231 111.08 6.56432 111.096 6.57986C111.112 6.5954 111.125 6.61423 111.133 6.63491C111.142 6.6556 111.145 6.6778 111.145 6.7001V7.4501C111.423 7.09184 111.782 6.80485 112.193 6.61294C112.604 6.42103 113.054 6.32962 113.507 6.34622C113.96 6.36282 114.403 6.48706 114.798 6.70852C115.194 6.92999 115.532 7.24234 115.783 7.62002C116.075 7.20164 116.47 6.86499 116.928 6.64187C117.387 6.41875 117.895 6.31652 118.404 6.345C120.282 6.345 121.3 7.55005 121.3 9.39505V14.48C121.301 14.5025 121.297 14.525 121.289 14.5459C121.28 14.5669 121.268 14.5859 121.252 14.6018C121.236 14.6178 121.217 14.6303 121.196 14.6386C121.175 14.6469 121.153 14.6507 121.13 14.6501L120.077 14.61Z" fill="white"/>
<path d="M123.607 4.665C123.584 4.6657 123.562 4.6617 123.541 4.65341C123.52 4.64511 123.501 4.63271 123.485 4.61679C123.469 4.60086 123.457 4.58182 123.448 4.56088C123.44 4.53994 123.436 4.51747 123.437 4.49496V3.26998C123.435 3.24728 123.439 3.2245 123.447 3.20321C123.455 3.18192 123.467 3.16266 123.483 3.14657C123.499 3.13048 123.519 3.11797 123.54 3.10995C123.561 3.10193 123.584 3.09847 123.607 3.09994H124.755C124.778 3.09847 124.8 3.10193 124.822 3.10995C124.843 3.11797 124.862 3.13048 124.878 3.14657C124.894 3.16266 124.907 3.18192 124.915 3.20321C124.923 3.2245 124.926 3.24728 124.925 3.26998V4.50497C124.926 4.52767 124.923 4.55045 124.915 4.57174C124.907 4.59303 124.894 4.61242 124.878 4.6285C124.862 4.64459 124.843 4.65698 124.822 4.665C124.8 4.67303 124.778 4.67648 124.755 4.67501L123.607 4.665ZM123.642 14.61C123.619 14.6106 123.597 14.6068 123.576 14.5985C123.555 14.5902 123.536 14.5777 123.52 14.5617C123.504 14.5458 123.492 14.5268 123.483 14.5058C123.475 14.4849 123.471 14.4625 123.472 14.44V6.66C123.471 6.6377 123.475 6.6155 123.483 6.59481C123.492 6.57412 123.504 6.55542 123.52 6.53988C123.536 6.52434 123.555 6.51233 123.576 6.5046C123.597 6.49688 123.619 6.49355 123.642 6.49496H124.725C124.747 6.49355 124.77 6.49688 124.79 6.5046C124.811 6.51233 124.83 6.52434 124.846 6.53988C124.862 6.55542 124.875 6.57412 124.883 6.59481C124.892 6.6155 124.895 6.6377 124.895 6.66V14.44C124.895 14.4625 124.892 14.4849 124.883 14.5058C124.875 14.5268 124.862 14.5458 124.847 14.5617C124.831 14.5777 124.812 14.5902 124.791 14.5985C124.77 14.6068 124.747 14.6106 124.725 14.61H123.642Z" fill="white"/>
<path d="M126.567 13.5752C126.551 13.5598 126.538 13.5411 126.529 13.5205C126.52 13.4999 126.516 13.4777 126.516 13.4552C126.516 13.4327 126.52 13.4104 126.529 13.3898C126.538 13.3691 126.551 13.3505 126.567 13.3351L127.261 12.5901C127.277 12.5745 127.295 12.5621 127.315 12.5537C127.335 12.5453 127.357 12.541 127.379 12.541C127.4 12.541 127.422 12.5453 127.442 12.5537C127.462 12.5621 127.481 12.5745 127.496 12.5901C128.195 13.1824 129.077 13.513 129.992 13.5251C131.176 13.5251 131.765 13.0251 131.765 12.2851C131.765 11.6451 131.46 11.2851 130.192 11.1501L129.333 11.0652C127.741 10.9002 126.912 10.1001 126.912 8.78014C126.912 7.24014 128.01 6.30517 129.907 6.30517C130.937 6.29062 131.945 6.60597 132.783 7.20519C132.802 7.21758 132.818 7.23366 132.83 7.25256C132.842 7.27146 132.85 7.29266 132.853 7.31481C132.856 7.33696 132.855 7.35964 132.849 7.38122C132.843 7.4028 132.832 7.42289 132.818 7.44018L132.244 8.17016C132.231 8.18838 132.214 8.20368 132.195 8.21533C132.175 8.22697 132.154 8.23465 132.132 8.23791C132.109 8.24117 132.087 8.24001 132.065 8.23437C132.043 8.22873 132.022 8.21885 132.004 8.20519C131.351 7.79054 130.596 7.56231 129.823 7.54516C128.824 7.54516 128.285 8.00015 128.285 8.66015C128.285 9.32015 128.674 9.66013 129.873 9.76513L130.721 9.85009C132.359 10.0001 133.158 10.8501 133.158 12.1351C133.158 13.7251 132.004 14.7952 129.893 14.7952C128.665 14.8105 127.474 14.3768 126.542 13.5752" fill="white"/>
<path d="M134.986 4.66492C134.963 4.66561 134.941 4.66162 134.92 4.65332C134.899 4.64503 134.88 4.63263 134.864 4.6167C134.848 4.60078 134.836 4.58173 134.827 4.5608C134.819 4.53986 134.815 4.51739 134.816 4.49488V3.2699C134.814 3.2472 134.818 3.22442 134.826 3.20313C134.834 3.18184 134.846 3.16258 134.862 3.14649C134.878 3.1304 134.898 3.11789 134.919 3.10987C134.94 3.10184 134.963 3.09839 134.986 3.09986H136.134C136.157 3.09763 136.18 3.10047 136.202 3.10816C136.224 3.11584 136.244 3.12824 136.261 3.14441C136.277 3.16059 136.29 3.18024 136.298 3.20191C136.307 3.22358 136.31 3.24674 136.309 3.2699V4.50489C136.309 4.52784 136.305 4.55073 136.297 4.57203C136.288 4.59332 136.275 4.61254 136.259 4.62854C136.242 4.64455 136.223 4.65694 136.201 4.66492C136.18 4.6729 136.157 4.67633 136.134 4.67493L134.986 4.66492ZM135.02 14.6099C134.998 14.6106 134.976 14.6067 134.955 14.5984C134.934 14.5901 134.915 14.5776 134.899 14.5617C134.883 14.5457 134.871 14.5267 134.862 14.5057C134.854 14.4848 134.85 14.4625 134.851 14.4399V6.65992C134.85 6.63762 134.854 6.61542 134.862 6.59473C134.871 6.57404 134.883 6.55534 134.899 6.5398C134.915 6.52426 134.934 6.51225 134.955 6.50452C134.976 6.49679 134.998 6.49347 135.02 6.49488H136.104C136.126 6.49347 136.148 6.49679 136.169 6.50452C136.19 6.51225 136.209 6.52426 136.225 6.5398C136.241 6.55534 136.254 6.57404 136.262 6.59473C136.27 6.61542 136.274 6.63762 136.274 6.65992V14.4399C136.274 14.4625 136.27 14.4848 136.262 14.5057C136.254 14.5267 136.241 14.5457 136.226 14.5617C136.21 14.5776 136.191 14.5901 136.17 14.5984C136.149 14.6067 136.126 14.6106 136.104 14.6099H135.02Z" fill="white"/>
<path d="M138.306 12.61C137.94 11.2611 137.94 9.83886 138.306 8.48999C138.557 7.84583 138.996 7.29254 139.566 6.90247C140.136 6.51239 140.811 6.30371 141.501 6.30371C142.192 6.30371 142.866 6.51239 143.436 6.90247C144.006 7.29254 144.446 7.84583 144.697 8.48999C145.063 9.83886 145.063 11.2611 144.697 12.61C144.446 13.2541 144.006 13.8074 143.436 14.1975C142.866 14.5876 142.192 14.7964 141.501 14.7964C140.811 14.7964 140.136 14.5876 139.566 14.1975C138.996 13.8074 138.557 13.2541 138.306 12.61ZM143.329 12.2051C143.476 11.6631 143.539 11.1013 143.513 10.54C143.539 9.98702 143.477 9.43339 143.329 8.90002C143.189 8.52774 142.939 8.207 142.612 7.98059C142.286 7.75418 141.898 7.63281 141.501 7.63281C141.104 7.63281 140.716 7.75418 140.39 7.98059C140.063 8.207 139.814 8.52774 139.674 8.90002C139.526 9.43339 139.463 9.98702 139.489 10.54C139.464 11.1013 139.526 11.6631 139.674 12.2051C139.814 12.5774 140.063 12.8981 140.39 13.1245C140.716 13.3509 141.104 13.4722 141.501 13.4722C141.898 13.4722 142.286 13.3509 142.612 13.1245C142.939 12.8981 143.189 12.5774 143.329 12.2051Z" fill="white"/>
<path d="M151.961 14.6098C151.938 14.6112 151.915 14.6079 151.894 14.5999C151.873 14.5918 151.853 14.5793 151.837 14.5632C151.821 14.5472 151.809 14.5278 151.801 14.5065C151.793 14.4852 151.789 14.4625 151.791 14.4398V9.69484C151.791 8.38984 151.197 7.62978 149.979 7.62978C149.721 7.62282 149.464 7.6709 149.226 7.77089C148.988 7.87088 148.775 8.02054 148.599 8.20973C148.423 8.39893 148.29 8.62332 148.207 8.86818C148.125 9.11304 148.096 9.37268 148.121 9.62978V14.4597C148.122 14.4822 148.118 14.5047 148.11 14.5257C148.101 14.5466 148.089 14.5656 148.073 14.5816C148.057 14.5975 148.038 14.61 148.017 14.6183C147.996 14.6266 147.974 14.6305 147.951 14.6298H146.868C146.846 14.6305 146.823 14.6266 146.802 14.6183C146.781 14.61 146.762 14.5975 146.747 14.5816C146.731 14.5656 146.718 14.5466 146.71 14.5257C146.702 14.5047 146.698 14.4822 146.698 14.4597V6.67983C146.698 6.65753 146.702 6.63533 146.71 6.61464C146.718 6.59395 146.731 6.57525 146.747 6.55971C146.763 6.54417 146.782 6.53216 146.803 6.52443C146.824 6.5167 146.846 6.51338 146.868 6.51479H147.966C147.989 6.51338 148.011 6.5167 148.032 6.52443C148.053 6.53216 148.072 6.54417 148.088 6.55971C148.104 6.57525 148.116 6.59395 148.125 6.61464C148.133 6.63533 148.137 6.65753 148.136 6.67983V7.42983C148.387 7.06517 148.727 6.77168 149.124 6.57802C149.521 6.38436 149.962 6.29715 150.403 6.32485C152.16 6.32485 153.209 7.52977 153.209 9.37477V14.4597C153.21 14.482 153.207 14.5044 153.199 14.5253C153.192 14.5462 153.18 14.5653 153.164 14.5813C153.149 14.5973 153.13 14.61 153.109 14.6183C153.089 14.6267 153.066 14.6305 153.044 14.6298L151.961 14.6098Z" fill="white"/>
<path d="M160.005 14.6098C159.982 14.6113 159.959 14.608 159.938 14.5999C159.917 14.5919 159.897 14.5794 159.881 14.5633C159.865 14.5472 159.853 14.5279 159.845 14.5066C159.837 14.4853 159.833 14.4626 159.835 14.4399V13.8448C159.591 14.164 159.271 14.4177 158.905 14.5835C158.54 14.7492 158.138 14.8218 157.738 14.7949C155.93 14.7949 154.982 13.5248 154.982 11.7448V6.57993C154.98 6.55722 154.984 6.53445 154.992 6.51316C155 6.49186 155.012 6.47248 155.028 6.45639C155.044 6.4403 155.064 6.42779 155.085 6.41977C155.106 6.41175 155.129 6.40841 155.152 6.40988H157.179C157.201 6.40841 157.224 6.41175 157.245 6.41977C157.267 6.42779 157.286 6.4403 157.302 6.45639C157.318 6.47248 157.33 6.49186 157.338 6.51316C157.346 6.53445 157.35 6.55722 157.348 6.57993V11.2699C157.348 12.1549 157.773 12.7699 158.602 12.7699C159.43 12.7699 159.855 12.1749 159.855 11.2699V6.56491C159.853 6.54221 159.857 6.51943 159.865 6.49814C159.873 6.47685 159.885 6.45747 159.901 6.44138C159.917 6.42529 159.937 6.41278 159.958 6.40476C159.979 6.39673 160.002 6.3934 160.025 6.39487H162.052C162.074 6.3934 162.097 6.39673 162.118 6.40476C162.14 6.41278 162.159 6.42529 162.175 6.44138C162.191 6.45747 162.203 6.47685 162.211 6.49814C162.219 6.51943 162.223 6.54221 162.221 6.56491V14.4249C162.223 14.4476 162.219 14.4704 162.211 14.4917C162.203 14.513 162.191 14.5322 162.175 14.5483C162.159 14.5644 162.14 14.5769 162.118 14.5849C162.097 14.593 162.074 14.5963 162.052 14.5948L160.005 14.6098Z" fill="white"/>
<path d="M163.28 13.5251C163.248 13.4932 163.23 13.4501 163.23 13.4051C163.23 13.3601 163.248 13.317 163.28 13.2851L164.383 12.0501C164.398 12.0332 164.416 12.0196 164.436 12.0103C164.456 12.001 164.478 11.9962 164.501 11.9962C164.523 11.9962 164.545 12.001 164.565 12.0103C164.585 12.0196 164.603 12.0332 164.618 12.0501C165.334 12.6078 166.208 12.923 167.114 12.9502C167.973 12.9502 168.383 12.6251 168.383 12.1701C168.383 11.7151 168.163 11.5402 167.214 11.4552L166.301 11.3551C164.573 11.1851 163.629 10.3201 163.629 8.85507C163.629 7.24507 164.863 6.22506 166.995 6.22506C168.178 6.19386 169.34 6.54443 170.31 7.22506C170.327 7.24178 170.34 7.26165 170.349 7.28353C170.358 7.30541 170.363 7.32893 170.363 7.35262C170.363 7.37631 170.358 7.39971 170.349 7.42159C170.34 7.44347 170.327 7.46334 170.31 7.48007L169.366 8.6451C169.353 8.66333 169.336 8.67875 169.317 8.69039C169.297 8.70204 169.276 8.70972 169.254 8.71298C169.231 8.71623 169.209 8.71495 169.187 8.70931C169.165 8.70368 169.145 8.69379 169.127 8.68014C168.462 8.2603 167.695 8.0319 166.91 8.0201C166.216 8.0201 165.881 8.29016 165.881 8.70016C165.881 9.11016 166.081 9.29008 167.015 9.37508L167.908 9.47506C169.841 9.66506 170.634 10.5951 170.634 11.9751C170.634 13.6551 169.316 14.7901 166.98 14.7901C165.626 14.8322 164.302 14.3809 163.255 13.5201" fill="white"/>
<path d="M181.803 14.61C181.781 14.6107 181.758 14.6068 181.737 14.5985C181.716 14.5902 181.697 14.5777 181.681 14.5618C181.666 14.5458 181.653 14.5268 181.645 14.5059C181.636 14.4849 181.633 14.4626 181.633 14.4401V9.72998C181.633 8.82998 181.194 8.22998 180.35 8.22998C179.506 8.22998 179.082 8.81998 179.082 9.72998V14.4401C179.083 14.4626 179.079 14.4849 179.07 14.5059C179.062 14.5268 179.05 14.5458 179.034 14.5618C179.018 14.5777 178.999 14.5902 178.978 14.5985C178.957 14.6068 178.935 14.6107 178.912 14.61H176.88C176.858 14.6107 176.835 14.6068 176.814 14.5985C176.793 14.5902 176.774 14.5777 176.759 14.5618C176.743 14.5458 176.73 14.5268 176.722 14.5059C176.714 14.4849 176.71 14.4626 176.71 14.4401V9.72998C176.71 8.82998 176.291 8.22998 175.442 8.22998C174.593 8.22998 174.159 8.81998 174.159 9.72998V14.4401C174.16 14.4626 174.156 14.4849 174.148 14.5059C174.139 14.5268 174.127 14.5458 174.111 14.5618C174.095 14.5777 174.076 14.5902 174.055 14.5985C174.034 14.6068 174.012 14.6107 173.989 14.61H171.957C171.935 14.6107 171.912 14.6068 171.891 14.5985C171.871 14.5902 171.852 14.5777 171.836 14.5618C171.82 14.5458 171.807 14.5268 171.799 14.5059C171.791 14.4849 171.787 14.4626 171.787 14.4401V6.58008C171.786 6.55738 171.789 6.5346 171.797 6.51331C171.805 6.49202 171.818 6.47264 171.834 6.45655C171.85 6.44046 171.869 6.42795 171.891 6.41993C171.912 6.4119 171.935 6.40857 171.957 6.41004H173.989C174.012 6.40857 174.035 6.4119 174.056 6.41993C174.077 6.42795 174.096 6.44046 174.113 6.45655C174.129 6.47264 174.141 6.49202 174.149 6.51331C174.157 6.5346 174.16 6.55738 174.159 6.58008V7.15503C174.435 6.854 174.773 6.61548 175.149 6.45545C175.525 6.29541 175.93 6.21759 176.339 6.22705C176.747 6.23652 177.148 6.3331 177.516 6.51038C177.884 6.68766 178.211 6.94148 178.473 7.25501C178.803 6.9089 179.203 6.63779 179.647 6.46009C180.09 6.28238 180.567 6.2022 181.044 6.22498C182.976 6.22498 183.97 7.46002 183.97 9.27002V14.4401C183.971 14.4623 183.968 14.4846 183.96 14.5055C183.953 14.5264 183.941 14.5455 183.925 14.5615C183.91 14.5775 183.891 14.5902 183.87 14.5985C183.85 14.6069 183.827 14.6107 183.805 14.61H181.803Z" fill="white"/>
</g>
<defs>
<clipPath id="clip0">
<rect width="184" height="20" fill="white"/>
</clipPath>
</defs>
</svg>
