<svg width="23" height="15" viewBox="0 0 23 15" fill="none" xmlns="http://www.w3.org/2000/svg">
<g clip-path="url(#clip0)">
<path d="M3.02398 15.0002H13.4793C14.2813 15.0002 15.0504 14.6918 15.6175 14.1428C16.1846 13.5938 16.5032 12.8492 16.5032 12.0728V11.3606L21.1018 13.1911C21.4375 13.326 21.8148 13.3269 22.1512 13.1934C22.4875 13.06 22.7556 12.8031 22.897 12.4788C22.9628 12.3177 22.9977 12.1464 23 11.9731V3.04151C23 2.68826 22.855 2.34949 22.597 2.09971C22.339 1.84993 21.989 1.7096 21.6241 1.7096C21.445 1.71031 21.2677 1.74416 21.1018 1.80932L16.5032 3.64693V2.93468C16.5032 2.15829 16.1846 1.41371 15.6175 0.864724C15.0504 0.315739 14.2813 0.00732422 13.4793 0.00732422H3.02398C2.22197 0.00732422 1.45286 0.315739 0.885756 0.864724C0.318647 1.41371 0 2.15829 0 2.93468V12.08C0.00194827 12.8551 0.321373 13.5979 0.88827 14.1453C1.45517 14.6928 2.22324 15.0002 3.02398 15.0002ZM16.5032 5.37057L21.3519 3.43325V11.56L16.5032 9.62983V5.37057ZM1.66284 2.92043C1.66284 2.56718 1.80781 2.22841 2.06583 1.97863C2.32386 1.72884 2.6738 1.58852 3.03871 1.58852H13.4865C13.8514 1.58852 14.2015 1.72884 14.4595 1.97863C14.7175 2.22841 14.8624 2.56718 14.8624 2.92043V12.0728C14.8624 12.4261 14.7175 12.7649 14.4595 13.0146C14.2015 13.2644 13.8514 13.4048 13.4865 13.4048H3.03871C2.6738 13.4048 2.32386 13.2644 2.06583 13.0146C1.80781 12.7649 1.66284 12.4261 1.66284 12.0728V2.92043Z" fill="white"/>
</g>
<defs>
<clipPath id="clip0">
<rect width="23" height="15" fill="white"/>
</clipPath>
</defs>
</svg>
